<?xml version="1.0" encoding="utf-8"?>
<!DOCTYPE svg PUBLIC "-//W3C//DTD SVG 1.0//EN" "http://www.w3.org/TR/2001/REC-SVG-20010904/DTD/svg10.dtd">
<svg version="1.0" xmlns="http://www.w3.org/2000/svg" width="200px" height="200px" viewBox="0 0 200 200" preserveAspectRatio="xMidYMid meet">
 <g fill="#ffffff">
  <path d="M0 100 l0 -100 100 0 100 0 0 100 0 100 -100 0 -100 0 0 -100z m134.4 76.5 c2.8 -0.8 7.7 -2 10.9 -2.8 3.4 -0.8 7 -2.6 8.5 -4 2 -1.9 4.5 -2.9 9.6 -3.7 7.3 -1.1 10.6 -2.4 10.6 -4.1 0 -0.5 -0.7 -1.2 -1.5 -1.5 -0.8 -0.4 -1.5 -1.7 -1.5 -3 0 -2.8 -3.3 -6.1 -6.9 -6.8 -1.4 -0.3 -6.9 -1.1 -12 -1.6 -7.6 -0.9 -10.9 -1.8 -16.4 -4.6 -8.3 -4.2 -16.6 -12.5 -16.7 -16.6 0 -2.4 -0.4 -2.8 -3 -2.8 -2 0 -4 -0.9 -5.6 -2.5 -2.3 -2.3 -2.5 -3.1 -2.1 -8.8 0.3 -3.4 1.5 -9.7 2.8 -13.9 2.3 -7.6 2.5 -7.8 5.6 -7.8 3.1 0 3.3 0.3 4.9 5.8 1 3.1 2 8.4 2.4 11.7 l0.6 6 0.8 -4.2 c0.9 -4.8 0.7 -5.7 -4 -17.4 -3.8 -9.6 -4.2 -13.8 -1.8 -19.5 2.3 -5.6 6.2 -9.3 11.1 -10.6 4.8 -1.2 6 -2.3 4.4 -4.2 -0.6 -0.7 -1.8 -4.3 -2.6 -8.1 -4.4 -18.7 -14.6 -28.7 -34.5 -33.8 -15.7 -4.1 -19.3 -4.3 -30.5 -1.3 -5.5 1.5 -11.3 3.5 -13 4.6 l-3 2 3.8 0 c3.5 0 3.7 0.1 3.7 3.4 0 4.6 -3.6 12.5 -6.3 13.7 -1.9 0.9 -2.2 1.8 -2.3 7 0 5.5 0.1 5.9 2.3 5.9 2 0 2.3 0.5 2.3 3.5 0 3.2 -0.3 3.5 -2.8 3.5 -1.6 0 -3.7 0.7 -4.8 1.5 -1 0.8 -3.6 1.5 -5.6 1.5 -3.6 0 -3.8 -0.1 -3.8 -3.4 0 -1.8 0.7 -3.9 1.5 -4.6 1.1 -0.9 1.5 -3.3 1.5 -9.1 0 -7.2 0.2 -7.9 2 -7.9 1.7 0 2 -0.7 2 -4.7 l-0.1 -4.8 -2.9 3.4 c-6.4 7.5 -7.6 13.3 -8.6 39.8 l-0.6 15.1 2.3 1.3 c1.3 0.7 5 1.5 8.3 1.8 5.8 0.6 5.9 0.6 7.7 5.1 3.3 8.3 2.1 27.6 -2.1 32.5 -2.6 3 -3.1 5.8 -4.1 19.5 -0.4 6.9 -1.1 13.7 -1.4 15.2 -0.6 2.4 -0.3 2.9 3.4 4.7 5.9 3.1 12.2 3.7 17.1 1.7 6.7 -2.7 11 -2.1 17.5 2.3 3.2 2.2 7.9 4.5 10.4 5.1 13 3 31.6 3.2 42.5 0.5z"/>
  <path d="M118 169.6 c0 -4.1 1 -4.6 11.3 -5.3 l7.7 -0.6 0 3.6 c0 3.3 -0.3 3.7 -3.7 4.6 -2.1 0.6 -6.4 1.1 -9.5 1.1 l-5.8 0 0 -3.4z"/>
  <path d="M151 159.7 c0 -3.9 1.2 -4.7 6.6 -4.7 3.5 0 3.5 0.1 3.2 3.8 -0.3 3.7 -0.3 3.7 -5 4 l-4.8 0.3 0 -3.4z"/>
  <path d="M79 140 c0 -2.9 0.4 -4 1.5 -4 0.8 0 1.5 -0.4 1.5 -1 0 -0.5 1.8 -1 4 -1 l4 0 0 4.4 c0 4.1 -0.2 4.4 -3.1 5 -7 1.4 -7.9 1 -7.9 -3.4z"/>
  <path d="M78 67.6 c0 -3 0.4 -3.4 3.1 -4 1.7 -0.3 4.4 -0.6 6 -0.6 2.6 0 2.9 0.3 2.9 3.4 0 3.7 -1.5 4.6 -8.2 4.6 -3.6 0 -3.8 -0.1 -3.8 -3.4z"/>
  <path d="M76.8 59.4 c-2.2 -1.1 -2.8 -2.2 -2.8 -4.7 0 -4.1 3.7 -15.9 5.3 -16.9 1.7 -1.1 8.5 -1 9.2 0.2 0.3 0.6 1.5 1 2.7 1 1.7 0 2 0.6 1.7 4.8 -0.1 2.6 0.1 5.5 0.6 6.5 1 2.4 -0.1 8.8 -1.7 9.9 -2.1 1.3 -12.1 0.8 -15 -0.8z"/>
 </g>
 <g fill="#c39888">
  <path d="M101 181 c-11.9 -1.5 -16.3 -2.9 -22.5 -7.1 -3.2 -2.1 -6.2 -3.9 -6.6 -3.9 -0.5 0 -2.7 0.7 -4.9 1.6 -8.6 3.5 -27 -0.4 -27 -5.6 0 -1.3 0.7 -2 2 -2 1.1 0 2 0.6 2 1.4 0 2.8 16.8 4.6 20.5 2.2 1.3 -0.9 4.2 -1.6 6.5 -1.6 3.3 0 4 0.3 4 2 0 1.6 0.7 2 3.6 2 2.6 0 3.7 0.5 4 1.8 0.7 2.3 11.7 4.9 24.7 5.8 8.3 0.5 9.7 0.4 9.7 -0.9 0 -0.8 0.5 -1.7 1.2 -1.9 0.7 -0.3 -0.2 -1.1 -2 -1.9 -2.6 -1.1 -3.2 -2 -3.2 -4.4 l0 -3.1 10.3 -1.2 c16.5 -1.9 15.7 -2.1 15.7 4.2 l0 5.4 4.3 -0.5 c5.9 -0.8 11.7 -3.4 11.7 -5.4 0 -1.3 1.4 -1.8 6.5 -2.3 8 -0.8 11.5 -2.1 11.5 -4.1 0 -0.8 0.9 -1.5 2 -1.5 1.6 0 2 0.7 2 3 0 3.6 -1.6 4.6 -10.6 6 -5.1 0.8 -7.6 1.8 -9.6 3.7 -1.5 1.4 -5.1 3.2 -8.5 4 -3.2 0.8 -8.3 2.1 -11.3 2.9 -7.1 1.8 -26.5 2.5 -36 1.4z m31.8 -13 c1.3 -0.9 0.4 -1 -3.7 -0.5 -3 0.3 -6.2 1.1 -7 1.6 -1.1 0.7 -0.1 0.9 3.7 0.5 2.8 -0.3 6 -1 7 -1.6z"/>
  <path d="M82.1 164.1 c-1 -1 -3 -2.1 -4.5 -2.5 -1.4 -0.3 -2.6 -1.1 -2.6 -1.6 0 -0.6 -1 -1 -2.3 -1 -1.3 0 -3.4 -1.1 -4.6 -2.4 -1.4 -1.5 -3.8 -2.6 -6.7 -3 -2.4 -0.3 -6.2 -1.5 -8.4 -2.6 -3.5 -1.8 -4 -2.5 -4 -5.5 0 -2.8 -0.4 -3.5 -2 -3.5 -1.8 0 -2 0.7 -2 5.5 0 4 -0.4 5.5 -1.4 5.5 -1.8 0 -2.3 -2.3 -1.9 -8.5 0.2 -2.7 0.4 -5.9 0.4 -7 0.1 -4 2.2 -11.1 3.9 -13 1 -1.1 2.3 -4.4 3 -7.2 0.7 -3.3 1.7 -5.3 2.6 -5.3 2.9 0 0.7 13.5 -2.7 16.6 -2.9 2.6 -2.4 5.1 1.1 5.8 2.5 0.5 3 1 3 3.6 0 1.9 0.5 3 1.4 3 0.8 0 2.1 0.3 3 0.6 1.2 0.4 1.6 0 1.6 -1.5 0 -1.7 0.6 -2.1 3.5 -2.1 3.3 0 3.5 0.2 3.5 3.5 0 3 0.3 3.5 2.4 3.5 1.3 0 2.9 0.7 3.6 1.5 0.7 0.8 1.9 1.5 2.8 1.5 0.8 0 2.3 0.7 3.3 1.6 1 0.9 2.9 1.4 4.6 1.2 2.7 -0.4 2.6 -0.4 -1.4 -1.7 -4 -1.3 -4.1 -1.5 -4.8 -6.7 -0.6 -5.3 -0.7 -5.4 -3.9 -5.4 -3.8 0 -5.6 -1.5 -5.6 -4.7 0 -1.3 -0.4 -2.3 -1 -2.3 -0.5 0 -1 -1.6 -1 -3.5 0 -3.1 0.3 -3.5 2.5 -3.5 2 0 2.5 -0.5 2.5 -2.5 0 -1.8 -0.5 -2.5 -2 -2.5 -1.1 0 -2 0.5 -2 1 0 1.7 -6.7 1.2 -7.4 -0.6 -1.1 -3 -0.6 -10.3 0.8 -11.1 0.8 -0.5 1.7 -3.7 2.2 -8.3 l0.9 -7.5 4.5 0 c4 0 4.5 0.3 4.8 2.4 0.5 3.6 -0.7 7.1 -2.4 7.1 -1.4 0 -1.4 0.3 -0.4 1.5 0.7 0.8 1.9 1.5 2.6 1.5 1 0 1.4 1.6 1.4 6 0 5.3 0.2 6 2 6 1.4 0 2 0.7 2 2.4 0 3.7 1 5.6 3.1 5.6 1 0 1.9 0.7 1.9 1.5 0 0.9 0.9 1.5 2.5 1.5 2 0 2.5 0.5 2.5 2.5 0 2.1 0.5 2.5 3 2.5 2.8 0 3 0.3 3.1 3.8 0.1 2 0.3 2.9 0.6 1.9 0.4 -1.5 1.3 -1.7 5.1 -1.5 l4.7 0.3 0.3 4.3 c0.3 4.1 0.2 4.2 -2.7 4.2 -2.8 0 -3 0.3 -3.7 4.5 -0.6 4.4 -0.7 4.5 -4.5 4.5 -3.2 0 -3.9 0.4 -3.9 1.9 0 1 0.7 2.1 1.5 2.5 0.9 0.3 1.5 1.9 1.5 4.1 0 3.4 -0.1 3.5 -4 3.5 -2.6 0 -4.7 -0.7 -5.9 -1.9z"/>
  <path d="M149.6 161.5 c-0.3 -0.9 -0.6 -3 -0.6 -4.6 l0 -2.9 6.6 0 6.5 0 -0.3 4.3 -0.3 4.2 -5.6 0.3 c-4.5 0.2 -5.8 0 -6.3 -1.3z"/>
  <path d="M169.5 154.2 c-0.6 -2.1 -6.4 -4.2 -11.4 -4.2 -2.5 0 -3.1 -0.4 -3.1 -2.1 0 -1.9 0.4 -2 5.8 -1.3 9.1 1.1 13.2 3.4 13.2 7.5 0 2.5 -3.7 2.6 -4.5 0.1z"/>
  <path d="M146 148 c0 -0.5 -1.6 -1 -3.5 -1 -1.9 0 -3.5 -0.4 -3.5 -0.9 0 -0.5 -1.3 -1.1 -3 -1.4 -2.4 -0.5 -3 -1.2 -3 -3.1 0 -2.1 -0.5 -2.5 -3.7 -2.8 -3.7 -0.3 -3.8 -0.5 -4.1 -4.3 l-0.2 -4 3.2 3.6 c3.7 4.1 15.3 10.3 21.1 11.3 4.9 0.9 5.1 3.6 0.2 3.6 -1.9 0 -3.5 -0.4 -3.5 -1z"/>
  <path d="M118 127.5 c0 -2.1 -0.5 -2.5 -3 -2.5 -2.3 0 -3 -0.4 -3 -2 0 -1.3 -0.7 -2 -2 -2 -1.8 0 -2 -0.7 -2 -7 0 -4 0.6 -8.3 1.4 -9.8 0.7 -1.5 1.9 -5.1 2.6 -7.9 1.2 -5.1 1.3 -5.3 4.6 -5.3 3.2 0 3.3 -0.1 2.4 -2.6 -0.6 -1.4 -1 -4.8 -1 -7.5 0 -9 6 -17 13.8 -18.3 3.5 -0.5 3.9 -0.9 3.4 -2.8 -0.3 -1.3 -0.9 -2.5 -1.4 -2.9 -0.8 -0.5 -2.4 -7.3 -3.5 -14.6 -0.4 -2.8 -0.2 -4.3 0.5 -4.3 1.7 0 2.9 2.9 4.7 10.9 1.3 5.7 2.4 7.9 5.2 10.6 4 3.9 3.8 4.1 -5.8 6.9 -6.4 1.9 -10 5.2 -12.4 11.3 -1.7 4.2 -1.7 4.2 1.9 13 2 4.8 3.9 10.5 4.2 12.6 0.6 3.3 0.4 3.7 -1.4 3.7 -1.7 0 -2.1 -0.9 -2.7 -5 -0.4 -2.7 -1.1 -5 -1.5 -5 -0.5 0 -0.6 2.3 -0.3 5 0.5 4 0.3 5 -0.9 5 -1 0 -2.1 -2.2 -3.2 -6.2 l-1.8 -6.3 -2.5 8 c-3.9 12.5 -3.9 14 -0.9 17 1.5 1.5 3.2 2.5 3.9 2.3 0.7 -0.3 1.9 -2.6 2.6 -5.2 1.2 -3.7 1.9 -4.6 3.3 -4.3 1.1 0.3 1.8 0 1.8 -0.9 0 -0.8 1 -1.4 2.1 -1.4 1.9 0 2.1 0.4 1.4 3.8 -0.3 2 -1.9 6 -3.5 8.8 -2.1 3.8 -2.6 5.4 -1.7 6.3 0.8 0.8 0.3 1.1 -2.1 1.1 -2.7 0 -3.2 -0.4 -3.2 -2.5z"/>
  <path d="M95 104.5 c0 -4.4 0 -4.5 3.4 -4.5 3.7 0 4.6 1.2 4.6 6.1 0 2.7 -0.2 2.9 -4 2.9 l-4 0 0 -4.5z"/>
  <path d="M48.4 99.3 l-2 -5.8 -6 -0.6 c-5.6 -0.6 -11.4 -2.5 -11.4 -3.8 0.1 -1.7 2 -3.3 3.4 -2.8 1 0.4 1.6 0.1 1.6 -0.7 0 -1.4 6.1 -2.6 13.1 -2.6 3.8 0 3.9 0.1 3.9 3.5 0 2.2 -0.6 3.8 -1.5 4.1 -0.8 0.4 -1.5 1 -1.5 1.5 0 0.5 0.7 0.9 1.5 0.9 0.9 0 1.5 0.9 1.5 2.5 0 1.4 0.5 2.5 1 2.5 0.6 0 1 1.6 1 3.5 0 5.4 -2.2 4.3 -4.6 -2.2z"/>
  <path d="M52 85.7 c0 -2.8 0.5 -3.7 2.3 -4.3 2.1 -0.7 2 -0.8 -0.8 -1.3 -2.6 -0.5 -3 -1.1 -3.3 -4.4 -0.3 -3.5 -0.1 -3.7 2.5 -3.7 5.9 0 7.3 1 7.3 4.9 0 2.7 0.3 3.2 1 2.1 0.5 -0.8 1 -2.9 1 -4.5 0 -1.7 0.5 -3.6 1.2 -4.3 0.8 -0.8 1.1 -3.8 0.9 -8.7 l-0.2 -7.5 4 0 c3.1 0 4.1 -0.4 4.1 -1.6 0 -2.9 4.1 -15.8 5.5 -17.2 1 -1.1 3.2 -1.2 9.9 -0.7 l8.6 0.7 -0.1 9.7 c-0.1 5.7 -0.7 11 -1.5 13 l-1.4 3.3 -8.5 -0.3 c-4.7 -0.2 -8.1 -0.2 -7.5 -0.1 0.5 0.2 1 1 1 1.7 0 1 0.9 1.1 3.8 0.4 2 -0.5 6.7 -0.9 10.5 -0.9 l6.7 0 0 3.4 c0 3.4 -0.1 3.5 -4.7 4.1 -6.8 0.9 -14.4 3.2 -17.1 5 -1.2 0.9 -4 4 -6.2 7 -4.1 5.5 -3.9 5.4 -15.2 7.1 -3.8 0.6 -3.8 0.6 -3.8 -2.9z m36.7 -28.5 c1.9 -1.2 1.9 -4 -0.1 -5.5 -1.9 -1.4 -1.9 -1.6 -0.3 -5 2.1 -4.4 2.1 -4.7 -0.1 -4.7 -1 0 -2.3 -0.5 -2.8 -1 -2 -2 -4.3 0.2 -5.9 5.6 -0.8 2.9 -1.8 6 -2.1 6.8 -1.1 2.8 8 5.9 11.3 3.8z"/>
  <path d="M34.4 63.6 c-0.3 -0.9 -1.5 -1.6 -2.6 -1.6 -1.9 0 -2 -0.4 -1.3 -4.2 0.4 -2.4 0.9 -6.6 1 -9.5 0.5 -9.6 4.4 -17.4 12.2 -24.4 6.1 -5.5 10.3 -7.7 20.4 -10.4 11.2 -3 11.9 -3 11.9 -0.7 0 1.4 -1.5 2.2 -7 3.5 -3.9 0.9 -8.7 2.4 -10.8 3.4 -3.7 1.7 -3.7 1.7 -0.9 2.1 2.3 0.3 2.7 0.8 2.7 3.4 0 3.1 -1.2 7.7 -3.4 13.1 -0.8 2 -0.9 5.5 -0.3 11.8 0.5 5 0.7 9.2 0.4 9.5 -0.2 0.3 -2.2 0.7 -4.3 1.1 -2.2 0.3 -4.5 1.2 -5.1 2.1 -0.8 0.9 -3.5 1.7 -6.8 2 -4.4 0.4 -5.6 0.1 -6.1 -1.2z m9.3 -4.7 c0.7 -0.7 2.9 -1.5 5 -1.9 l3.8 -0.8 -3.6 -0.1 c-2.3 -0.1 -4.6 0.6 -6 1.9 -1.3 1 -1.9 1.9 -1.3 2 0.5 0 1.5 -0.5 2.1 -1.1z m-6.4 -7.9 c0.9 0 0.9 -0.2 0.1 -0.8 -0.7 -0.4 -1.4 -1.8 -1.7 -3.2 -0.2 -1.4 -0.4 0 -0.4 3 0 3 0.2 4.5 0.4 3.3 0.2 -1.3 1 -2.3 1.6 -2.3z m10.1 -6 c-0.6 -0.6 -1.5 -0.6 -2.4 0 -1.3 0.9 -1.3 1.1 0 2 1.8 1.1 3.9 -0.5 2.4 -2z m6.6 -13.6 c2.4 -5.5 2.4 -5.4 0.6 -5.4 -2.8 0 -6.6 4.8 -6.6 8.5 0 3.2 0.2 3.5 2 2.5 1 -0.6 2.8 -3.1 4 -5.6z"/>
  <path d="M123.7 32.3 c-0.4 -0.3 -0.7 -1.7 -0.7 -3 0 -1.9 -0.5 -2.3 -3 -2.3 -2.3 0 -3 -0.4 -3 -2 0 -1.5 -0.7 -2 -2.5 -2 -1.5 0 -3.9 -0.6 -5.4 -1.4 -4.1 -2.2 -22.4 -6.6 -27 -6.6 -3.5 0 -4.1 -0.3 -4.1 -2.1 0 -2.1 0.3 -2.1 6.5 -1.5 10 1 25.5 5.4 31.1 8.8 5.7 3.4 13.4 10.2 13.4 11.8 0 1.1 -4.3 1.4 -5.3 0.3z"/>
 </g>
 <g fill="#ae8774">
  <path d="M102.8 180.3 c-1 -0.2 -1.8 -1.1 -1.8 -1.9 0 -1 1.3 -1.4 5 -1.4 l4.9 0 0.7 -6 c0.6 -5.7 0.8 -6 3.8 -6.4 11.9 -1.9 21 -2.7 23.2 -2.2 2.5 0.7 2.6 1 2.2 5.6 -0.5 4.8 -0.4 5 2 5 4.4 0 10.1 -2.2 10.7 -4.2 0.5 -1.3 1.6 -1.8 4.1 -1.8 1.9 0 3.4 -0.4 3.4 -0.9 0 -0.5 2.1 -1.1 4.8 -1.5 2.6 -0.3 5.4 -1.1 6.2 -1.6 1.3 -0.9 1.3 -1.2 -0.2 -2.1 -1.3 -0.7 -1.8 -2.3 -1.8 -6 0 -5.7 1.8 -6.3 3.5 -1.3 0.5 1.6 1.6 3.4 2.4 4 1 0.8 1.2 2.1 0.7 4.8 -0.8 4.3 -2.5 5.2 -12 6.2 -4.8 0.5 -6.5 1.1 -6.9 2.3 -0.5 2.2 -6.4 5 -11.4 5.5 -2.1 0.2 -5.1 0.9 -6.7 1.5 -1.6 0.7 -3 1 -3.1 0.9 -1.7 -2.2 -2.3 -4.7 -1.2 -5.8 1 -1 0.7 -1.1 -1.3 -0.6 -1.4 0.3 -4.5 0.9 -6.9 1.3 -3.1 0.4 -4.5 1.2 -4.9 2.5 -0.2 1 -0.8 1.8 -1.3 1.8 -0.5 0 -0.9 0.5 -0.9 1.1 0 1.5 3.9 0.1 7.7 -2.7 2.8 -2.1 6.7 -3.5 5 -1.8 -0.3 0.4 0.1 1.3 0.9 2.2 0.8 0.8 1.2 1.8 0.7 2.3 -0.9 0.9 -28.8 2 -31.5 1.2z m29.5 -11.4 c5.5 -1.4 4.7 -3.2 -1 -2.4 -7.6 1.1 -12.4 2.5 -11.8 3.5 0.6 1 6.1 0.5 12.8 -1.1z"/>
  <path d="M87.5 178.3 c-2.7 -0.8 -5.9 -2.3 -7 -3.2 -1.1 -1 -3.9 -2.8 -6.2 -4.1 -3.4 -1.8 -4.5 -2.1 -5.7 -1.1 -2.2 1.8 -7.6 3.1 -10.3 2.5 -4.1 -1.1 -2.6 -3.2 2.7 -3.9 2.8 -0.4 5 -1.1 5 -1.5 0 -2 -18.5 -6.2 -23.2 -5.3 -3.2 0.6 -3.3 0.2 -1.7 -6.3 0.7 -2.5 1.7 -4.4 2.5 -4.4 0.8 0 1.4 0.3 1.4 0.8 0 0.8 9.2 3.2 9.9 2.6 0.2 -0.2 -1.8 -1.3 -4.5 -2.4 -5.5 -2.4 -6.4 -3.4 -6.4 -7.2 0 -1.6 -0.4 -2.8 -1 -2.8 -2.5 0 -0.1 -12.8 3.1 -16.5 2.1 -2.5 3.9 -8.7 3.9 -13.7 0 -3.1 0.4 -3.8 1.9 -3.8 1.5 0 2.1 0.8 2.4 3.8 l0.4 3.7 0.1 -3.7 c0.1 -2.1 0.7 -3.8 1.2 -3.8 0.6 0 1 -1.6 1 -3.5 0 -2.9 0.4 -3.5 2.1 -3.5 1.6 0 1.9 -0.4 1.4 -1.7 -0.4 -1 -1 -3.7 -1.2 -6 -0.5 -4.1 -0.6 -4.2 -3.7 -3.7 -5.8 1 -5.8 1 -4.1 5 1.9 4.5 2 9.4 0.2 9.4 -0.7 0 -1.9 -1.7 -2.6 -3.7 -2.4 -7 -3.7 -8.3 -8.4 -8.4 -2.3 0 -5.7 -0.5 -7.6 -1.2 l-3.4 -1.2 0.2 -11.5 c0.1 -6.3 0.6 -11.6 1.2 -11.8 1.3 -0.5 1.1 -3.2 -0.2 -3.2 -0.8 0 -0.9 -1.1 -0.4 -3.2 0.4 -1.8 1 -6.9 1.4 -11.4 1.2 -12.9 7.2 -22.5 18.2 -29.1 6.8 -4 23.8 -8.7 29.2 -8 4.8 0.7 4.8 0.7 4.1 4.5 -0.5 2.2 -1.3 3.2 -3.3 3.7 -9.5 2.3 -16.1 4.7 -16.1 6 0 0.8 -0.6 1.8 -1.2 2.2 -1.7 1 -3.8 4.9 -3.8 6.8 0 1 1 1.5 3.5 1.5 3.5 0 3.5 0 3.5 4.5 0 4.4 -2.4 8.5 -5 8.5 -0.6 0 -1 2.4 -1 5.4 l0 5.3 -4.3 1.7 c-2.3 0.9 -5 1.6 -5.9 1.6 -0.8 0 -2.1 0.7 -2.8 1.5 -0.7 0.8 -1.9 1.5 -2.7 1.5 -0.8 0 -2.2 1.3 -3.1 3 -1.2 2.2 -2.4 3 -4.4 3 -2.6 0 -2.8 0.3 -2.8 4 0 3.8 0.2 4 3 4 2 0 3 0.5 3 1.5 0 1.1 1.2 1.5 4.9 1.5 5.4 0 8.1 -0.7 8.1 -2.1 0 -0.5 -0.9 -0.9 -2.1 -0.9 -1.8 0 -2 -0.5 -1.7 -4.2 0.3 -4.2 0.4 -4.3 4.1 -4.6 2.6 -0.2 3.9 0.1 4.3 1.2 1 2.5 3.1 1.8 4.4 -1.5 1 -2.4 1 -3.8 0.1 -6.7 -0.7 -2 -1.1 -5.5 -0.9 -7.7 0.3 -3.9 0.4 -4 4.6 -4.3 3.3 -0.3 4.2 -0.7 4.2 -2.2 0 -1 0.5 -2.2 1 -2.5 0.6 -0.3 1 -2.4 1 -4.6 0 -3.5 -0.3 -3.9 -2.5 -3.9 -2.2 0 -2.5 -0.4 -2.5 -3.5 0 -3.3 0.2 -3.5 3.5 -3.5 1.9 0 3.5 0.5 3.5 1.1 0 0.5 1 -0.2 2.3 -1.7 1.8 -2.1 3.5 -2.8 7.6 -3.2 5 -0.4 5.4 -0.3 9 3.3 l3.8 3.8 0.1 11.3 c0.1 9 -0.2 11.7 -1.4 12.9 -1.4 1.3 -1.2 1.5 2.3 1.5 6.8 0 8.3 0.9 8.3 4.5 l0 3.2 -7.6 0.6 c-8.2 0.7 -20.4 3.6 -20.4 4.9 0 0.4 -1.1 0.8 -2.5 0.8 -2 0 -2.5 0.5 -2.5 2.5 0 1.4 -0.4 2.5 -1 2.5 -0.5 0 -1 0.7 -1 1.5 0 0.8 -0.9 1.5 -1.9 1.5 -1.2 0 -2.1 0.9 -2.5 2.5 -0.8 3.2 -0.1 4.5 2.4 4.5 2.4 0 4 2.9 4 6.9 0 2.4 0.4 3.1 1.9 3.1 1.3 0 2.1 -0.8 2.3 -2.2 0.3 -2 1 -2.3 5.1 -2.6 4.2 -0.3 4.7 -0.1 4.7 1.7 0 1.2 0.7 2.1 1.6 2.1 1.2 0 1.4 0.9 1.2 4.3 -0.3 4.1 -0.4 4.2 -4 4.5 -3.3 0.3 -3.8 0 -3.8 -1.7 0 -1.2 -0.4 -2.1 -1 -2.1 -0.5 0 -1 0.9 -1 2 0 1.6 -0.7 2 -3 2 -2.8 0 -3 0.3 -3 3.5 0 3.4 0.1 3.5 4 3.5 2.9 0 4 0.4 4 1.5 0 0.9 0.9 2.5 2 3.7 1.1 1.2 2 2.8 2 3.5 0 0.7 1.1 1.3 2.5 1.3 2.1 0 2.5 0.5 2.5 3 0 2 0.5 3 1.5 3 0.7 0 1.8 0.6 2.2 1.3 0.4 0.8 1.6 1.6 2.6 2 1.3 0.5 1.7 0.1 1.7 -1.9 0 -2.3 0.3 -2.5 3.8 -2.2 3 0.2 3.8 0.7 4 2.6 0.2 1.2 1 2.2 1.8 2.2 0.8 0 1.4 0.7 1.4 1.5 0 0.9 0.9 1.5 2.5 1.5 2.2 0 2.5 0.4 2.5 3.5 0 3.4 -0.1 3.5 -4 3.5 -2.9 0 -4 -0.4 -4 -1.5 0 -3.2 -2 -1.3 -2.6 2.5 -0.5 3 -1.1 4 -2.5 4 -1.1 0 -1.9 0.7 -1.9 1.5 0 0.8 0.7 1.5 1.5 1.5 1 0 1.5 1.1 1.5 3.5 0 3.3 -0.2 3.5 -3.5 3.5 -3.1 0 -3.5 -0.3 -3.5 -2.5 0 -2.9 -1.5 -3.4 -2.2 -0.7 -0.7 2.6 1.6 4.2 6.1 4.2 2.2 0 5.2 0.5 6.6 1.2 2.3 1 2.6 1.6 2.3 5.7 l-0.3 4.6 -4.3 0.3 c-4.5 0.3 -16.9 -2.9 -20.9 -5.4 -2.2 -1.4 -2.3 -1.3 -2.3 1.1 0 1.4 -0.4 2.5 -1 2.5 -0.5 0 -1 0.5 -1 1 0 0.6 1.3 1 2.9 1 1.6 0 4.8 0.7 7.1 1.5 2.3 0.8 5.3 1.5 6.6 1.5 1.7 0 2.4 0.6 2.4 2 0 2.5 -3.2 2.6 -10.5 0.3z m-12.7 -15.3 c2.1 0 2.4 -0.2 1.2 -1 -2.7 -1.8 -5 -1.2 -4.9 1.3 0 1.2 0.3 1.6 0.6 1 0.2 -0.7 1.7 -1.3 3.1 -1.3z m12.8 -1.5 c-1.1 -0.8 -2.5 -1.5 -3 -1.5 -0.6 0 -0.2 0.7 0.8 1.5 1.1 0.8 2.5 1.5 3 1.5 0.6 0 0.2 -0.7 -0.8 -1.5z m-7.4 -4.7 c-0.6 -0.6 -1.5 -0.8 -1.9 -0.4 -0.4 0.4 -0.1 1.1 0.7 1.6 1.9 1.2 2.7 0.3 1.2 -1.2z m-3.8 -1.7 c0.7 -1.1 -3.2 -4.7 -4.1 -3.8 -0.4 0.4 -1.7 -0.3 -3 -1.5 -3.5 -3.3 -2.8 -0.9 0.9 2.9 3.2 3.3 5.2 4.1 6.2 2.4z m8.4 -0.8 c-1 -0.2 -2.6 -0.2 -3.5 0 -1 0.3 -0.2 0.5 1.7 0.5 1.9 0 2.7 -0.2 1.8 -0.5z m-20.8 -4.8 c-0.7 -0.8 -1.6 -1.3 -2 -1 -0.5 0.3 -2.5 -0.6 -4.6 -2 -3.9 -2.7 -5.4 -3.1 -5.4 -1.5 0 1 5 3.8 9 5.1 3.8 1.1 4.4 1 3 -0.6z m30.1 -6.8 c-0.8 -0.8 -1.1 -0.7 -1.1 0.4 0 2 1.3 3.4 1.8 1.9 0.3 -0.7 -0.1 -1.7 -0.7 -2.3z m6.7 -1.9 c-0.3 -0.7 -1.3 -1.5 -2.4 -1.7 -1.6 -0.3 -1.7 -0.1 -0.5 1.3 1.6 1.9 3.4 2.1 2.9 0.4z m-16.8 -0.9 c0 -0.6 0.9 -0.8 2 -0.4 1.1 0.3 2 0.2 2 -0.4 0 -1.7 -2 -2.3 -3.5 -1.1 -0.8 0.7 -2.3 0.9 -3.7 0.4 -2 -0.6 -2.1 -0.5 -0.9 1 1.5 1.8 4.1 2.2 4.1 0.5z m-10 -7.4 c-0.7 -0.8 -1.9 -1.5 -2.7 -1.5 -1.3 0 -1.3 0.3 -0.3 1.5 0.7 0.8 1.9 1.5 2.7 1.5 1.3 0 1.3 -0.3 0.3 -1.5z m4.6 -5.3 c-0.9 -0.9 -3.7 0.8 -3.1 1.8 0.5 0.8 1.1 0.7 2.1 -0.1 0.8 -0.6 1.2 -1.4 1 -1.7z m-15.6 -13.9 c0 -2.7 -0.3 -3.4 -1.1 -2.6 -0.7 0.7 -0.9 2.3 -0.5 3.7 0.9 3.7 1.6 3.2 1.6 -1.1z m6.7 -2.6 c0.3 -2.8 0 -3.7 -1.1 -3.7 -0.8 0 -2.2 -1 -3 -2.2 -0.9 -1.2 -1.6 -1.7 -1.6 -1.1 0 0.6 0.7 1.8 1.5 2.7 0.8 0.8 1.5 3.1 1.5 5.1 0 4.8 2.2 4.2 2.7 -0.8z m-1.4 -14.2 c0.8 -1.8 -1.1 -3.1 -2.5 -1.7 -1.1 1.1 -0.3 3.2 1.2 3.2 0.4 0 1 -0.7 1.3 -1.5z m-20.9 -9.4 c0.6 -0.9 -9.4 -0.4 -10.3 0.5 -0.2 0.2 1.9 0.4 4.7 0.4 2.8 0 5.3 -0.4 5.6 -0.9z m24.6 -13.2 c3.7 -3.8 9 -5.9 19.5 -7.5 4.5 -0.7 4.7 -0.9 1.7 -1.2 -5.1 -0.5 -13.7 1.7 -18 4.6 -2.2 1.5 -5.5 4.7 -7.4 7.2 -4.3 5.7 -5.8 8.6 -2.1 4 1.5 -1.8 4.4 -5.1 6.3 -7.1z m2.1 -9.9 c-0.3 -0.3 -1.3 -1.8 -2.1 -3.5 -2 -3.9 -5 -4.6 -5 -1.2 0 4.5 1 5.7 3.9 5.1 l2.6 -0.7 -2.5 2.9 -2.5 2.8 3.1 -2.5 c1.7 -1.3 2.8 -2.6 2.5 -2.9z m-29.8 -4.6 c0.4 -0.8 1.8 -1.4 3 -1.4 3.2 0 6.7 -1.1 6.7 -2.1 0 -0.4 -3 -0.6 -6.7 -0.2 -7 0.6 -11.3 2.9 -9.8 5.3 0.9 1.5 5.7 0.4 6.8 -1.6z m47.4 -5.2 c1.3 -3.2 1.3 -3.3 -0.7 -2.7 -3 1 -3.7 -2.1 -1.1 -4.9 1.3 -1.3 2.5 -3.7 2.7 -5.4 0.5 -2.9 0.5 -2.9 -5.3 -3.5 -3.7 -0.3 -6.2 -0.1 -7 0.7 -0.6 0.6 -2 4.1 -3.1 7.8 l-2 6.8 3 2.5 c2.5 2.1 3.9 2.5 7.6 2.3 4.1 -0.3 4.7 -0.6 5.9 -3.6z m-39.7 -2.4 c2 -1.2 -7.5 -0.2 -9.8 1.1 -1 0.6 0.1 0.7 3.4 0.4 2.7 -0.3 5.6 -1 6.4 -1.5z m1 -5.4 c0 -1.1 -0.6 -1.5 -2 -1.1 -1.2 0.3 -2.3 -0.1 -2.8 -0.9 -1.1 -2 -4.2 -0.7 -4.2 1.7 0 1.6 0.8 1.9 4.5 1.9 3.5 0 4.5 -0.4 4.5 -1.6z m-7 -6.1 c0 -1.1 0.7 -1.4 2.6 -1 2.9 0.5 5.1 -2 6.4 -7.5 0.4 -1.8 1.1 -4.2 1.6 -5.2 0.6 -1.7 0.4 -1.8 -2.3 -1.3 -3.5 0.7 -4.8 0 -3.2 -2 0.9 -1 0.8 -1.3 -0.5 -1.3 -2.1 0 -9.3 6.6 -11.2 10.1 -1.2 2.5 -1.2 2.9 0.2 3.7 1.7 0.9 1.6 3.4 -0.2 9.1 l-0.7 2.4 3.6 -2.7 c2.1 -1.6 3.7 -3.5 3.7 -4.3z"/>
  <path d="M45 170.3 c-4.8 -2.1 -6.8 -5.3 -3.3 -5.3 3.8 0 10.3 3.3 10.3 5.1 0 2.3 -2.1 2.3 -7 0.2z"/>
  <path d="M151 158.7 c0 -6.3 0.5 -6.7 8.1 -6.7 l4.9 0 0 4.9 c0 2.8 -0.5 5.3 -1 5.6 -0.6 0.4 -3.5 0.9 -6.5 1.2 l-5.5 0.6 0 -5.6z m7.7 -0.4 c0.3 -0.7 -0.9 -1.1 -3 -1 -2.5 0.1 -3.3 0.5 -3 1.4 0.7 1.7 5.5 1.3 6 -0.4z"/>
  <path d="M162 149 c0 -2.1 1 -2.4 4.8 -1.4 3.6 1 2.7 3.4 -1.3 3.4 -2.8 0 -3.5 -0.4 -3.5 -2z"/>
  <path d="M154 148 c0 -2.1 1 -2.4 4.8 -1.4 3.6 1 2.7 3.4 -1.3 3.4 -2.8 0 -3.5 -0.4 -3.5 -2z"/>
  <path d="M143.3 148.3 c-1.6 -0.3 -2.3 -1.1 -2.3 -2.7 l0 -2.3 5.5 1.5 c8.9 2.5 6.2 5.3 -3.2 3.5z"/>
  <path d="M130.3 142.3 c-0.7 -0.2 -1.3 -1.6 -1.3 -2.9 0 -1.8 -0.5 -2.4 -2.3 -2.4 -2.7 0 -9.7 -6.7 -9.7 -9.3 0 -0.9 -0.7 -1.7 -1.5 -1.7 -0.9 0 -1.5 -0.9 -1.5 -2.5 0 -1.8 0.4 -2.3 1.5 -1.9 2.2 0.9 4.2 -1.2 4.9 -5 0.4 -2.2 1.3 -3.6 2.6 -3.9 1.7 -0.4 2 -1.4 2 -6.1 0 -4.1 0.4 -5.6 1.4 -5.6 2.8 0 3.5 8.9 1.2 14.5 -0.8 1.9 -2 3.5 -2.5 3.5 -0.6 0 -0.8 0.6 -0.5 1.3 0.3 0.8 -0.4 2.4 -1.4 3.7 l-2 2.4 5 5.6 c2.7 3.1 6.4 6.4 8.3 7.5 1.9 1 3.5 2.2 3.5 2.7 0 0.9 -5.7 1 -7.7 0.1z"/>
  <path d="M96 116 c0 -4.3 -0.3 -5 -2 -5 -1.6 0 -2 -0.7 -2 -3.5 0 -1.9 0.4 -3.5 1 -3.5 0.5 0 1.2 -1.1 1.6 -2.5 0.3 -1.4 1 -2.5 1.5 -2.5 0.5 0 0.9 -2 0.9 -4.5 0 -4.5 0 -4.5 3.4 -4.5 l3.4 0 -0.3 13.8 c-0.1 7.5 -0.3 14.5 -0.4 15.5 -0.1 1.3 -1 1.7 -3.6 1.7 l-3.5 0 0 -5z"/>
  <path d="M107 113.5 c0 -3 0.4 -5.5 0.9 -5.5 0.5 0 1.1 -1.2 1.4 -2.7 0.3 -1.6 1.3 -5.6 2.2 -9 1.6 -5.9 1.9 -6.3 4.7 -6.3 2.5 0 2.9 -0.3 2.3 -1.7 -0.4 -1 -0.9 -4.2 -1.2 -7 -0.5 -4.5 -0.3 -5.3 1.1 -5.3 1.1 0 1.6 -0.9 1.6 -2.9 0 -3.1 3.4 -8.1 5.5 -8.1 0.7 0 1.5 -0.4 1.7 -0.8 0.5 -1.2 12.5 -4.2 14.2 -3.6 1.8 0.7 2.1 2 0.7 2.8 -0.4 0.3 -3.5 1.2 -6.7 2.1 -6.5 1.7 -10.3 4.8 -12.9 10.5 -2.1 4.6 -1.6 7.9 2.5 17 l2.9 6.5 -2.5 0.3 c-2.3 0.3 -2.4 0.5 -1.8 5.8 0.6 4.5 0.4 5.4 -0.9 5.4 -1.1 0 -1.9 -1.7 -2.7 -5.6 -0.7 -3.1 -1.8 -7 -2.5 -8.6 l-1.2 -3.1 -1.3 5.4 c-0.7 3 -1.9 6.7 -2.7 8.3 -0.9 1.6 -1.3 4.7 -1.1 7.2 0.3 4 0.1 4.4 -1.9 4.4 -2.1 0 -2.3 -0.5 -2.3 -5.5z m15.2 -18.5 c-0.2 -2.2 -0.9 -4 -1.4 -4 -0.6 0 -0.7 0.7 -0.4 1.6 0.3 0.9 0.6 2.7 0.6 4 0 1.3 0.3 2.4 0.8 2.4 0.4 0 0.6 -1.8 0.4 -4z"/>
  <path d="M79.6 91.4 c-1.2 -3.2 -0.7 -8.4 0.9 -8.4 1 0 1.5 -1.1 1.5 -3.5 0 -3.3 0.2 -3.5 3.4 -3.5 3.3 0 3.3 0.1 4 5.3 0.9 8 0.8 9.7 -0.9 9.7 -0.8 0 -1.5 0.5 -1.5 1 0 1.7 -6.7 1.2 -7.4 -0.6z"/>
  <path d="M131.7 51 c-0.3 -2.2 -1.9 -7 -3.6 -10.6 -1.7 -3.6 -3.1 -7.9 -3.1 -9.5 0 -2.6 -0.3 -2.9 -3.5 -2.9 -2.4 0 -3.5 -0.5 -3.5 -1.5 0 -0.8 -0.9 -1.5 -2 -1.5 -1.5 0 -2 -0.7 -2 -2.5 0 -1.4 0.4 -2.5 0.9 -2.5 1.1 0 9.9 6.9 12.3 9.6 2.6 3 6.7 12.5 7.8 18.3 0.5 2.9 1.2 5.7 1.5 6.2 0.4 0.5 -0.5 0.9 -1.8 0.9 -2.1 0 -2.5 -0.6 -3 -4z"/>
  <path d="M95.3 17.7 c-6.6 -1.6 -8.3 -2.5 -8.3 -3.9 0 -2.3 0.1 -2.3 12.5 0.8 7 1.8 10.5 3.1 10.5 4 0 1.9 -4.7 1.6 -14.7 -0.9z"/>
 </g>
 <g fill="#815c52">
  <path d="M99.8 179.9 c-11.2 -0.9 -14.7 -2.1 -23.1 -7.6 -6.4 -4.2 -6.9 -4.4 -8.1 -2.7 -1.1 1.4 -3.1 1.8 -10.2 2.1 -7.7 0.3 -9.5 0 -13.4 -1.9 -5.2 -2.7 -5.8 -4.5 -4 -12.7 0.7 -2.9 1.2 -8.8 1.3 -13 0 -8.6 1.8 -16.4 4.3 -19.2 2 -2.2 4.3 -11.7 3.7 -15.1 -0.4 -2.2 0 -2.6 2.6 -3.1 2.2 -0.5 3.1 -1.2 3.1 -2.7 0 -1.1 -0.4 -2 -1 -2 -0.5 0 -1 -1.6 -1 -3.5 0 -2.8 0.4 -3.5 2 -3.5 1.5 0 2 -0.7 2 -2.6 0 -2.3 -0.3 -2.5 -3.2 -2.2 -3 0.3 -3.3 0.6 -3.6 4.1 -0.4 4.4 -2.3 4.9 -3.9 0.8 -0.9 -2.5 -1.7 -3 -5.9 -3.6 -2.7 -0.3 -6.2 -0.8 -7.9 -1 l-3 -0.5 0 -14.8 c0.1 -14.1 0.9 -21.7 2.5 -22.7 0.4 -0.2 1.5 0.4 2.5 1.5 1.2 1.4 2.5 1.8 3.9 1.4 2 -0.6 2 -0.5 -0.1 1 -2.6 1.9 -4.8 8.9 -3.5 11.2 0.7 1.2 1 1.1 2 -1.1 2.2 -4.8 3.2 -2.7 3.2 6.6 l0 9.1 3.3 -0.7 c4.6 -1 4.7 -1.2 4.7 -6 0 -3 0.5 -4.5 1.6 -4.9 2.3 -0.9 6.3 -0.7 8.3 0.3 2 1.1 3.2 0.5 4.9 -3 1.1 -2 1.9 -2.5 3.8 -2.1 l2.4 0.4 -1.9 3.2 c-1.1 1.7 -3.2 5.2 -4.6 7.8 -2.4 4.5 -5.4 6.9 -11.5 9 -2 0.6 -1.8 0.7 1 0.3 4.7 -0.7 8 -3.3 11 -8.6 1.3 -2.4 4.7 -6.7 7.5 -9.5 l5.2 -5.2 -3.5 -4.1 c-3.5 -4.3 -7.7 -5.5 -8.8 -2.6 -0.4 1 -2 1.5 -5.3 1.5 -3 0 -4.1 -0.3 -3.2 -0.9 1.9 -1.2 0.4 -3.3 -1.8 -2.6 -1 0.3 -2.9 0.1 -4.2 -0.4 -2.4 -1 -2.3 -1 0.6 -1.1 1.7 -0.1 3.9 -0.5 5 -1 3 -1.3 -9.7 -1.3 -13.1 0 -3.2 1.2 -4.2 0.6 -2.4 -1.5 0.9 -1 3.1 -1.5 7.2 -1.5 5.2 0 6 -0.3 6.7 -2.2 0.5 -1.3 0.5 -3 0 -3.9 -1 -2.1 0 -5.9 1.6 -5.9 1.5 0 2.5 3.1 2.5 7.8 0 3.1 0.2 3.2 3.9 3.2 2.2 0 4.6 0.3 5.4 0.6 1 0.3 1.7 -0.2 2.1 -1.5 0.3 -1.2 0.9 -3 1.2 -4.1 0.4 -1.5 0.1 -2 -1.5 -2 -3 0 -8.1 -3.3 -8.1 -5.2 0 -1.2 -0.8 -1.8 -2.5 -1.8 -1.8 0 -2.5 -0.5 -2.5 -2 0 -2.4 1.9 -5.9 4 -7.7 1.3 -1.1 1.2 -1.2 -0.7 -1.3 -1.3 0 -2.3 -0.4 -2.3 -1 0 -0.5 0.9 -1 2 -1 3.3 0 21.7 -5.5 19.4 -5.8 -1.1 -0.2 -5.4 0.6 -9.4 1.7 -4.4 1.3 -7.8 1.7 -8.3 1.2 -1.4 -1.4 -8.6 1.5 -14.2 5.7 -2.9 2.2 -6.4 6.2 -8.4 9.5 -3.6 6 -5.5 7.2 -2.6 1.7 2.2 -4.3 9 -11.6 14.1 -15.1 2.3 -1.6 8.1 -4 12.9 -5.4 12.1 -3.5 22.4 -3.4 37.2 0.4 11.8 3 17.2 5.6 23.8 11.5 l4 3.5 -3.8 0.1 c-3.1 0 -4 -0.4 -4.4 -2 -0.3 -1.1 -1.3 -2 -2.3 -2 -1 0 -2 -0.3 -2.2 -0.7 -0.1 -0.5 -2.3 -1.7 -4.8 -2.8 -4 -1.8 -5.8 -2 -17.5 -1.4 -11.5 0.5 -20.5 2.1 -20.5 3.5 0 1.5 2.3 4.4 3.4 4.4 0.7 0 2.1 -0.9 3.2 -2.1 1.6 -1.8 2.6 -2 6.8 -1.5 5.3 0.6 8.7 3 11.3 8.1 0.9 1.6 2.2 3.6 3 4.4 1.1 1.1 1.4 3.3 1.1 9.2 l-0.3 7.7 4.5 0.7 c7.6 1 8 1.3 8 5 0 5.1 -2.7 6.5 -12.5 6.3 -7.6 -0.1 -7.7 -0.2 -2.5 -0.7 5.4 -0.6 5.4 -0.7 2.1 -1.5 -3 -0.7 -16.1 0.2 -19.1 1.4 -0.3 0.1 -1.7 0.3 -3.2 0.4 -1.5 0.1 -3.3 0.8 -4 1.5 -1.1 1.1 -0.9 1.1 1 0.1 1.3 -0.6 2.6 -1 2.8 -0.7 0.2 0.2 -0.8 1 -2.2 1.8 -1.5 0.7 -5.3 4.6 -8.5 8.6 -5.9 7.2 -7.4 9.8 -4.3 7.2 0.9 -0.7 2.9 -1.2 4.4 -1.1 1.6 0.2 3.1 -0.2 3.6 -0.9 0.5 -0.9 -0.1 -1.1 -2.4 -0.6 l-3.2 0.6 3.5 -4.8 c4.2 -5.9 6.4 -7.4 13.5 -9.5 7 -2.1 8 -2 8 0.5 0 2 -0.4 2.1 -4.6 1.6 -3.9 -0.4 -4.7 -0.2 -5.1 1.4 -0.3 1 -1.2 2 -2.2 2.2 -0.9 0.3 1.3 0.5 4.8 0.6 l6.4 0.1 -0.7 6 -0.7 6 3.1 0 c2.8 0 3 0.3 3 3.5 0 3.3 -0.2 3.5 -3.4 3.5 -3.4 0 -3.5 0 -2.5 3.2 0.5 1.8 0.9 4.5 0.9 6 0 2.5 -0.4 2.8 -3.4 2.8 l-3.5 0 0.5 7.6 c0.5 8.6 0.8 9.4 3.4 9.4 3.4 0 5 1.2 5 3.6 0 1.7 0.6 2.4 2 2.4 1.3 0 2 0.7 2 1.9 0 1 0.6 2.1 1.4 2.4 1 0.4 1.2 -0.5 0.9 -4.1 -0.9 -11 -2.6 -19.2 -3.9 -19.2 -0.9 0 -1.4 -1.2 -1.4 -3.5 0 -1.9 0.4 -3.5 0.9 -3.5 0.5 0 1.2 -1.1 1.5 -2.5 0.4 -1.4 1 -2.5 1.4 -2.5 0.4 0 0.5 -2.4 0.4 -5.4 l-0.4 -5.3 3.9 -0.6 c7.6 -1.3 8.3 -1.1 8.3 2.8 0 2.3 -0.5 3.5 -1.4 3.5 -1.6 0 -3.2 12.3 -1.6 12.8 0.5 0.2 1 1.3 1.1 2.5 0 1.9 0.2 1.8 1.1 -0.5 0.5 -1.6 1.3 -2.8 1.7 -2.8 0.4 0 1.3 -2.9 2 -6.5 l1.3 -6.5 3.9 0 c3.5 0 3.9 -0.3 3.9 -2.5 0 -4.3 2 -2.7 5 4.1 3.5 7.8 3.7 9.4 1 9.4 -1.6 0 -2 -0.7 -2 -3.5 0 -1.9 -0.4 -3.5 -1 -3.5 -0.5 0 -1 1.4 -1 3 0 4.7 -2.5 3.6 -4.1 -1.7 l-1.5 -4.8 -1.4 5.5 c-0.7 3 -2.1 7.4 -3.2 9.8 -2.6 6.1 -2.3 7.9 1.8 12 3.5 3.5 3.7 3.5 5 1.7 0.8 -1 1.4 -1.5 1.4 -0.9 0.1 2.4 4.9 -10.5 5 -13.3 0 -4.4 2.7 -4.4 3.5 0 0.8 4 -2.5 13.3 -6 17.1 -1.4 1.6 -2 2.8 -1.3 3.2 1.6 1 -1.2 2.4 -4.9 2.4 -3 0 -3.3 -0.3 -3.3 -3 0 -2.3 -0.4 -3 -2 -3 -1.2 0 -2 -0.7 -2 -1.6 0 -1.8 -2.3 -4.4 -3.9 -4.4 -0.6 0 -1.1 1.1 -1.1 2.5 0 1.6 0.6 2.5 1.6 2.5 1.1 0 1.4 0.9 1.2 3.7 -0.2 2.8 0.3 4.3 2 6 1.2 1.2 2.2 2.9 2.2 3.8 0 0.8 0.7 1.5 1.5 1.5 0.8 0 1.5 -0.6 1.5 -1.4 0 -1.3 4.8 -2.6 9.8 -2.6 1.9 0 2.2 0.5 2.2 3.5 0 3.8 -2 5.5 -6.4 5.5 -1.6 0 -2.6 0.6 -2.6 1.5 0 1 -1.1 1.5 -3.5 1.5 -2.9 0 -3.5 0.4 -3.5 2 0 3 -2.8 8 -4.5 8 -6.3 0 6.7 6.6 14.8 7.5 8.7 1 7.2 4.1 -2.2 4.3 -5.6 0.2 -2.9 3.2 2.8 3.2 3.3 0 16.1 -2.7 17.1 -3.7 1.1 -1 -2.6 -2.1 -5.2 -1.6 -2.4 0.5 -2.8 0.2 -2.8 -1.6 0 -2 0.4 -2.2 5.8 -1.9 5 0.3 5.7 0.6 6 2.6 0.2 1.2 1 2.2 1.8 2.2 0.7 0 1.6 1.1 2 2.5 0.7 2.9 0.7 2.9 5.1 1.3 2.1 -0.8 3.3 -1.9 3.3 -3 0 -1 0.5 -1.8 1 -1.8 0.6 0 1 -0.4 1 -1 0 -0.5 -0.7 -1 -1.5 -1 -0.8 0 -1.5 -0.4 -1.5 -1 0 -0.5 -0.9 -1 -2 -1 -1.6 0 -2 -0.7 -2 -3.5 0 -3.4 0.1 -3.5 3.8 -3.5 3.5 0.1 3.6 0.1 1.4 1.3 -1.9 1.1 -2 1.5 -1 2.9 1.7 2.2 6.9 1.2 7.5 -1.3 0.7 -2.5 3.3 -2.4 3.3 0.1 0 1.1 0.5 2 1 2 0.6 0 1 0.9 1 2 0 2.4 2.7 2.7 5.6 0.5 1.7 -1.3 1.7 -1.4 0.2 -1.5 -1.4 0 -1.8 -0.9 -1.8 -4 0 -2.9 -0.4 -4 -1.5 -4 -0.9 0 -1.5 -0.9 -1.5 -2.5 0 -1.4 0.4 -2.5 0.9 -2.5 2.1 0 5.2 3.7 5.5 6.5 0.2 1.9 1 3.1 2.1 3.3 1.4 0.3 1.6 1 1 4 -0.4 2.1 -1.2 4 -1.8 4.4 -1.2 0.7 -12.3 2.8 -15 2.8 -0.9 0 -2.1 0.9 -2.7 2 -1.4 2.7 -4.1 4 -10.3 5 -2.9 0.4 -6.5 1.2 -8.1 1.6 -2.8 0.7 -2.9 0.6 -2.4 -2.5 0.5 -3.7 1.2 -3.6 -12 -1.4 -6 1 -10.1 2.2 -9.8 2.8 1.9 4.6 2 4.5 -2 4.4 -2.2 -0.1 -7.8 -0.5 -12.6 -1z m6 -12 c0.4 -2.1 -3.9 -3.9 -9.3 -3.9 -2.4 0 -4.5 -0.4 -4.7 -0.9 -0.1 -0.5 -2.5 -1.9 -5.2 -3.2 -6.9 -3.3 -7 -4.7 -0.4 -5.2 5 -0.3 5 -0.3 -1.4 -0.5 -5.2 -0.2 -6.8 -0.5 -6.8 -1.6 0 -1.8 -3.3 -3 -5.9 -2.1 -1.4 0.4 -2.5 -0.1 -3.7 -2 -2.1 -3.2 -6 -5.6 -5.1 -3.1 0.7 1.7 -0.8 2.2 -1.8 0.6 -1.2 -1.9 -14.4 -10.2 -15.7 -9.8 -0.8 0.3 -0.5 1 0.9 2.3 1.6 1.4 1.9 2.2 1.2 3.1 -1.8 2.1 0 5.2 3.7 6.6 4.5 1.6 4.5 3.8 -0.1 3.8 -2.8 0 -3.5 -0.4 -3.5 -2 0 -1.1 -0.4 -2 -1 -2 -1.4 0 -1.2 2.9 0.3 4.4 0.7 0.7 2.9 1.5 5 1.9 3.5 0.5 3.7 0.4 3.7 -2 0 -1.9 0.3 -2.3 1.3 -1.5 2 1.7 10.6 4.4 11.8 3.6 0.6 -0.3 1.7 0.4 2.6 1.5 1.2 1.8 1.8 2 2.9 1 1.2 -0.9 1.7 -0.9 2.7 0.3 0.7 0.8 3.1 2.9 5.5 4.8 2.6 2 3.9 3.6 3.2 4 -0.6 0.4 0 1.1 1.6 1.9 2.3 1 2.6 1 2 -0.4 -0.6 -1.7 1 -1.5 8 1.1 4.8 1.7 7.8 1.4 8.2 -0.7z m-41.3 -0.8 c0.7 -1.2 -3.9 -2.7 -13.3 -4.5 l-7.2 -1.4 0 2.4 c0 1.7 0.6 2.4 2 2.4 1.1 0 2 0.5 2 1 0 1.3 15.7 1.3 16.5 0.1z m-14.9 -9.7 c-2.6 -0.9 -5 -1.3 -5.3 -1 -0.6 0.6 5.4 2.4 8.2 2.4 1.1 0.1 -0.2 -0.6 -2.9 -1.4z m46 -6.3 c-0.4 -0.5 0 -1.1 0.6 -1.4 0.7 -0.2 0 -0.8 -1.7 -1.1 -1.6 -0.4 -4.9 -1.6 -7.3 -2.6 -2.3 -1.1 -7.5 -2.5 -11.5 -3.1 -4.3 -0.7 -7.5 -1.7 -8 -2.6 -0.8 -1.2 -1.1 -1.2 -2.1 0.3 -0.9 1.2 -1.5 1.4 -2 0.6 -0.4 -0.7 -1.2 -1.2 -1.8 -1.2 -0.6 0 -0.6 0.6 0.2 1.5 0.7 0.9 2 1.3 2.7 1 1.3 -0.4 13.9 2.2 15.3 3.3 0.2 0.2 -0.2 0.7 -1 1.2 -1.1 0.7 -0.8 1 1.5 1.1 1.7 0 5.3 0.9 8 1.9 5.6 2.1 7.9 2.4 7.1 1.1z m1 -5.6 c-0.2 -1.6 -3.5 -5.5 -4.7 -5.5 -0.5 0 -0.6 0.6 -0.3 1.4 0.3 0.7 -0.3 2.2 -1.3 3.2 -1.7 1.7 -1.7 1.7 -0.1 1.1 1 -0.3 2.8 -0.2 4 0.3 1.3 0.5 2.4 0.9 2.5 0.9 0.1 0.1 0 -0.6 -0.1 -1.4z m-12.6 -3.9 c0.6 -0.8 1.7 -1.3 2.4 -1 1.8 0.7 6.2 -4.4 4.9 -5.7 -0.8 -0.8 -1.9 -0.6 -3.9 0.7 -1.6 1 -3.2 2.2 -3.5 2.7 -0.7 1 -3.8 -0.2 -5.9 -2.3 -0.9 -0.9 -4.2 -4.7 -7.3 -8.3 -3.1 -3.7 -5.7 -6.4 -5.7 -5.9 0 0.4 0.5 1.3 1.2 2 0.7 0.7 1.2 2.5 1.3 4.1 0 2.4 1.2 3.8 6.9 8 3.8 2.8 7.4 5.1 8 5.1 0.6 0 0.4 0.5 -0.4 1 -0.8 0.5 -1 1 -0.4 1 0.6 0 1.7 -0.6 2.4 -1.4z m16.8 -1 c-1.8 -1.7 -6.8 -3.7 -6.8 -2.8 0 1.2 6.3 5.1 7.3 4.5 0.5 -0.3 0.3 -1.1 -0.5 -1.7z m-15.2 -5.8 c1 -1.3 1.2 -1.8 0.5 -1.1 -1 0.8 -2.2 0.8 -5 -0.4 l-3.6 -1.5 2.4 2.6 c3 3.2 3.3 3.2 5.7 0.4z m-20.6 -0.2 c0 -0.2 -2 -1.1 -4.5 -2 -2.5 -0.8 -4.3 -1.1 -4 -0.6 0.8 1.3 8.5 3.6 8.5 2.6z m13 -5.5 c0.5 -1.1 1.9 -2.2 3 -2.6 1.6 -0.5 1.8 -0.9 0.7 -2.5 -1.1 -1.9 -1.2 -1.9 -1.9 0 -0.4 1.1 -1.2 2 -1.7 2 -0.6 0 -0.8 -0.7 -0.4 -1.6 0.5 -1.3 0.2 -1.5 -1.4 -1 -1 0.3 -2.8 0 -3.9 -0.9 -2.9 -2.2 -4 -1.8 -1.7 0.8 1.1 1.2 1.8 2.8 1.6 3.5 -0.3 0.8 0.1 1 1.1 0.6 0.9 -0.3 1.6 -1.1 1.6 -1.7 0 -0.6 0.3 -0.8 0.6 -0.5 0.3 0.4 0.1 1.5 -0.5 2.6 -1 1.9 -0.6 3.2 1 3.2 0.5 0 1.3 -0.9 1.9 -1.9z m-21.5 -1.1 c-0.3 -0.5 -2.5 -0.9 -4.8 -0.9 l-4.2 0.2 3.5 0.7 c5.2 1.1 6.2 1.1 5.5 0z m0 -6.7 c-1.1 -0.3 -2.5 -1.2 -3.1 -2.1 -0.6 -0.8 -1.6 -1.2 -2.3 -0.8 -2.1 1.3 0.8 3.6 4.3 3.5 2.1 -0.1 2.5 -0.3 1.1 -0.6z m18.2 -2.9 c-0.9 -0.9 -2.8 0.6 -2.1 1.8 0.4 0.6 1 0.6 1.7 -0.1 0.6 -0.6 0.8 -1.3 0.4 -1.7z m-11.7 -6.9 c-1.4 -7.3 -3 -9.7 -2.3 -3.3 0.5 3.7 0.3 4 -1.3 3.4 -1.7 -0.6 -1.6 -0.5 0.2 1.6 1.2 1.3 2.4 3.2 2.8 4.2 1.4 4 1.8 0.4 0.6 -5.9z m6.6 3.4 c0.4 -0.7 0.8 -2.7 0.9 -4.5 0.2 -2.7 -0.2 -3.4 -1.7 -3.4 -1.1 0 -2.3 -1.1 -3 -2.7 -0.9 -2.3 -1.2 -2.5 -1.5 -1 -0.3 1 0.3 2.7 1.2 3.7 1 1.2 1.4 2.6 1 4.3 -1 3.8 1.3 6.4 3.1 3.6z m30.4 -10.4 c0 -1.4 -0.4 -2.5 -1 -2.5 -0.5 0 -1 0.4 -1 0.9 0 0.5 -0.3 1.6 -0.6 2.5 -0.4 1.1 -0.1 1.6 1 1.6 1 0 1.6 -0.9 1.6 -2.5z m-30.8 -1 c0 -0.5 -0.5 -1.1 -1.1 -1.3 -0.6 -0.2 -1.1 0.4 -1.1 1.3 0 0.9 0.5 1.5 1.1 1.3 0.6 -0.2 1.1 -0.8 1.1 -1.3z m14.8 -4 c0 -0.8 -0.6 -1.5 -1.4 -1.5 -1.7 0 -2.8 1.4 -1.9 2.4 1.2 1.2 3.3 0.6 3.3 -0.9z m-14.6 -2.4 c0.3 -0.4 0 -1.6 -0.8 -2.6 -1.1 -1.5 -1.5 -1.6 -3.4 -0.4 -1.6 1 -1.8 1.6 -1 2.6 1.2 1.5 4.4 1.7 5.2 0.4z m-20.9 -10.3 c0.7 -0.7 -1.1 -0.9 -5.4 -0.4 -3.5 0.3 -7.5 0.6 -8.7 0.6 -1.3 0 -2.4 0.5 -2.4 1.1 0 1.4 15 0.1 16.5 -1.3z m26.5 -7.8 c0 -2 -0.5 -3 -1.5 -3 -1 0 -1.5 1 -1.5 3 0 2 0.5 3 1.5 3 1 0 1.5 -1 1.5 -3z m-19.6 -3.4 c-1.9 -1.4 -3.4 -1.2 -3.4 0.4 0 0.8 4.1 1.9 4.9 1.3 0.3 -0.2 -0.4 -1 -1.5 -1.7z m-20.6 -17.7 c-0.2 -0.6 -0.8 -1 -1.3 -1 -0.5 0 -1.1 0.4 -1.3 1 -0.2 0.6 0.4 1.1 1.3 1.1 0.9 0 1.5 -0.5 1.3 -1.1z m55.5 0 c2.9 -1.6 3.7 -2.8 3.7 -6.3 0 -2.8 -0.1 -2.8 -1.8 -1.3 -2.3 2.1 -3.9 2.2 -2.2 0.2 0.6 -0.8 0.9 -1.9 0.6 -2.4 -0.4 -0.5 0 -1.3 0.8 -1.8 0.8 -0.4 1.6 -2.4 1.7 -4.4 0.3 -3.1 -0.3 -4.3 -3.2 -7.4 -3 -3 -4 -3.5 -6.3 -2.9 -4.1 1 -7.6 6.3 -8.3 12.5 -0.3 3 -1 5.9 -1.4 6.5 -1.7 2.1 7.3 8.4 11.9 8.4 1.3 0 3.3 -0.5 4.5 -1.1z"/>
  <path d="M84 147.5 c-2.3 -0.9 -2.8 -1.4 -1.5 -1.4 1.1 0 3.1 0.6 4.5 1.4 3.1 1.8 1.6 1.8 -3 0z"/>
  <path d="M126.9 178 c2.6 -2.2 5.6 -2.6 6.7 -0.9 1 1.6 -1.5 2.9 -5.6 2.9 l-3.5 -0.1 2.4 -1.9z"/>
  <path d="M152 148 c0 -2.1 1.6 -2.5 5.8 -1.4 3.9 1.1 2.7 3.4 -1.8 3.4 -3.3 0 -4 -0.3 -4 -2z"/>
  <path d="M144 147 c0 -2.1 1 -2.4 4.8 -1.4 3.6 1 2.7 3.4 -1.3 3.4 -2.8 0 -3.5 -0.4 -3.5 -2z"/>
  <path d="M120.6 107.8 c-1 -3.8 -0.7 -4.8 1.4 -4.8 1.6 0 2 0.7 2 3.5 0 4 -2.4 4.9 -3.4 1.3z"/>
  <path d="M117 80.3 c0.1 -5.6 1.9 -8.6 4.9 -8.1 2.2 0.3 2.2 0.3 0.3 4 -1.1 2.1 -1.7 4.8 -1.5 6.3 0.4 2 0.1 2.5 -1.6 2.5 -1.8 0 -2.1 -0.6 -2.1 -4.7z"/>
  <path d="M125 67.1 c0 -2.4 0.4 -3.1 2 -3.1 1.1 0 2 -0.4 2 -0.9 0 -0.5 1.6 -1.2 3.5 -1.5 3.2 -0.6 3.4 -0.9 2 -2.2 -0.8 -0.9 -1.7 -2.7 -2.1 -4.2 -0.3 -1.5 -1.4 -5.5 -2.5 -9 -2.1 -6.9 -2.4 -11.2 -0.8 -11.2 1.3 0 4.9 8.1 5.6 12.8 0.8 4.9 3.7 10.7 6.5 12.7 2.8 1.9 1.7 2.9 -5.7 4.6 -2.7 0.6 -6.2 2 -7.7 3.1 l-2.8 1.9 0 -3z"/>
  <path d="M45 65.5 c0 -0.8 -0.8 -1.5 -1.7 -1.5 -2.9 0 1.6 -3.6 5.5 -4.4 3.2 -0.5 3.2 -0.5 3.2 3.4 0 3.9 -0.1 4 -3.5 4 -2.4 0 -3.5 -0.5 -3.5 -1.5z"/>
 </g>
 <g fill="#85564a">
  <path d="M89.5 172.6 c-6 -1.9 -14.5 -6.5 -15.2 -8.1 -0.3 -0.8 -1.4 -1.5 -2.4 -1.5 -1 0 -4.4 -1.3 -7.4 -3 -3 -1.6 -6.1 -3 -6.8 -3 -0.6 0 -4.3 -1.3 -8.2 -2.8 -5.5 -2.3 -7.1 -3.4 -7.3 -5.2 -0.6 -3.6 0.8 -11 2 -11 0.6 0 0.8 1 0.5 2.2 -0.5 1.6 0.3 3 3 5.5 2.1 1.8 4.5 3.3 5.5 3.3 1 0 3.4 1.6 5.4 3.5 3.2 3.2 6.3 4.8 4.9 2.6 -1 -1.8 7 0.1 8.6 1.9 1.2 1.4 1.9 1.6 2.8 0.7 0.8 -0.8 1.1 -0.8 1.1 0.2 0 1.4 2.5 4.2 3.2 3.5 0.3 -0.2 4.2 1.5 8.7 3.8 4.6 2.4 9.1 4.7 10.2 5.3 1 0.5 1.9 1.5 1.9 2.2 0 1.7 -5.2 1.6 -10.5 -0.1z"/>
  <path d="M136 169 c0 -0.5 0.7 -1 1.5 -1 1.7 0 2 -1.6 0.5 -2.5 -0.6 -0.4 -4.4 -0.1 -8.4 0.6 -7.9 1.2 -14.6 0.6 -14.6 -1.4 0 -0.7 4.3 -2.7 9.5 -4.5 7.8 -2.8 10.6 -3.3 16 -3 6.5 0.3 6.5 0.3 6.5 -2.4 0 -2.2 0.7 -2.9 3.8 -3.9 2 -0.7 6.4 -1.3 9.7 -1.3 l6 -0.1 0.3 4.7 c0.4 6.5 -1 8.8 -5.3 8.8 -2.4 0 -3.5 -0.5 -3.5 -1.5 0 -0.8 0.7 -1.5 1.5 -1.5 0.9 0 1.5 -0.9 1.5 -2.5 0 -1.8 -0.5 -2.5 -2 -2.5 -3.3 0 -7.1 2.2 -6.5 3.8 0.4 1.1 -0.2 1.3 -2.5 1 -2.6 -0.4 -3 -0.2 -3 1.9 0 1.3 -0.7 3.7 -1.5 5.3 -1.3 2.6 -2.1 3 -5.5 3 -2.2 0 -4 -0.4 -4 -1z"/>
  <path d="M107.8 164.2 c-3.7 -2.2 -3.5 -3.2 0.7 -3.2 3.1 0 3.5 0.3 3.5 2.5 0 2.9 -0.6 3 -4.2 0.7z"/>
  <path d="M88.8 159.2 c-1 -0.2 -1.8 -0.7 -1.8 -1.2 0 -0.5 -1.2 -1.3 -2.7 -1.9 -2.5 -0.9 -2.4 -1 1.5 -0.6 2.4 0.2 4.6 0.6 4.9 0.8 1.1 1.2 -0.3 3.2 -1.9 2.9z"/>
  <path d="M61 118.8 c0 -1.2 0.1 -1.9 0.3 -1.7 0.1 0.2 0.9 1.2 1.6 2.2 1.2 1.4 1.1 1.7 -0.3 1.7 -1 0 -1.6 -0.8 -1.6 -2.2z"/>
  <path d="M65 120.1 c0 -0.5 -0.3 -1.7 -0.6 -2.5 -0.5 -1.2 -0.2 -1.5 1.2 -0.9 0.9 0.3 1.5 0.2 1.2 -0.3 -0.4 -0.5 0.5 -1 1.8 -1 3.3 -0.2 3.4 4.1 0.2 5 -3.1 0.8 -3.8 0.7 -3.8 -0.3z"/>
  <path d="M46 92.5 c-0.8 -0.9 -2.9 -1.5 -5.8 -1.5 -6.8 0 -4 -1.5 5.3 -2.9 11.7 -1.8 14 -2.7 16.7 -6.9 1.4 -2 3.5 -5.4 4.8 -7.4 1.4 -2 3.2 -3.6 4.1 -3.5 1 0.1 1.5 0.5 1.3 0.9 -0.3 0.5 -1 0.5 -1.6 0.2 -0.6 -0.4 -0.8 -0.3 -0.5 0.3 0.3 0.5 -1.6 3.8 -4.4 7.2 -6 7.4 -6 9.3 -0.1 2.4 6.7 -7.8 9.6 -10.5 10 -9.4 0.2 0.6 -1.3 3 -3.2 5.4 -2 2.4 -3.6 5.3 -3.6 6.3 -0.1 4.2 -7.6 8.9 -15.6 9.8 -4.9 0.5 -6.4 0.4 -7.4 -0.9z"/>
  <path d="M38.6 85.2 c-0.3 -0.3 -0.6 -3 -0.6 -6.1 0 -3.9 -0.3 -5.1 -1 -4.1 -1.7 2.8 -2.3 0 -0.7 -3.7 0.8 -2.1 1.8 -4.5 2 -5.4 0.6 -1.9 4.7 -4.1 12.6 -7 3 -1 5.8 -2.4 6.1 -3 0.4 -0.6 2.7 -1.3 5.1 -1.6 4 -0.6 4.3 -0.5 3 1 -1.1 1.4 -1.1 2.4 0 6.2 0.7 2.5 1.9 4.5 2.6 4.5 1.9 0 1.6 1.1 -1.2 5.2 -1.4 2 -2.5 4.1 -2.5 4.5 0 2.2 -6.2 8 -9.7 9.1 -3.9 1.2 -14.7 1.5 -15.7 0.4z m14.7 -1.1 c1.6 -0.6 2.9 -2.3 3.7 -4.7 1.1 -3.3 1.1 -3.9 -0.5 -5 -2.8 -2.1 -4.5 -0.6 -4.5 4 0 2.3 -0.5 4.7 -1.2 5.4 -1.4 1.4 -0.8 1.5 2.5 0.3z"/>
  <path d="M32.1 77 c0 -3.6 0.4 -7.2 0.9 -8 1.2 -1.9 1.2 3.4 0.1 10 -0.8 4.5 -0.9 4.5 -1 -2z"/>
  <path d="M90 69 c0 -0.6 -1.7 -0.8 -4.2 -0.5 -2.6 0.2 -1.7 -0.1 2.2 -1 3.6 -0.8 8.5 -1.5 11 -1.5 3.7 -0.1 4.1 -0.3 2.3 -1 -3.4 -1.4 -2.8 -2.3 1 -1.6 3.8 0.7 8.9 -2 6.6 -3.5 -0.9 -0.6 0.1 -0.9 2.9 -0.9 4.1 0 4.2 0.1 4.2 3.3 0 5.5 -2.6 7 -11 6.5 -3.8 -0.2 -7 0 -7 0.4 0 0.4 -1.8 0.8 -4 0.8 -2.2 0 -4 -0.5 -4 -1z"/>
  <path d="M82 65.2 c0 -1.5 4.8 -2.4 6.8 -1.3 1.4 0.9 1.3 1 -1 1.1 -1.4 0 -3.3 0.3 -4.2 0.6 -0.9 0.3 -1.6 0.2 -1.6 -0.4z"/>
  <path d="M98.7 58.2 c-2.9 -0.3 -3.6 -0.6 -2.8 -1.6 0.6 -0.7 1.2 -3.1 1.3 -5.4 0.2 -3.2 0.7 -4.2 2 -4.2 2.4 0 4 3.4 3.6 7.8 -0.3 3.6 -0.4 3.7 -4.1 3.4z"/>
  <path d="M63.5 51.8 c-11 -1.7 -10.6 -1.5 -9.5 -4.4 0.6 -1.4 0.7 -3.7 0.4 -5.1 -1.4 -5.6 4 -14.6 11.3 -18.8 1.8 -1 2.9 -2.3 2.6 -2.9 -0.4 -0.5 0.1 -0.7 1 -0.3 1 0.4 2 0 2.6 -1.1 0.8 -1.3 1 -1.3 1.1 -0.3 0 1.1 0.4 0.9 1.5 -0.5 0.8 -1 1.5 -1.4 1.5 -0.8 0 1.1 1.5 1.1 12 0 4.7 -0.5 8 0.3 8 2 0 0.8 -0.4 1.4 -1 1.4 -0.6 0 -0.6 0.8 0 2.3 0.5 1.2 1.1 3.4 1.4 4.8 0.3 1.5 1.7 3.7 3.1 5 1.9 1.9 2.5 3.4 2.5 7.2 0 4.4 -0.2 4.7 -2.5 4.7 -1.5 0 -2.5 -0.5 -2.4 -1.2 0.3 -2.8 -0.2 -4 -1.5 -3.5 -1 0.4 -1.3 0.1 -1 -0.7 0.3 -0.7 -0.2 -2 -1 -2.9 -0.8 -0.8 -1.3 -1.7 -1.1 -1.9 0.3 -0.2 -0.9 -1.7 -2.5 -3.3 -1.7 -1.6 -3 -2.5 -3 -2.2 0 0.4 -0.8 0.3 -1.8 -0.2 -1.5 -0.8 -2.5 -0.4 -4.9 2.2 -3.9 4.1 -4.7 5.7 -6.8 14.5 -0.9 4 -2.2 7.1 -2.9 7.1 -0.6 -0.1 -3.8 -0.6 -7.1 -1.1z m-1.5 -8.9 c1.3 -2.3 1.3 -3.9 0 -3.9 -0.8 0 -4 5.1 -4 6.4 0 1.2 3.1 -0.8 4 -2.5z m10.6 -6.6 c1.7 -2.3 1.8 -4.3 0 -4.3 -0.7 0 -2 -1 -2.9 -2.2 l-1.5 -2.3 -2.1 2.4 c-2.8 3.2 -2.7 4.3 0.7 6.3 3.5 2.1 4.2 2.1 5.8 0.1z"/>
  <path d="M48 21.7 c0 -1.5 9.4 -5.8 17.3 -7.8 7.1 -1.9 9.2 -2.1 10.7 -1.1 1.2 0.7 2.1 0.8 2.5 0.2 0.9 -1.4 9.3 -1.1 14 0.5 l4 1.4 -6.1 -0.1 c-3.3 -0.1 -6.6 0.2 -7.4 0.7 -0.8 0.5 -1.1 0.4 -0.7 -0.2 0.7 -1.1 -7.6 -0.6 -10.3 0.7 -0.8 0.4 -4 0.8 -7 0.9 -6 0.2 -11.3 1.6 -14.7 3.9 -1.3 0.8 -2.3 1.2 -2.3 0.9z"/>
 </g>
 <g fill="#775147">
  <path d="M100.8 179.3 c-2 -0.5 -2.5 -3.3 -0.5 -3.3 0.6 0 2.6 0.9 4.2 2 3 2 3 2 0.5 1.9 -1.4 -0.1 -3.3 -0.3 -4.2 -0.6z"/>
  <path d="M80 174 l-3.5 -2.9 3.8 -0.1 c3.5 0 3.7 0.2 3.7 3 0 1.7 -0.1 3 -0.3 3 -0.1 0 -1.8 -1.3 -3.7 -3z"/>
  <path d="M142.6 172.7 c-0.7 -3.2 -0.5 -3.2 -12.5 -1 -5.7 1 -2.7 -1.2 3.4 -2.6 3.1 -0.7 6.5 -2.1 7.6 -3.2 1.5 -1.5 1.9 -1.6 1.9 -0.4 0 0.8 0.6 1.5 1.4 1.5 1.4 0 2.6 2.9 2.6 6.5 0 3.4 -3.7 2.6 -4.4 -0.8z"/>
  <path d="M92 171.9 c0 -1.8 0.4 -2 4.8 -1.4 8 1.1 10.2 1.6 10.2 2.6 0 0.5 -3.4 0.9 -7.5 0.9 -6.9 0 -7.5 -0.2 -7.5 -2.1z"/>
  <path d="M112 173 c0 -0.5 0.6 -1 1.3 -1.1 0.6 0 3.6 -0.2 6.5 -0.4 6 -0.4 7 0.9 1.5 1.9 -5.6 0.9 -9.3 0.7 -9.3 -0.4z"/>
  <path d="M47.3 170.5 c-4.3 -1.8 -4.2 -3.5 0.2 -3.5 3.1 0 3.5 0.3 3.5 2.5 0 1.4 -0.1 2.5 -0.2 2.5 -0.2 -0.1 -1.8 -0.7 -3.5 -1.5z"/>
  <path d="M158 166.6 c0 -1.9 -0.5 -2.6 -2 -2.6 -2.9 0 -2.5 -2.7 0.5 -3.4 1.3 -0.3 4.3 -0.3 6.5 0 3.8 0.6 4 0.9 4 4 0 2.9 -0.4 3.4 -2.2 3.4 -1.3 0 -3.3 0.3 -4.5 0.6 -2 0.5 -2.3 0.2 -2.3 -2z m5 -2.6 c0 -0.5 -0.6 -1 -1.4 -1 -0.8 0 -1.8 0.5 -2.1 1 -0.3 0.6 0.3 1 1.4 1 1.2 0 2.1 -0.4 2.1 -1z"/>
  <path d="M107.3 163.9 c-1.7 -1.1 -6.2 -2.5 -10 -3 -7.1 -1.1 -12.5 -3.6 -10.4 -4.8 0.6 -0.4 3.8 -0.3 7.1 0.3 5.8 0.9 8.8 0.3 6.1 -1.3 -0.7 -0.5 -1.2 -1.2 -1 -1.7 0.1 -0.5 -0.9 -1.5 -2.2 -2.1 l-2.4 -1.3 2.3 0 c1.2 0 3.3 0.7 4.7 1.6 2.1 1.4 2.4 1.4 3.4 -0.3 1 -1.5 1.1 -1.2 0.9 2 -0.2 3.4 0.1 4 3.7 6.2 2.3 1.4 5.6 2.5 7.8 2.5 3 0 3.7 0.4 3.7 2 0 1.8 -0.6 2 -5.2 1.9 -3.4 0 -6.4 -0.8 -8.5 -2z"/>
  <path d="M90 152 c-2 -0.6 -2.1 -0.8 -0.5 -0.8 1.1 0 3.1 0.4 4.5 0.8 2 0.6 2.1 0.8 0.5 0.8 -1.1 0 -3.1 -0.4 -4.5 -0.8z"/>
  <path d="M106.6 147.5 c0.3 -0.8 -0.6 -2.5 -2.1 -3.9 -1.7 -1.6 -2.4 -3 -1.9 -3.8 0.4 -0.7 0.4 -1 -0.1 -0.6 -1.1 1 -4.5 -1 -4.5 -2.7 0 -0.8 0.9 -1.5 1.9 -1.5 3.7 0 5.1 1.2 5.1 4.1 0 2.4 0.4 2.9 2.5 2.9 2.2 0 2.5 0.4 2.5 3.5 0 2.8 -0.4 3.5 -2 3.5 -1.3 0 -1.8 -0.5 -1.4 -1.5z"/>
  <path d="M42.5 143.1 c0.5 -3.4 1.2 -4.9 1.8 -4 0.2 0.2 -0.3 2 -1 3.9 l-1.4 3.5 0.6 -3.4z"/>
  <path d="M70.3 144.9 c-1.8 -0.5 -3.5 -1.4 -3.8 -1.9 -0.5 -0.8 2 -0.2 9.5 2.3 2.8 1 -2.4 0.6 -5.7 -0.4z"/>
  <path d="M115 139.5 c0 -3.1 0.3 -3.5 2.5 -3.5 1.6 0 2.5 -0.6 2.5 -1.5 0 -1 1.1 -1.5 3.5 -1.5 3.3 0 3.5 0.2 3.5 3.5 0 3.1 -0.3 3.5 -2.5 3.5 -1.6 0 -2.5 0.6 -2.5 1.5 0 1 -1.1 1.5 -3.5 1.5 -3.3 0 -3.5 -0.2 -3.5 -3.5z"/>
  <path d="M76.7 141.3 c-0.4 -0.3 -0.7 -1.2 -0.7 -2 0 -1.1 0.5 -1.1 2 -0.3 1.1 0.6 2 1.5 2 2 0 1.1 -2.3 1.3 -3.3 0.3z"/>
  <path d="M52.9 139.1 c-1.7 -1.3 -2.1 -2.3 -1.4 -3 0.7 -0.7 1.8 -0.4 3.5 1.2 1.4 1.2 2.1 1.9 1.6 1.5 -1.8 -1.4 -2.9 -0.8 -1.6 0.7 1.7 2.1 0.7 1.9 -2.1 -0.4z"/>
  <path d="M70 140.1 c0 -0.5 -1.5 -1.2 -3.3 -1.5 -3.5 -0.7 -15.7 -7.5 -15.7 -8.8 0 -0.4 2.4 -0.8 5.3 -0.8 8.2 0.1 18.7 5.7 18.7 10.2 0 1.3 -0.7 1.8 -2.5 1.8 -1.4 0 -2.5 -0.4 -2.5 -0.9z m-3.4 -5 c-0.6 -1 -9.2 -4.1 -11 -4.1 -1.5 0.1 2.1 2.1 6.4 3.7 4.3 1.5 5.3 1.6 4.6 0.4z"/>
  <path d="M92.7 139.3 c-0.4 -0.3 -0.7 -1.3 -0.7 -2.1 0 -0.8 -1.1 -2.5 -2.4 -3.7 -1.9 -1.8 -2.6 -2 -3 -0.9 -0.3 0.8 -1.3 1.4 -2.3 1.3 -1.1 0 -1.3 -0.3 -0.5 -0.6 0.6 -0.2 1.2 -1.1 1.2 -1.8 0 -0.8 0.7 -1.8 1.6 -2.3 1.9 -1.1 5.4 -0.4 5.4 0.9 0 0.5 0.7 0.9 1.5 0.9 0.8 0 1.5 0.9 1.5 1.9 0 1.1 0.5 2.3 1 2.6 2 1.3 1 2.6 -1.1 1.4 -2 -1 -2.1 -0.9 -1.6 1 0.5 2.2 0.4 2.5 -0.6 1.4z"/>
  <path d="M79 132 c-1.7 -1.1 -0.3 -4.8 2.1 -5.5 1.6 -0.5 1.8 -1 0.8 -2.1 -0.9 -1.1 -0.7 -1.4 1.6 -1.4 2.4 0 2.6 0.3 2.1 2.5 -0.8 3.2 -5.1 7.4 -6.6 6.5z"/>
  <path d="M62.5 127 c-1 -1.1 -1.3 -2 -0.7 -2 0.5 0 0.8 -0.9 0.5 -2 -0.3 -1.1 -1.3 -2 -2.3 -2 -1 0 -2.1 -0.7 -2.4 -1.6 -0.9 -2.5 -0.7 -6.4 0.4 -6.4 1.3 0 5.5 6.8 6.2 10 0.3 1.4 0.9 3.3 1.3 4.3 1 2.3 -0.8 2.2 -3 -0.3z"/>
  <path d="M67.7 123.5 c-2.9 -3.6 -3.5 -6.5 -1.4 -6.5 0.6 0 2.2 -0.8 3.4 -1.8 1.9 -1.4 2.2 -2.3 1.7 -5.4 -0.5 -2.8 -1 -3.5 -2.3 -3 -1.4 0.5 -1.4 0.4 -0.2 -1.2 1.2 -1.5 1.2 -1.9 -0.2 -3.4 -1.2 -1.2 -1.7 -1.3 -1.7 -0.3 0 0.7 -0.6 1.1 -1.5 0.8 -2.2 -0.9 -2.6 0.6 -0.9 3.7 1.7 3.5 1.7 3.6 0 3.6 -1.5 0 -2.6 -2.1 -2.6 -4.7 0 -0.9 -0.9 -2.4 -2.1 -3.4 -1.2 -1 -2.3 -3.5 -2.6 -5.8 -0.5 -3.9 -0.4 -4.1 2 -4.1 1.7 0 2.6 0.7 3.1 2.3 1 4.1 8.6 6.9 8.6 3.1 0 -0.8 0.6 -1.1 1.5 -0.8 2.5 1 1.7 3.4 -1 3.4 -1.4 0 -2.5 0.5 -2.5 1 0 0.6 1.2 0.9 2.8 0.6 1.5 -0.2 3.3 -0.5 4 -0.5 1.5 -0.1 -0.7 -4.9 -3.2 -7 -1.8 -1.5 -2.1 -3.1 -0.6 -3.1 1.9 0 4.6 3.6 6.2 8.5 0.9 2.8 1.7 4.2 1.7 3.1 0.1 -1.4 0.4 -1.6 1.4 -0.7 1.1 0.8 1.7 0.5 2.7 -1.4 1.6 -3 3 -3.2 3 -0.5 0 1.1 -0.4 2 -1 2 -0.5 0 -1 0.7 -1 1.5 0 0.9 -0.9 1.5 -2.5 1.5 -2 0 -2.5 0.5 -2.5 2.5 0 2.2 0.4 2.5 3.3 2.5 4.4 0 6.7 2.6 6.7 7.4 l0 3.8 -4.7 -0.4 c-2.7 -0.1 -6.3 0.3 -8.1 1.1 -2.9 1.2 -3.5 1.2 -5.2 -0.4 -2.7 -2.5 -4.5 -1 -2.5 2.2 2.5 3.8 1.3 3.7 -1.8 -0.2z m9.4 -3.8 c0.8 -0.7 1.8 -2.2 2.1 -3.5 0.5 -1.8 0.3 -2.2 -1 -2 -1.1 0.3 -1.6 1.2 -1.4 2.8 0.2 1.9 0 2.2 -0.9 1.3 -1.4 -1.4 -5.3 0.2 -4.4 1.8 0.8 1.3 3.7 1.1 5.6 -0.4z m1.3 -11.5 c0.2 -0.4 -1.1 -0.8 -3 -0.8 -1.9 0 -3.4 0.4 -3.4 0.8 0 0.4 1.3 0.8 2.9 0.8 1.7 0 3.2 -0.4 3.5 -0.8z"/>
  <path d="M95.3 107.5 c0.1 -3.2 1.7 -5.2 1.7 -2.1 0 1.7 2.7 2.9 3.5 1.6 0.4 -0.6 0.3 -1.4 0 -2 -0.3 -0.5 -0.1 -1 0.4 -1 1.5 0 1.4 4.3 -0.1 5.8 -0.7 0.7 -2.2 1.2 -3.4 1.2 -1.9 0 -2.2 -0.5 -2.1 -3.5z"/>
  <path d="M46.5 93 c-1.8 -1.9 -1.7 -2 0.3 -2 1.5 0 2.2 0.6 2.2 2 0 1.1 -0.2 2 -0.3 2 -0.2 0 -1.2 -0.9 -2.2 -2z"/>
  <path d="M63.5 91.4 c-1 -0.7 -1.5 -2.2 -1.3 -3.6 0.2 -1.8 1 -2.4 3.6 -2.6 2.8 -0.3 3.2 0 3.2 2 0 1.9 -0.2 2 -1 0.8 -0.9 -1.3 -1.1 -1.3 -2 0 -1.5 2.4 -1.3 4.5 0.4 3.1 1 -0.9 1.6 -0.8 2.6 0.4 1.1 1.3 0.9 1.5 -1.3 1.3 -1.4 -0.1 -3.3 -0.8 -4.2 -1.4z"/>
  <path d="M36.8 89.8 c0.9 -0.9 1.5 -0.9 2.4 0 0.9 0.9 0.7 1.2 -1.2 1.2 -1.9 0 -2.1 -0.3 -1.2 -1.2z"/>
  <path d="M78.4 88.5 c0.3 -0.9 -0.3 -2 -1.4 -2.7 -1.5 -1 -2 -2.4 -2 -5.5 0 -4.3 0 -4.3 3.6 -4.3 l3.5 0 -0.2 7 c-0.2 6.2 -0.4 7 -2.2 7 -1.3 0 -1.7 -0.5 -1.3 -1.5z"/>
  <path d="M31.1 79.3 c-0.1 -6.9 0.2 -8.3 1.5 -8.3 1.3 0 1.4 0.9 0.8 5.7 -1.3 10.4 -2.2 11.4 -2.3 2.6z"/>
  <path d="M49.5 85 c2.2 -0.5 5.4 -1.3 7 -2 1.7 -0.6 2.6 -0.7 2 -0.2 -1.6 1.4 -7.5 3.2 -10.4 3.1 -1.9 -0.1 -1.5 -0.3 1.4 -0.9z"/>
  <path d="M49.3 81.3 c-0.7 -0.3 -1.3 -1.8 -1.3 -3.4 0 -2.2 0.5 -2.9 2 -2.9 1.6 0 1.9 0.6 1.6 3 -0.4 3.6 -0.6 3.9 -2.3 3.3z"/>
  <path d="M69 78.2 c0 -1.3 3 -5.2 4.1 -5.2 0.5 0 0.9 1.4 0.9 3 0 2.5 -0.4 3 -2.5 3 -1.4 0 -2.5 -0.3 -2.5 -0.8z"/>
  <path d="M79 70.6 c0 -0.9 1.9 -1.8 5 -2.5 6.7 -1.4 7 -1.4 7 0.8 0 1.4 -1 2 -3.7 2.5 -6 0.9 -8.3 0.7 -8.3 -0.8z"/>
  <path d="M30.6 66.4 c-1 -3.8 0.1 -6 2.8 -6 2.1 0 2.2 0.3 1.5 3.6 -0.5 1.9 -0.9 3.8 -0.9 4.3 0 1.9 -2.9 0.4 -3.4 -1.9z"/>
  <path d="M112 63.5 c1 -1.3 0.9 -1.5 -0.9 -1.5 -1.2 0 -2 -0.4 -1.7 -0.9 0.8 -1.2 -1.2 -1.9 -8.6 -2.7 -5.6 -0.6 -6 -0.8 -3.8 -1.8 1.4 -0.5 2.6 -1.1 2.8 -1.2 0.2 -0.1 -0.5 -2.5 -1.5 -5.3 -1.4 -4.2 -1.5 -5.5 -0.5 -7.1 1.6 -2.6 1.5 -4.7 -0.1 -5.7 -2.2 -1.3 -4.7 -5.6 -4.7 -8 0 -1.2 -1.4 -3.9 -3.2 -5.8 -3.9 -4.6 -3 -5.4 6.2 -5.6 l6.5 -0.1 -3.5 -1.5 c-1.9 -0.8 -7.2 -1.8 -11.7 -2.1 -4.6 -0.2 -8.3 -0.9 -8.3 -1.3 0 -1.6 7.2 -0.9 18.2 1.7 l10.8 2.6 0 3.6 c0 3.1 -0.5 4 -3 5.4 -3.3 1.9 -3.8 3.9 -1.5 5.8 2 1.7 2 11.3 0 13 -1.9 1.6 -1.9 6.7 -0.1 8.6 1 0.9 3.7 1.4 8 1.4 l6.6 0 0 4.4 c0 4.6 -1 5.6 -5.2 5.6 -1.7 0 -1.8 -0.3 -0.8 -1.5z"/>
  <path d="M66.5 52 c-1.6 -0.4 -4.9 -0.8 -7.2 -0.9 -4.8 -0.1 -6.9 -2 -2.6 -2.3 6.8 -0.4 11.9 0.4 13.8 2.3 2.1 2.1 1.4 2.3 -4 0.9z"/>
 </g>
 <g fill="#7a4c3f">
  <path d="M138 169.1 c0 -0.5 0.7 -1.1 1.4 -1.4 0.8 -0.3 2.2 -2 3.1 -3.7 1.6 -3 1.5 -3.2 -0.4 -3.7 -3.3 -0.8 -2.6 -3.3 0.9 -3.3 2.6 0 3 -0.4 3 -2.8 0 -2.8 0.3 -2.9 6.8 -4.1 3.7 -0.7 8.5 -1.1 10.7 -0.9 l4 0.3 0 5.5 0 5.5 -3.8 0.3 -3.8 0.3 2.1 -2.1 c1.2 -1.2 2 -3.1 1.8 -4.3 -0.3 -1.9 -0.9 -2.2 -3.8 -1.9 -5.7 0.4 -10.4 2.2 -9.1 3.5 1.7 1.7 1.3 2.7 -0.9 2.7 -1.6 0 -2 0.7 -2 3.3 0 4.8 -2.4 7.7 -6.6 7.7 -1.9 0 -3.4 -0.4 -3.4 -0.9z"/>
  <path d="M116.8 165.3 c-1 -0.2 -1.8 -1.1 -1.8 -1.9 0 -0.8 0.8 -1.4 1.8 -1.4 0.9 0 4.1 -0.9 7 -2 6 -2.3 11.2 -2.6 11.2 -0.7 0 1 -14.4 7 -16 6.6 -0.3 -0.1 -1.3 -0.3 -2.2 -0.6z"/>
  <path d="M46.5 92.9 c-1 -1.6 -0.1 -2.1 5 -2.6 4.1 -0.5 4.5 -0.4 4.5 1.6 0 1.8 -0.6 2.1 -4.4 2.1 -2.5 0 -4.8 -0.5 -5.1 -1.1z"/>
  <path d="M66 82 c3.1 -4.4 4 -4.5 4 -0.6 0 3.3 -0.2 3.6 -3.1 3.6 l-3 0 2.1 -3z"/>
  <path d="M49.3 81.3 c-1.9 -0.7 -1.6 -7.2 0.2 -8 2.4 -0.8 2.7 0.1 1.8 4.5 -0.5 2.4 -1.3 3.7 -2 3.5z"/>
  <path d="M107 67.5 c0 -0.8 0.6 -1.5 1.3 -1.5 1.5 0 6.7 -5.4 6.7 -7 0 -0.5 1.4 -1 3 -1 2.9 0 3 0.2 3 4.5 0 5.4 -1.6 6.5 -8.9 6.5 -3.9 0 -5.1 -0.4 -5.1 -1.5z"/>
  <path d="M100.3 56.8 c0 -0.7 -0.5 -3.2 -1.1 -5.5 l-1 -4.3 2.9 0 c4 0 6.9 3.2 6.9 7.5 0 3.4 -0.1 3.5 -3.8 3.5 -2.4 0 -3.9 -0.5 -3.9 -1.2z"/>
 </g>
 <g fill="#754f3a">
  <path d="M98 179.3 c-8.4 -0.5 -13.5 -2.2 -20.7 -6.9 -5.4 -3.5 -7.1 -4.2 -9.7 -3.7 -1.7 0.3 -3.4 1 -3.7 1.6 -0.4 0.5 -3.4 1 -6.7 1.2 -6.8 0.4 -14.8 -2 -16.4 -4.9 -1.2 -2.1 0 -12.5 1.2 -10.6 0.4 0.7 5.9 2.3 12.1 3.6 9.2 1.9 13.5 3.4 21.9 7.7 5.8 3 11.6 5.8 13 6.2 1.4 0.4 -3.3 -2.3 -10.5 -5.9 -8.7 -4.4 -16.1 -7.4 -22.5 -9 -5.2 -1.3 -10.2 -2.7 -11.1 -3.1 -1.8 -0.7 -3 -4.9 -2.8 -9.9 0.1 -2.1 0.3 -2.4 0.6 -1 0.2 1.2 1.8 2.8 3.6 3.7 8.4 4.1 17.1 7.7 18.7 7.7 0.9 0 2.9 0.9 4.2 2 2.2 1.7 2.8 1.7 4.4 0.5 1.7 -1.2 2 -1.1 3 1.8 1.2 3.7 7.3 7.1 17.4 9.8 3.6 0.9 7.6 2.2 9 2.7 2.2 1 1.9 1.1 -2.5 1.2 l-5 0.1 4 1.5 c4.3 1.6 8.2 4.6 5.5 4.2 -0.8 -0.1 -4 -0.3 -7 -0.5z"/>
  <path d="M144.6 174.4 c-0.9 -0.8 -1.6 -2.2 -1.6 -3.1 0 -1.3 -0.9 -1.4 -5 -0.9 -2.7 0.4 -5 0.3 -5 -0.2 0 -0.9 8 -3.2 11.5 -3.2 2.3 0 2.5 0.4 2.5 4.5 0 5 -0.2 5.2 -2.4 2.9z"/>
  <path d="M114 173.1 c0 -0.5 2 -1.1 4.5 -1.3 4.7 -0.3 6.1 0.6 2.3 1.6 -3.4 0.9 -6.8 0.7 -6.8 -0.3z"/>
  <path d="M163.4 165.4 c0.4 -1.1 -0.1 -1.8 -1.4 -2.1 -3.5 -0.9 -2.4 -3.3 1.5 -3.3 3.3 0 3.5 0.2 3.5 3.5 0 2.9 -0.4 3.5 -2.1 3.5 -1.5 0 -1.9 -0.4 -1.5 -1.6z"/>
  <path d="M117 141.5 c0 -1.9 0.4 -2.3 1.8 -1.9 1.6 0.5 1.6 0.5 0 -0.9 -3 -2.4 -2.1 -3.7 2.7 -3.7 4.4 0 4.5 0.1 4.5 3.1 0 1.7 -0.6 3.7 -1.4 4.5 -0.8 0.8 -2.8 1.4 -4.5 1.4 -2.6 0 -3.1 -0.4 -3.1 -2.5z"/>
  <path d="M103.5 140.8 c-0.6 -1.3 -2.1 -2.2 -3.9 -2.4 -1.7 -0.2 -4.2 -1.2 -5.7 -2.4 -1.6 -1.1 -3.3 -2 -3.9 -2 -0.5 0 -1 -1.1 -1 -2.4 0 -1.4 -0.7 -3.1 -1.5 -4 -0.8 -0.8 -1.5 -2.4 -1.5 -3.5 0 -1.7 0.6 -2.1 3.5 -2.1 3.2 0 3.5 0.2 3.5 3 0 2 0.5 3 1.5 3 0.8 0 1.5 -0.4 1.5 -1 0 -0.5 1.1 -1 2.5 -1 1.6 0 2.5 -0.6 2.5 -1.5 0 -1 1.1 -1.5 3.5 -1.5 3.3 0 3.5 0.2 3.5 3.5 0 3.1 -0.3 3.5 -2.5 3.5 -1.6 0 -2.5 0.6 -2.5 1.5 0 0.9 0.9 1.5 2.5 1.5 1.4 0 2.5 0.5 2.5 1 0 0.6 0.9 1 2 1 1.6 0 2 0.7 2 3 0 1.7 -0.5 3 -1.1 3 -0.5 0 -0.7 0.5 -0.4 1 0.4 0.6 -0.7 1 -2.7 1 -2.4 0 -3.6 -0.6 -4.3 -2.2z m3.5 -3.8 c-1.1 -2.1 -4.1 -4 -6.2 -4 -0.7 0 -0.1 0.8 1.5 1.8 1.5 0.9 3 2.5 3.3 3.5 0.3 0.9 1 1.5 1.5 1.2 0.5 -0.4 0.5 -1.4 -0.1 -2.5z"/>
  <path d="M68.8 139.3 c-3.5 -1.5 -5.7 -4.2 -2.3 -2.9 2.1 0.8 1.9 -1 -0.2 -1.9 -1.7 -0.7 -1.6 -0.8 0.2 -1.5 1.5 -0.5 3.4 0.3 7.2 2.9 2.9 2 5.2 3.9 5.3 4.4 0 1.2 -6.3 0.6 -10.2 -1z"/>
  <path d="M52 130 c-1.9 -0.6 -1.2 -0.8 3 -0.8 3 0 6.6 0.4 8 0.8 1.9 0.6 1.2 0.8 -3 0.8 -3 0 -6.6 -0.4 -8 -0.8z"/>
  <path d="M63.4 127.5 c-2.2 -1.6 -5.4 -2 -5.4 -0.5 0 1 -1.6 0.6 -6.7 -1.7 -5.3 -2.3 -3.9 -5.1 1.4 -3.1 1.7 0.6 3.9 0.8 4.9 0.4 1.5 -0.6 1 -1.1 -2.9 -2.9 -2.6 -1.2 -4.7 -2.6 -4.7 -3 0 -1.2 2.7 -3.7 3.9 -3.7 0.6 0 1.1 -0.5 1.1 -1.1 0 -1.7 3.7 1.4 6.5 5.5 1.4 2 2.5 4.4 2.5 5.2 0 0.8 0.5 2.4 1.1 3.6 1.4 2.6 0.7 3.1 -1.7 1.3z"/>
  <path d="M77.6 122.8 c-1.8 -2.1 -1.8 -2.2 0 -3.5 1 -0.7 2.8 -1.3 4.1 -1.3 2 0 2.3 0.5 2.3 3.5 0 3.5 -1.6 4.7 -2.6 2 -0.4 -0.8 -1 -1.5 -1.5 -1.5 -0.4 0 -0.6 0.7 -0.3 1.5 0.8 2.1 0.2 1.9 -2 -0.7z"/>
  <path d="M65.7 120.3 c-1.1 -1 -0.8 -3.5 0.2 -2.8 0.5 0.3 1.2 0.1 1.6 -0.5 0.8 -1.2 6.5 -1.3 6.5 -0.1 0 0.5 -1.5 1.6 -3.4 2.5 -3.9 1.8 -4 1.8 -4.9 0.9z"/>
  <path d="M96 111.7 c0 -4.2 0.1 -4.3 3.5 -4.4 4.2 -0.1 4.4 0.7 0.8 2.9 -1.6 1 -2.2 1.8 -1.5 1.8 0.7 0 1 0.5 0.7 1 -0.3 0.6 -0.1 1 0.4 1 0.6 0 1.1 -0.6 1.1 -1.4 0 -0.8 0.5 -1.8 1 -2.1 0.6 -0.4 1 0.7 1 2.4 0 2.9 -0.3 3.1 -3.5 3.1 -3.5 0 -3.5 -0.1 -3.5 -4.3z"/>
  <path d="M56 107.8 c0 -1.1 0.7 -1.8 2 -1.8 1.3 0 2 0.7 2 1.8 0 1.1 -0.7 1.8 -2 1.8 -1.3 0 -2 -0.7 -2 -1.8z"/>
  <path d="M83.2 104.8 c0.3 -2.9 0.7 -3.3 3.6 -3.6 3.1 -0.3 3.2 -0.2 3.2 3.2 0 3.5 -0.1 3.6 -3.6 3.6 -3.4 0 -3.5 -0.1 -3.2 -3.2z"/>
  <path d="M120.6 106.4 c-1.5 -3.9 -0.7 -5.4 2.9 -5.4 3.3 0 3.5 0.2 3.5 3.5 0 3.2 -0.3 3.5 -2.9 3.5 -1.7 0 -3.1 -0.6 -3.5 -1.6z"/>
  <path d="M53.2 98.8 l0.3 -5.3 4.3 -0.6 c4 -0.5 5 -0.1 3.5 1.4 -0.3 0.4 -0.7 2.6 -0.7 5 -0.1 4.1 -0.2 4.2 -3.9 4.5 l-3.8 0.3 0.3 -5.3z"/>
  <path d="M95 98.4 c0 -3 0.3 -3.4 2.5 -3.4 2.1 0 2.5 0.5 2.5 3.2 0 4.3 1.1 2.9 1.6 -2 0.2 -2.7 -0.1 -4.4 -1.1 -5.2 -2.5 -2.1 -1.9 -5 1 -5 1.8 0 2.5 -0.5 2.5 -2 0 -1.6 0.7 -2 3.5 -2 3.3 0 3.5 0.2 3.5 3.5 0 2.8 -0.4 3.5 -2 3.5 -1.1 0 -2 0.5 -2 1.1 0 1.4 2.5 3.9 3.9 3.9 0.6 0 1.1 1.6 1.1 3.5 0 3.3 -0.2 3.5 -3.5 3.5 -1.9 0 -3.5 -0.4 -3.5 -1 0 -0.5 -0.7 -1 -1.5 -1 -0.8 0 -1.5 0.6 -1.5 1.3 0 0.8 -1.3 1.3 -3.5 1.4 -3.3 0.1 -3.5 -0.1 -3.5 -3.3z"/>
  <path d="M75.7 98.3 c-1.3 -1.3 -0.7 -5.6 1 -6.8 0.9 -0.7 1.6 -2.6 1.6 -4.4 0 -2.6 0.4 -3.1 2.6 -3.2 1.6 -0.1 1.9 -0.3 0.9 -0.6 -0.9 -0.2 -2.1 -1.6 -2.7 -3.1 -0.6 -1.7 -1 -2.1 -1 -0.9 -0.1 0.9 -0.8 1.7 -1.6 1.7 -1 0 -1.5 -1.1 -1.5 -3.5 0 -3.3 0.2 -3.5 3.5 -3.5 1.9 0 3.5 0.5 3.5 1 0 0.6 1.1 1 2.5 1 2.1 0 2.5 0.5 2.5 3 0 2 0.5 3 1.5 3 1 0 1.5 1.1 1.5 3.5 0 3.1 -0.3 3.5 -2.5 3.5 -1.8 0 -2.5 0.5 -2.5 2 0 1.3 -1 2.4 -2.5 3 -3 1.1 -3.3 2 -0.5 1.3 2.9 -0.8 2.5 1.6 -0.6 2.7 -3 1.2 -4.8 1.3 -5.7 0.3z m7.8 -7.4 c0.7 -1 -0.3 -6.5 -1 -5.7 -0.2 0.2 -0.6 1.8 -1 3.6 -0.5 3.1 0.7 4.3 2 2.1z m3.3 -4.1 c-0.2 -0.6 -1 -1.4 -1.6 -1.6 -0.7 -0.2 -1 0.2 -0.6 1.2 0.7 1.8 2.8 2.2 2.2 0.4z"/>
  <path d="M64.5 92 c-0.3 -0.5 -2.2 -1 -4.1 -1 -4.2 0 -4.3 -0.9 -0.1 -3.6 3.7 -2.4 5.4 -1.5 4.9 2.6 -0.3 2.1 -0.2 2.2 1.2 1.1 1.4 -1.1 1.6 -1.1 1.6 0.3 0 1.8 -2.5 2.2 -3.5 0.6z"/>
  <path d="M92 68.6 c0 -1.3 2.8 -2.6 5.8 -2.6 0.6 0 1.2 0.9 1.2 2 0 1.6 -0.7 2 -3.5 2 -2.3 0 -3.5 -0.5 -3.5 -1.4z"/>
  <path d="M30.8 65.5 c-0.6 -2.9 1 -4.5 2.3 -2.4 0.7 1.2 0.9 1.2 0.9 0 0 -0.8 0.2 -1.2 0.5 -0.9 1 1 -0.7 5.8 -2 5.8 -0.7 0 -1.5 -1.1 -1.7 -2.5z"/>
  <path d="M114 65.7 c2 -0.7 3.6 -2 3.8 -3.1 0.3 -1.4 0 -1.7 -1.2 -1.3 -1.1 0.5 -1.6 0.1 -1.6 -1.3 0 -1.1 -0.7 -2 -1.5 -2 -0.8 0 -1.5 -0.7 -1.5 -1.6 0 -1.2 0.9 -1.4 3.8 -1.2 4.1 0.3 4.9 2.1 3.7 8.4 -0.6 3.2 -0.8 3.4 -4.8 3.3 l-4.2 0 3.5 -1.2z"/>
  <path d="M116.7 48.3 c-0.4 -3.2 -1 -7.9 -1.3 -10.5 l-0.7 -4.8 3.6 0 c3 0 3.7 0.4 4.6 3.1 0.6 1.8 1.1 6.5 1.1 10.5 l0 7.4 -3.4 0 c-3.3 0 -3.3 0 -3.9 -5.7z"/>
 </g>
 <g fill="#6b483e">
  <path d="M108.7 180.4 c-1.2 -1.2 0.4 -2.4 3.3 -2.4 1.5 0 3 0.7 3.4 1.5 0.4 1.1 -0.2 1.5 -2.8 1.5 -1.8 0 -3.6 -0.3 -3.9 -0.6z"/>
  <path d="M98 179.3 c-8.5 -0.5 -14 -2.2 -14 -4.4 0 -2.4 1.1 -2.4 4.4 0.2 1.5 1.2 2.6 1.6 2.6 0.8 0 -1.4 7.9 -0.6 8.9 0.9 0.3 0.5 2 1.4 3.6 2 1.7 0.6 2.3 1 1.5 0.9 -0.8 0 -4 -0.2 -7 -0.4z"/>
  <path d="M126 179.1 c0 -1.5 6.2 -3.3 7.4 -2.1 1.3 1.3 0.8 1.6 -3.6 2.4 -2.2 0.4 -3.8 0.3 -3.8 -0.3z"/>
  <path d="M145.3 175.3 c-0.7 -0.2 -1.3 -1.6 -1.3 -3 0 -2.6 0 -2.6 -6.4 -1.9 -3.5 0.3 -7.7 1 -9.3 1.5 -4.2 1.4 -16.3 2.3 -16.3 1.3 0 -0.5 3 -1.2 6.8 -1.5 15.5 -1.3 27.3 -5.8 25.9 -10 -0.7 -2.2 -8.3 -1.9 -16.1 0.7 -9.9 3.4 -16.7 3.4 -22.1 0.1 -2.2 -1.4 -5.4 -2.5 -7.1 -2.5 -5.1 0 -9.2 -1.1 -9.8 -2.6 -0.5 -1.2 0.3 -1.3 4.4 -0.8 2.7 0.4 5.7 0.4 6.6 0 1.5 -0.6 1.5 -0.9 -0.6 -3.1 -1.7 -1.8 -1.9 -2.5 -0.9 -2.5 0.8 0 2.1 0.6 2.8 1.3 1 1 1.5 0.8 2.6 -0.6 1.1 -1.6 1.3 -1.5 1.9 1.5 0.4 2.3 1.7 4 4.3 5.7 4.1 2.6 5.9 2.5 18.2 -0.9 4.1 -1.1 9.2 -2 11.3 -2 3.3 0 3.8 -0.3 3.8 -2.4 0 -2.1 0.6 -2.4 7.3 -3.4 13.2 -2 16.7 -2.2 18.7 -0.9 2.4 1.4 2.6 2.7 0.5 2.7 -0.9 0 -1.5 0.9 -1.5 2.3 0 1.2 -0.3 3.9 -0.6 6 -0.6 3.3 -0.4 3.7 1.5 3.7 3.6 0 2.4 2.9 -1.4 3.5 -1.9 0.3 -5.1 0.8 -7.1 1.1 -4.1 0.6 -5.4 -0.5 -5.4 -4.7 0 -2.1 0.6 -2.8 2.8 -3.4 5.3 -1.3 8.4 -6.7 4.7 -8.2 -1.4 -0.5 -13.3 1.4 -14.4 2.4 -0.3 0.2 0.4 1 1.5 1.8 1.3 1 1.4 1.4 0.5 1.5 -1.1 0 -1.2 1.4 -0.6 6.8 0.4 3.7 1.2 7 1.9 7.5 0.8 0.5 0.5 1.2 -0.8 2.2 -2 1.5 -4 1.8 -6.3 0.8z m18.7 -11.5 c0 -1 -3.4 -1 -4.3 -0.1 -0.4 0.3 0.1 1.2 1.1 1.9 1.6 1.2 3.1 0.3 3.2 -1.8z"/>
  <path d="M92.7 173 c-2.7 -0.5 -9.4 -3.2 -15 -6.1 -5.6 -2.9 -12.7 -6 -15.7 -7 -3 -1 -4.7 -1.8 -3.7 -1.8 0.9 -0.1 1.7 -0.5 1.7 -1 0 -0.8 9 1.2 11.1 2.4 0.6 0.4 1.9 -0.1 3.1 -1.1 2 -1.9 2 -1.9 1.8 1.1 -0.1 1.7 -0.2 3.5 -0.1 4.1 0.2 1.8 22.1 8.4 27.8 8.4 0.2 0 0.3 0.5 0.3 1 0 1.1 -4.3 1.1 -11.3 0z"/>
  <path d="M52 169.5 c0 -2.8 0.3 -2.9 2.9 -1.6 2.5 1.4 5.8 0.3 6.4 -2.1 0.4 -1.5 1.1 -1.8 2.9 -1.3 2.2 0.6 2.2 0.6 0.4 -0.9 -2.3 -1.9 -2 -2 2.3 -0.5 4.3 1.5 4.4 4.9 0.1 4.9 -2 0 -3 0.5 -3 1.5 0 2.1 -2.7 3 -4.4 1.5 -1.1 -0.8 -2 -0.8 -3.5 -0.1 -3.1 1.7 -4.1 1.3 -4.1 -1.4z"/>
  <path d="M74 170.3 c-1.4 -0.9 -2.6 -1.7 -2.8 -1.8 -0.1 -0.1 0 -0.9 0.4 -1.8 0.5 -1.4 1 -1.3 3.9 0.6 1.8 1.1 3.1 2.7 2.8 3.4 -0.7 1.7 -1.4 1.6 -4.3 -0.4z"/>
  <path d="M43.3 169 c-2.8 -1.2 -3.8 -4.9 -2.5 -9.7 l1 -3.8 0.1 5 c0.1 5.5 0.6 6.6 3.6 8.3 2.4 1.3 1 1.5 -2.2 0.2z"/>
  <path d="M43.1 152.3 c0 -1.6 0.3 -2.2 0.6 -1.5 0.2 0.6 1.1 1.2 1.9 1.2 1.9 0 1.8 1.6 -0.2 2.4 -2.3 0.9 -2.4 0.8 -2.3 -2.1z"/>
  <path d="M119 148.5 c0 -3.3 0.2 -3.5 3.5 -3.5 3.3 0 3.5 0.2 3.5 3.5 0 3.3 -0.2 3.5 -3.5 3.5 -3.3 0 -3.5 -0.2 -3.5 -3.5z"/>
  <path d="M105.5 144 c-0.4 -0.6 -1.5 -0.8 -2.6 -0.5 -1.7 0.6 -1.8 0.3 -1 -1.8 1.1 -2.8 0.6 -3.8 -1.5 -3 -0.8 0.3 -1.4 0 -1.4 -0.6 0 -0.6 -0.7 -0.8 -1.7 -0.4 -1 0.4 -1.4 0.2 -1 -0.4 0.9 -1.4 -2.5 -1.2 -3.5 0.2 -0.4 0.6 -0.8 0 -0.8 -1.2 0 -1.3 -0.6 -2.3 -1.4 -2.3 -0.8 0 -1.7 -0.8 -2.1 -1.7 -0.6 -1.7 -0.7 -1.7 -1.6 0 -0.6 0.9 -1.5 1.7 -2.1 1.7 -0.7 0 -0.6 -0.5 0.2 -1.5 0.7 -0.8 0.9 -1.5 0.4 -1.5 -0.5 0 0 -0.7 1.1 -1.6 1.7 -1.3 1.8 -1.6 0.5 -2.4 -1 -0.6 -1.6 -0.6 -1.9 0.1 -0.1 0.6 -1.4 2.1 -2.7 3.4 -1.9 1.9 -2.5 2.1 -3.5 0.9 -1.3 -1.6 0.4 -4.4 2.7 -4.4 1.7 0 1.7 -0.1 0 -3.5 -0.8 -1.5 -1.7 -2.2 -2.1 -1.6 -0.3 0.6 -0.3 1.7 0 2.4 0.4 0.6 0 0.4 -0.8 -0.5 -0.8 -1 -2.2 -1.5 -3.4 -1.2 -1.1 0.3 -2.4 0 -2.8 -0.7 -0.5 -0.8 -0.4 -1 0.4 -0.5 1.8 1.2 4.4 -1.4 3.1 -3 -0.9 -1 -1.9 -0.9 -5.3 0.6 -6.3 2.9 -8.2 0.7 -2.2 -2.6 3.7 -2 3.9 -2.4 2.9 -7.2 -0.4 -2 -1.1 -2.9 -2 -2.5 -1 0.4 -1.1 0 -0.1 -2.1 1.2 -2.6 2.7 -3.5 2.7 -1.6 0 0.6 1.1 0.3 2.4 -0.7 2.8 -2.1 2.5 -3.1 -3.3 -10.3 -1.9 -2.5 -3.7 -4.7 -3.9 -5 -0.2 -0.3 -1 0.4 -1.7 1.4 -1.7 2.2 -0.9 4.2 1 2.6 0.9 -0.7 1.6 -0.6 2.5 0.5 1.1 1.3 0.9 1.5 -1.3 1.5 -1.4 0 -2.9 -0.4 -3.2 -1 -0.3 -0.5 -1.2 -1 -1.9 -1 -2.5 0 -0.4 4.9 3 7.1 2.7 1.6 3.1 2.3 2.2 3.3 -0.7 0.7 -2.1 1.1 -3.2 0.8 -1.7 -0.4 -1.8 -0.1 -1.2 2.4 0.4 1.6 1.3 3.2 1.9 3.6 0.8 0.5 0.6 0.8 -0.6 0.8 -1.2 0 -2 -1 -2.4 -3 -0.7 -3.7 -2.9 -3.4 -2.5 0.2 0.3 2.1 -0.2 2.7 -2.5 3.3 l-2.8 0.7 2.8 2.3 c1.5 1.3 2.7 3.1 2.7 3.9 0 0.8 0.4 1.8 1 2.1 0.8 0.5 5 9 5 10.2 0 0.2 -1.1 -0.4 -2.5 -1.3 -1.6 -1 -3.4 -1.4 -5.3 -0.9 -3.5 0.7 -10.3 -2.1 -9.5 -4 0.3 -1 1.1 -1 3.2 -0.2 3 1.1 10.5 0.1 9.6 -1.3 -0.3 -0.5 -2 -0.8 -3.7 -0.8 -1.8 0.1 -3.4 -0.4 -3.6 -1 -0.2 -0.7 -1.1 -1.2 -2.1 -1.2 -1.4 0 -1.7 -1.1 -1.8 -7 -0.1 -5.1 0.2 -7 1.2 -7 0.9 0 1.1 -1.3 0.7 -4.7 -0.3 -2.7 -0.9 -4.9 -1.3 -5.1 -0.5 -0.2 -0.9 -1 -0.9 -1.7 0 -1.6 4.4 -2.8 7.1 -2 1.2 0.4 1.9 0.2 1.9 -0.8 0 -4.4 10.7 -4.6 13.6 -0.2 1.5 2.3 2.1 2.4 8.5 2 l6.9 -0.4 0 3.4 c0 1.9 0.5 3.5 1.1 3.5 0.8 0 1 1.5 0.7 4.5 -0.3 2.5 -0.2 4.8 0.3 5.1 0.5 0.3 0.9 -0.6 0.9 -2 0 -1.6 0.6 -2.6 1.4 -2.6 1 0 1.7 -1.6 2.2 -4.5 0.3 -2.5 1 -4.5 1.5 -4.5 0.5 0 0.9 -1.6 0.9 -3.5 0 -3.3 0.2 -3.5 3.5 -3.5 3.4 0 4.7 1.3 2.3 2.3 -1 0.4 -1 0.6 0 0.6 1.2 0.1 1.8 4.1 0.6 4.1 -0.3 0 -1.4 -1 -2.4 -2.2 l-1.9 -2.3 0.2 2.3 c0.1 1.2 0.8 2.2 1.7 2.3 1 0 1.1 0.2 0.3 0.6 -0.7 0.2 -1.3 1.6 -1.3 3 0 1.3 -0.7 3.1 -1.6 4 -0.8 0.9 -1.4 2.5 -1.2 3.7 0.4 2.7 3.4 2.8 3.1 0.1 -0.2 -1.1 0.2 -3.9 0.8 -6.3 1 -3.5 1.5 -4.1 3 -3.7 1.4 0.5 1.7 0.2 1.3 -0.9 -0.5 -1.3 0.1 -1.6 3 -1.6 l3.7 0 -0.3 5.3 c-0.3 5.1 -0.4 5.2 -3.7 5.5 -2 0.2 -3.8 -0.2 -4.3 -1 -0.7 -0.9 -0.8 -0.8 -0.4 0.5 0.3 1 0.6 2.7 0.6 3.8 0 1.2 0.7 1.9 2 1.9 1.6 0 2 0.7 2 3.5 0 2.4 -0.5 3.5 -1.5 3.5 -1.1 0 -1.5 1.2 -1.5 4.6 0 3.3 -0.5 5.1 -1.7 6 -1.7 1.3 -1.7 1.4 0 0.8 1.3 -0.5 1.7 -0.1 1.7 2 0 2.4 -0.3 2.6 -4.7 2.7 -2.9 0.1 -3.7 0.4 -2.1 0.6 1.5 0.2 4.1 2 5.8 3.9 1.6 1.9 3.5 3.2 4 2.9 0.6 -0.3 0.1 -1.6 -1.1 -2.8 l-2 -2.2 2.6 -0.3 c1.7 -0.2 3.2 0.3 4.1 1.5 1.2 1.7 1.3 1.7 1.4 0.1 0 -1.4 0.9 -1.8 4 -1.8 2.2 0 4 -0.4 4 -1 0 -1.4 4.3 -1.3 5.8 0.2 1.5 1.5 1.6 5.8 0.1 5.8 -1.4 0 -3.9 2.5 -3.9 3.9 0 0.6 -1.6 1.1 -3.5 1.1 -2.3 0 -3.5 -0.5 -3.5 -1.3 0 -0.9 -1.2 -1.4 -3 -1.5 -1.7 0 -2.8 0.4 -2.5 0.9 0.4 0.5 1.3 0.9 2.1 0.9 0.8 0 1.2 0.5 0.9 1 -0.8 1.3 -7.2 1.3 -8 0z m18.5 -7.7 c0 -0.2 -1 0.3 -2.1 1.1 -1.2 0.8 -2.9 1.2 -3.8 0.9 -1.2 -0.4 -1.2 -0.1 0.3 1.1 1.8 1.4 2.1 1.4 3.8 -0.6 1 -1.1 1.8 -2.3 1.8 -2.5z m-28 -17.9 c0 -2.7 1.9 -5.3 3.5 -4.7 0.6 0.1 1.5 -0.9 2.2 -2.3 1.1 -2.3 1 -2.5 -0.5 -1.8 -0.9 0.5 -3.6 0.8 -6 0.7 l-4.4 -0.1 0.7 5.2 c0.7 4.9 2 7 3.7 6 0.4 -0.3 0.8 -1.6 0.8 -3z m-16.8 -1.9 c0.4 -1.6 0.1 -2.5 -0.8 -2.5 -1.7 0 -2.7 1.7 -2 3.5 0.8 2.3 2.3 1.8 2.8 -1z m-20.2 0.5 c0 -0.5 -0.9 -1 -2.1 -1 -1.1 0 -1.7 0.5 -1.4 1 0.3 0.6 1.3 1 2.1 1 0.8 0 1.4 -0.4 1.4 -1z m28 0.2 c0 -1.4 -3.6 -4.3 -4.3 -3.5 -0.4 0.3 0 1.5 1 2.5 1.7 1.9 3.3 2.4 3.3 1z m-12.7 -6.2 c-0.4 -1.5 0 -2 1.5 -2 1.2 0 2.4 -0.5 2.8 -1.1 0.4 -0.7 -0.2 -1 -1.7 -0.8 -1.3 0.2 -3 0 -3.6 -0.4 -1.4 -0.9 -1.6 0.5 -0.7 4.1 0.4 1.2 1 2.2 1.4 2.2 0.5 0 0.6 -0.9 0.3 -2z m12.7 -7.5 c0 -0.8 -0.4 -1.5 -1 -1.5 -0.5 0 -1 0.7 -1 1.5 0 0.8 0.5 1.5 1 1.5 0.6 0 1 -0.7 1 -1.5z m-3 -2.5 c1.4 -2.6 0.6 -4 -2 -3.3 -2.1 0.6 -2.4 1.2 -1.4 3.7 0.8 2.2 2.1 2 3.4 -0.4z m-26 -2.6 c0 -1.4 -0.4 -2.3 -1 -1.9 -0.5 0.3 -1 1.5 -1 2.6 0 1 0.5 1.9 1 1.9 0.6 0 1 -1.2 1 -2.6z"/>
  <path d="M75.5 141.3 c-1.1 -0.2 -2.9 -0.8 -4 -1.3 -1.1 -0.5 -3.8 -1.4 -5.9 -2.1 -4.6 -1.4 -10.9 -4.9 -10.2 -5.7 0.3 -0.3 1.2 0 1.9 0.7 1.7 1.3 10.9 4.2 11.6 3.6 0.9 -1 -11.1 -5.7 -13.2 -5.2 -1.2 0.3 -3.8 -0.3 -5.7 -1.3 l-3.5 -1.8 6.5 0.5 c9.3 0.7 13.6 2 17.3 5.2 1.7 1.6 4.7 3.6 6.5 4.5 1.8 0.9 3 2.1 2.7 2.6 -0.6 1 -0.7 1 -4 0.3z"/>
  <path d="M112 127.5 c0 -2.1 -0.5 -2.5 -3 -2.5 -2.8 0 -3 -0.3 -3 -3.5 0 -3.2 0.2 -3.5 3 -3.5 1.7 0 3 0.5 3 1.3 0 1.3 4.5 3.7 7.1 3.7 1.3 0 1.7 0.9 1.7 3.5 0 3.5 0 3.5 -4.4 3.5 -4 0 -4.4 -0.2 -4.4 -2.5z"/>
  <path d="M120.3 117.5 c0.6 -1.9 1.6 -3.5 2.4 -3.5 0.8 0 1.3 1.3 1.3 3.5 0 3 -0.3 3.5 -2.4 3.5 -2.3 0 -2.4 -0.2 -1.3 -3.5z"/>
  <path d="M120.2 104.9 c-0.9 -3.5 -0.8 -4.1 0.9 -5.2 1 -0.6 1.9 -2.2 1.9 -3.4 0 -3.4 1.9 -2.8 3.6 1.2 2.7 6.4 1.2 11.5 -3.4 11.5 -1.4 0 -2.2 -1.1 -3 -4.1z"/>
  <path d="M78.6 87.5 c0.4 -0.9 -0.3 -1.6 -2 -2.1 -2.2 -0.5 -2.6 -1.2 -2.6 -4.5 0 -3.2 0.4 -3.9 1.9 -3.9 1.2 0 2.1 0.8 2.4 2.3 l0.4 2.2 0.2 -2.2 c0.1 -2.6 1.9 -3.1 2.7 -0.8 1 2.6 -0.6 10.5 -2.1 10.5 -0.9 0 -1.2 -0.6 -0.9 -1.5z"/>
  <path d="M30.8 74.4 c-0.2 -6.4 0 -11.8 0.5 -12.1 0.4 -0.2 0.7 0.4 0.7 1.4 0.1 1.7 0.2 1.6 1.6 -0.2 1.5 -1.9 1.5 -1.8 1 1.5 -0.3 1.9 -1 7.4 -1.7 12.3 -0.6 4.8 -1.3 8.7 -1.4 8.7 -0.2 0 -0.5 -5.2 -0.7 -11.6z"/>
  <path d="M68.2 79 c1.8 -2.7 3.6 -5 4.1 -5 0.4 0 0.7 1.6 0.7 3.5 0 1.9 -0.4 3.5 -1 3.5 -0.5 0 -1 0.7 -1 1.5 0 1 -1 1.5 -3 1.5 l-3 0 3.2 -5z"/>
  <path d="M83 81.5 c0 -0.8 0.7 -1.5 1.5 -1.5 0.8 0 1.5 -0.5 1.5 -1.1 0 -0.6 -0.7 -0.9 -1.5 -0.5 -0.9 0.3 -1.5 0 -1.5 -0.9 0 -1 1.1 -1.5 3.5 -1.5 3.3 0 3.5 0.2 3.5 3.5 0 3.3 -0.2 3.5 -3.5 3.5 -2.4 0 -3.5 -0.5 -3.5 -1.5z"/>
  <path d="M93 68.6 c0 -1.3 2.8 -2.6 5.8 -2.6 0.6 0 1.2 0.9 1.2 2 0 1.6 -0.7 2 -3.5 2 -2.3 0 -3.5 -0.5 -3.5 -1.4z"/>
  <path d="M112 67.6 c0 -0.9 0.6 -1.6 1.3 -1.6 0.7 0 2.2 -0.6 3.2 -1.4 1.6 -1.2 1.7 -1.8 0.8 -3.9 -1.2 -2.5 -1.7 -2.6 -9.5 -2.9 -7.6 -0.3 -8.1 -0.4 -5.5 -1.5 2.3 -1.1 2.6 -1.6 1.7 -3.2 -0.5 -1.1 -1.9 -2.3 -3 -2.6 -3.1 -1 -3.7 -5.2 -1.1 -7.9 2.6 -2.8 2.7 -5.1 0.1 -8.3 -1.1 -1.4 -2 -3.7 -2 -5 0 -2.4 4 -7.3 6 -7.3 1.7 0 1.1 -3.8 -0.7 -4.9 -2.3 -1.3 -0.8 -1.4 3.9 -0.1 4.1 1.2 6.8 4.2 6.8 7.7 0 1.6 0.7 2.2 2.7 2.5 3.2 0.4 6.2 5.3 6.3 10.5 0 4 -1.7 5.2 -2.9 2.1 l-1 -2.3 0 2.3 c-0.1 3.5 -3.8 2.9 -4.6 -0.7 -0.9 -4.3 -2.9 -5.6 -4.3 -2.8 -3.1 6.1 -3.3 7.8 -1.2 11.4 1.1 1.9 2 4.1 2 4.9 0 0.9 1.1 1.4 3 1.4 2.7 0 3 -0.3 3 -3 0 -3.3 2.5 -4.3 3.3 -1.2 0.4 1.6 0.5 1.6 0.6 0 0 -1 0.8 -1.8 1.6 -1.8 1 0 1.5 1.1 1.5 3.5 0 2.9 -0.4 3.5 -2.2 3.5 -2.1 0 -2.1 0.1 -0.3 1.3 1.4 1.1 1.7 2.3 1.3 6.1 -0.3 2.6 -0.8 5 -1.1 5.3 -0.3 0.3 -2.6 0.8 -5.2 1 -3.7 0.5 -4.5 0.3 -4.5 -1.1z"/>
  <path d="M126 66 c0 -2.5 0.5 -3 3.8 -3.9 2 -0.6 4.9 -1.1 6.5 -1.1 3.9 0 3.5 2.7 -0.5 3.5 -1.8 0.4 -4.8 1.5 -6.5 2.6 l-3.3 1.8 0 -2.9z"/>
  <path d="M127 48.5 c0 -3.3 0.2 -3.5 3.5 -3.5 3.3 0 3.5 0.2 3.5 3.5 0 3.3 -0.2 3.5 -3.5 3.5 -3.3 0 -3.5 -0.2 -3.5 -3.5z"/>
 </g>
 <g fill="#5e3c2f">
  <path d="M87 177.6 c-5.4 -1.7 -12 -6.6 -12 -8.8 0 -1.9 0.1 -1.8 3.3 0.3 4.2 3 4.6 3.4 2.2 2.5 -1.9 -0.7 -1.9 -0.6 -0.2 1.1 1.4 1.4 1.9 1.5 2.6 0.5 0.6 -1 1.5 -0.7 3.8 1.2 3.1 2.6 5.3 3.3 5.3 1.8 0 -1.3 5.8 -0.1 7.1 1.4 1 1.2 0.3 1.4 -3.7 1.3 -2.7 -0.1 -6.5 -0.6 -8.4 -1.3z"/>
  <path d="M146 173.3 c0 -1.6 0.6 -3.5 1.3 -4.2 1 -1.1 0.9 -1.3 -0.6 -0.7 -1 0.3 -4.4 0.8 -7.5 1.1 l-5.7 0.5 4.9 -1.6 c4.3 -1.3 8.5 -4.6 8.6 -6.5 0 -0.4 -1.4 -1.2 -3.1 -1.9 -2.6 -1.1 -4.2 -1 -11.7 1 -17.1 4.5 -18.6 4.5 -23.5 1.5 -4.8 -3.1 -6.9 -6.4 -5.5 -8.9 1.4 -2.4 4.1 -1.9 8.3 1.4 5.2 4.1 7.2 4.5 15.4 2.6 3.8 -0.9 9 -1.6 11.5 -1.6 4.2 0 4.6 -0.2 4.6 -2.4 0 -2.1 0.7 -2.6 5.3 -3.6 9.2 -2 17.4 -2.4 20.7 -1 2.6 1.1 3 1.8 3 4.9 0 4.7 -3.3 8.1 -7.8 8.1 -1.8 0 -3.2 -0.2 -3.2 -0.5 0 -0.2 1.2 -1.6 2.6 -3 2.9 -2.9 2.8 -5.8 0 -6.3 -1.1 -0.3 -5.3 0.2 -9.4 0.8 -5.8 1 -7 1.5 -5.5 2.3 3.4 1.8 4.3 4 4.3 10.6 0 7.6 -0.5 8.7 -4.3 9.6 -2.5 0.7 -2.7 0.5 -2.7 -2.2z"/>
  <path d="M92 172.6 c-6.1 -1.3 -15 -5.3 -15 -6.7 0 -0.5 2.8 0.2 6.3 1.5 3.4 1.2 8.6 2.9 11.5 3.6 2.8 0.6 5.5 1.6 5.8 2.1 0.7 1.2 -1.7 1 -8.6 -0.5z"/>
  <path d="M105 173 c0 -0.5 1.8 -1 4 -1 2.2 0 4 0.5 4 1 0 0.6 -1.8 1 -4 1 -2.2 0 -4 -0.4 -4 -1z"/>
  <path d="M122.5 172 c1.1 -0.5 2.9 -0.9 4 -0.9 l2 0 -2 0.9 c-1.1 0.5 -2.9 0.9 -4 0.9 l-2 0 2 -0.9z"/>
  <path d="M60.9 170.8 c-0.5 -5.4 0.9 -7.2 4.4 -5.9 3.5 1.4 3.4 0.6 0 -1.4 -2.6 -1.4 -2.6 -1.5 -0.4 -0.9 6 1.6 9.1 3.5 9.1 5.4 0 1.8 -0.3 1.9 -2.1 1 -1.5 -0.8 -2.4 -0.8 -3.3 -0.1 -0.8 0.6 -2 0.9 -2.8 0.6 -0.9 -0.4 -1.8 0.1 -2.1 0.9 -0.8 1.9 -2.7 2.1 -2.8 0.4z"/>
  <path d="M48.8 170.3 c0.6 -0.2 1.2 -1.1 1.2 -1.9 0 -0.8 0.9 -1.4 2 -1.4 1.3 0 2 0.7 2 2 0 1.6 -0.6 2 -3.2 1.9 -1.8 0 -2.7 -0.3 -2 -0.6z"/>
  <path d="M42.4 168.2 c-1.8 -1.1 -2.4 -4.5 -1.5 -7.7 0.9 -2.9 0.9 -2.9 1 1.2 0.1 2.3 0.8 4.8 1.7 5.7 1.6 1.6 0.8 2.2 -1.2 0.8z"/>
  <path d="M69.7 162.9 c-2 -1.1 -7.9 -3.1 -13 -4.4 -5 -1.4 -10.2 -2.7 -11.4 -3.1 -1.3 -0.3 -2.3 -1.4 -2.3 -2.4 0 -1.5 0.5 -1.6 4.3 -0.7 6.9 1.6 17.3 5 21.8 7.2 2.3 1.1 2.9 1 4.3 -0.3 1.5 -1.5 1.6 -1.3 1.6 2.1 0 4.2 -0.2 4.3 -5.3 1.6z"/>
  <path d="M72.3 140 c-1.3 -0.5 -2.3 -1.6 -2.3 -2.4 0 -1.9 -8.1 -5.7 -13.6 -6.4 -2.4 -0.2 -4.4 -0.9 -4.4 -1.4 0 -0.5 2.3 -0.6 5.3 -0.3 5.5 0.7 12.7 3.3 12.7 4.6 0 0.5 1.8 1.8 4 2.9 6 3.1 4.6 5.5 -1.7 3z"/>
  <path d="M54.3 125.5 c-0.7 -2 -0.6 -2.1 4.5 -3 3.8 -0.6 4.2 -0.5 4.2 1.4 0 1.8 -0.4 2 -2.5 1.5 -1.5 -0.4 -2.5 -0.2 -2.5 0.5 0 1.7 -3 1.3 -3.7 -0.4z"/>
  <path d="M94.3 126.3 c-1.8 -0.2 -3.3 -0.9 -3.3 -1.6 0 -0.8 -0.3 -0.8 -1.2 0.1 -1.8 1.8 -2.8 1.5 -2.8 -0.8 0 -1.1 -0.4 -2 -1 -2 -0.5 0 -0.6 0.8 -0.3 1.8 0.7 1.6 0.6 1.6 -1.1 0 -1 -1.1 -1.6 -2.9 -1.4 -4.5 l0.3 -2.8 2.3 2.3 c1.2 1.2 2.4 2.2 2.7 2.2 0.9 0 0.5 -2.5 -0.9 -5.2 -1 -1.8 -1.1 -2.8 -0.3 -3.1 0.6 -0.2 0.7 -0.9 0.3 -1.5 -0.5 -0.9 -1.1 -0.8 -2.2 0.3 -2.2 2.2 -3.1 1.9 -3.1 -1.1 0 -2.5 0.1 -2.6 4.4 -2.1 3.5 0.4 5.4 1.3 8.4 4.3 2.1 2.1 3.9 4.4 3.9 5 0 0.7 0.9 1.6 2 1.9 2.5 0.8 3 7.5 0.6 7.5 -0.8 0 -1.8 -0.4 -2.1 -1 -0.3 -0.6 0.1 -0.7 0.9 -0.4 1.1 0.4 1.6 0 1.6 -1 0 -1.9 -0.5 -2 -3.1 -0.5 -1.1 0.5 -1.7 1.4 -1.4 2 0.4 0.5 0.5 0.8 0.3 0.7 -0.2 0 -1.8 -0.3 -3.5 -0.5z"/>
  <path d="M54.7 119.3 c-1.1 -1 -0.8 -4.3 0.3 -4.3 0.6 0 0.9 0.4 0.8 0.9 -0.2 0.5 0.6 1.7 1.7 2.5 2 1.5 2 1.5 -0.1 1.6 -1.1 0 -2.4 -0.3 -2.7 -0.7z"/>
  <path d="M69.6 117.1 c-0.4 -0.5 0.3 -1.3 1.5 -1.6 1.2 -0.4 1.8 -1.2 1.5 -2 -0.3 -0.9 0 -1.2 1 -0.8 2.3 0.8 1.3 4.7 -1.3 5.1 -1.1 0.2 -2.4 -0.1 -2.7 -0.7z"/>
  <path d="M51.6 110.4 c-1.4 -3.7 -0.7 -5.4 2.4 -5.4 3.3 0 5.2 2.6 2.9 4 -1.4 1 -3.2 0.3 -2.5 -0.9 0.3 -0.4 -0.1 -0.8 -0.9 -0.8 -1.9 0 -1.9 0.6 0.2 2.9 1.4 1.6 1.4 1.8 0.1 1.8 -0.9 0 -1.9 -0.7 -2.2 -1.6z"/>
  <path d="M52.2 99.1 c0.4 -4.3 0.3 -4.8 -1.4 -4.3 -1.8 0.4 -4.8 -1.3 -4.8 -2.9 0 -0.5 1.7 -0.9 3.8 -0.9 2 0 5.5 -0.9 7.7 -1.9 4.2 -1.9 10.8 -8.5 12.7 -12.6 0.6 -1.4 2.2 -3.2 3.5 -4 2.2 -1.5 2.3 -1.5 2.3 1.6 0 2.2 -0.5 3.2 -2 3.6 -1.3 0.3 -2 1.4 -2 2.9 0 1.3 -0.4 2.4 -0.9 2.4 -0.5 0 -1.1 0.9 -1.4 1.9 -0.2 1.1 -1.7 2.2 -3.4 2.5 -3.6 0.8 -5.9 4.9 -6.8 11.9 -0.6 4.6 -0.7 4.7 -4.2 4.7 l-3.6 0 0.5 -4.9z m6.8 -0.7 c0 -1.7 -1.3 -2.4 -2.8 -1.5 -0.6 0.4 -0.9 1.7 -0.5 2.9 0.4 1.8 0.8 2 1.9 1.1 0.8 -0.6 1.4 -1.7 1.4 -2.5z"/>
  <path d="M31.1 75.4 c-0.1 -7.5 0.2 -9.3 1.5 -9.8 1.3 -0.5 1.5 0.2 0.9 5.2 -1.6 12.9 -2.3 14.2 -2.4 4.6z"/>
  <path d="M94 68.6 c0 -1.8 3.2 -2.6 11.3 -2.6 6 0 6.7 0.2 6.7 2 0 1.9 -0.7 2 -9 2 -7 0 -9 -0.3 -9 -1.4z"/>
  <path d="M113 67.6 c0 -0.8 1.4 -1.7 3 -2.1 1.7 -0.4 3 -1 3 -1.5 0 -0.5 0.3 -1.6 0.6 -2.4 0.8 -2 -4.9 -4.6 -10.2 -4.6 -2.9 0 -3.4 -0.3 -2.6 -1.3 0.8 -0.9 0.4 -2.7 -1.5 -6.4 -2.5 -5.2 -2.5 -5.2 -0.7 -10 1 -2.6 2.5 -5.9 3.4 -7.3 2.8 -4.2 2.9 -6.6 0.4 -11 l-2.4 -4.1 2.3 0.7 c3.3 1 3.9 1.5 8.5 6.5 5.4 5.9 7.3 11.2 7.9 22.4 0.6 10 1.5 11.8 6.9 13.5 3.8 1.3 4.9 5 1.5 5 -1 0 -3 0.9 -4.4 2 -3.2 2.5 -15.7 3 -15.7 0.6z m6.4 -30.2 c-0.9 -3 -2.3 -5.9 -3 -6.5 -1.5 -1.2 -1.9 0.1 -0.5 1.7 1.6 1.7 4.1 10.7 4.3 15.3 l0.2 4.6 0.3 -4.9 c0.3 -2.8 -0.3 -7.1 -1.3 -10.2z"/>
 </g>
 <g fill="#4d362c">
  <path d="M109.7 180.4 c-0.9 -0.9 0.2 -2.4 1.7 -2.4 0.7 0 2.1 0.7 3.2 1.5 1.8 1.4 1.7 1.4 -1.2 1.5 -1.7 0 -3.4 -0.3 -3.7 -0.6z"/>
  <path d="M126 179 c0 -1.3 6.3 -2.9 7.4 -1.9 1.3 1.2 0.7 1.5 -3.6 2.2 -2.1 0.3 -3.8 0.2 -3.8 -0.3z"/>
  <path d="M87 177.6 c-1.9 -0.6 -5.5 -2.5 -8 -4.2 -7.6 -5.3 -8.9 -5.8 -10.8 -4.1 -0.9 0.8 -2.9 1.7 -4.4 2.1 -2.6 0.6 -2.8 0.4 -2.8 -2.7 0 -1.9 0.3 -3.6 0.6 -4 0.3 -0.3 2.4 0.1 4.6 0.9 4.9 1.7 6.1 1.2 2.1 -1 -3.6 -1.9 -2.6 -2 1.8 -0.1 4.9 2 8.4 4.8 8.4 6.4 0 2.3 12.4 7.2 16.6 6.5 2.2 -0.3 4 -0.1 4.4 0.5 0.8 1.5 -7.9 1.3 -12.5 -0.3z"/>
  <path d="M148.2 172.5 c1.1 -2 1.8 -3.9 1.4 -4.2 -0.3 -0.4 -2.9 -0.1 -5.7 0.5 -8.7 2.1 -9.7 1.2 -1.6 -1.4 4.5 -1.5 7.7 -3 7.7 -3.8 0 -4 -9.2 -5.6 -19.3 -3.2 -11.9 2.8 -16.8 2.2 -22.9 -3 -1.5 -1.2 -3.2 -2.4 -3.8 -2.6 -0.7 -0.2 -0.2 -1.9 1.2 -4.5 1.9 -3.5 2 -4.3 0.9 -5.7 -0.9 -1 -2.1 -1.4 -3.3 -1 -1.9 0.6 -1.9 0.5 -0.3 -2 1.7 -2.6 1.7 -2.6 -1.7 -4 -1.9 -0.8 -4.7 -1.3 -6.2 -1.2 -2.6 0.3 -2.8 0.2 -2.2 -2.8 0.5 -2.8 0.4 -2.9 -0.8 -1.3 -1.2 1.5 -1.5 1.5 -2.6 0.2 -0.7 -0.8 -1.6 -1.3 -1.9 -1 -0.4 0.2 -0.8 -0.2 -0.8 -1 0 -0.8 0.4 -1.5 0.9 -1.5 2.1 0 0.4 -2.1 -2.7 -3.4 -1.9 -0.8 -3.5 -2.2 -3.5 -3 0 -0.9 -0.4 -1.6 -1 -1.6 -0.5 0 -1 0.3 -1 0.8 0 0.4 -1.1 0.8 -2.5 0.8 -1.4 0.1 -2.5 0 -2.5 -0.1 0 -0.2 1.7 -1.4 3.8 -2.6 2 -1.3 3.9 -2.7 4.3 -3.1 0.3 -0.4 2.2 0.8 4.2 2.7 3.6 3.4 6.6 4.2 10.1 2.9 1.4 -0.5 1.3 -0.9 -0.4 -3.1 -1.1 -1.4 -2 -3.9 -2 -5.4 0 -1.9 -0.5 -2.9 -1.5 -2.9 -2 0 -2 -4.6 -0.1 -9.2 0.8 -1.9 1.8 -5.8 2.2 -8.6 0.3 -2.9 1 -5.2 1.5 -5.2 0.5 0 0.9 -1.2 0.9 -2.7 0 -1.6 0.7 -3.6 1.5 -4.7 1.2 -1.6 2.2 -1.7 7.4 -1.1 l6.1 0.7 0 3.9 c0 2.1 -0.4 3.9 -0.9 3.9 -0.5 0 -1.1 0.9 -1.4 1.9 -0.3 1.3 0.1 2.1 1.4 2.4 1.4 0.4 1.9 0 1.9 -1.4 0 -1.4 0.7 -1.9 2.5 -1.9 2.2 0 2.5 -0.4 2.5 -3.5 0 -2.4 0.5 -3.5 1.5 -3.5 0.8 0 1.5 0.6 1.5 1.3 0 0.6 1.6 5 3.5 9.7 4.4 10.5 4.7 17.9 1.1 25.5 -1.2 2.8 -3 5.6 -4 6.4 -1.1 1 -1.3 1.7 -0.6 2.6 0.8 0.9 0.2 1.4 -2.1 1.9 -5.5 1.1 -8.9 0.7 -8.9 -0.9 0 -0.8 -0.4 -1.5 -1 -1.5 -1.5 0 -2.4 4.9 -1.2 7.3 0.8 1.6 1.1 1.7 1.1 0.6 0.1 -1.3 1.7 -1.7 8.3 -2.2 l8.1 -0.7 4.1 3.8 c2.3 2 7.1 5.1 10.8 6.7 6.7 3 8.4 4.9 5.1 5.8 -1 0.3 -0.1 0.5 2 0.6 2.8 0.1 3.7 -0.3 3.7 -1.5 0 -1.3 0.6 -1.5 3.3 -0.9 1.7 0.4 4.7 0.7 6.5 0.6 1.9 0 5.4 0.8 7.8 1.8 4 1.8 4.4 2.3 4.4 5.5 0 2.9 0.4 3.6 2 3.6 1.7 0 1.9 0.5 1.4 3.3 -0.9 4.5 -2.4 5.3 -11.9 6.7 -6.9 1 -8.5 1.5 -9.1 3.2 -0.5 1.8 -5.8 4.8 -8.3 4.8 -0.6 0 -0.1 -1.6 1.1 -3.5z m16.8 -7.4 c0 -1.1 -0.9 -2.1 -2.2 -2.5 -3 -0.7 -4.5 0.8 -2.8 2.9 1.8 2.1 5 1.9 5 -0.4z m-2.7 -5.5 c1.8 -0.7 4 -2.3 5.1 -3.4 1.6 -1.9 1.7 -2.4 0.5 -3.8 -1.4 -1.7 -6.5 -1.5 -17 0.7 l-5.1 1.1 2.8 1.4 c1.5 0.8 3.4 2.4 4.1 3.4 1.6 2.3 5.1 2.5 9.6 0.6z m-49.7 -18.1 c-1 -0.8 -2.3 -1.2 -2.9 -0.8 -1.1 0.7 1.2 2.3 3.3 2.3 1.2 -0.1 1.1 -0.4 -0.4 -1.5z m8.7 -1.8 c0.7 -0.6 1.9 -2.1 2.7 -3.1 1.5 -1.9 1.4 -1.9 -1.2 -0.2 -1.8 1.2 -3.5 1.5 -5 1.1 -2.3 -0.8 -2.3 -0.7 -0.4 1.4 2.2 2.5 2.4 2.5 3.9 0.8z m-12.3 -0.6 c0 -1.1 -5.8 -6.1 -7.1 -6.1 -0.6 0 0.3 1.6 1.8 3.5 2.6 3.3 5.3 4.6 5.3 2.6z m-5 -12.1 c0.8 -0.5 1 -1 0.4 -1 -0.7 0 -2.2 0.9 -3.5 2.1 -1.9 1.6 -2 1.8 -0.4 1 1.1 -0.6 2.7 -1.5 3.5 -2.1z m-4.5 -1 c-0.3 -0.6 0.1 -0.7 0.9 -0.4 1.1 0.4 1.6 0 1.6 -1 0 -0.9 -0.6 -1.6 -1.4 -1.6 -1.8 0 -3.8 2.5 -2.8 3.4 0.4 0.4 0.3 0.7 -0.3 0.6 -1.8 -0.4 -2.6 0 -2 1 0.4 0.7 1.3 0.7 2.6 0 1.1 -0.6 1.7 -1.5 1.4 -2z m20.2 -6.3 c1.7 -2.8 1.9 -4.2 1.2 -9.7 -0.5 -3.6 -1.3 -8 -1.8 -9.7 -0.8 -2.7 -0.7 -3.3 0.5 -3.3 0.9 0 1.4 -1 1.3 -2.7 -0.2 -2.4 -0.2 -2.5 -0.6 -0.5 -0.5 2.6 -1.8 2.9 -3.2 0.5 -0.7 -1.4 -1.1 -0.9 -2.1 2.7 -2.1 8.2 -3.2 11.1 -4.4 11.6 -0.8 0.3 -1 1.7 -0.6 4.2 1.1 5.9 2 7.9 4.3 9 3.2 1.5 3.3 1.5 5.4 -2.1z m-18.4 -2 c0.3 -0.8 -0.1 -1.4 -0.9 -1.4 -0.8 0 -1.4 0.6 -1.4 1.4 0 0.7 0.4 1.3 0.9 1.3 0.5 0 1.1 -0.6 1.4 -1.3z m5.7 -3.1 c0 -0.2 -0.7 -0.9 -1.5 -1.6 -1.2 -1 -1.5 -1 -1.5 0.4 0 0.9 0.7 1.6 1.5 1.6 0.8 0 1.5 -0.2 1.5 -0.4z m-5.3 -3.1 c1.2 -2.8 1 -3 -1.7 -1.5 -1.1 0.6 -1.7 1.7 -1.4 2.5 0.9 2.1 1.7 1.8 3.1 -1z m-0.9 -7.2 c0 -2.1 0.3 -5 0.7 -6.5 0.5 -1.8 0.3 -2.8 -0.4 -2.8 -0.6 0 -1.1 1.1 -1.1 2.4 0 1.3 -0.7 2.9 -1.5 3.6 -0.8 0.7 -1.5 2.1 -1.5 3.1 0 1.1 -0.7 1.9 -1.6 1.9 -2.7 0 -0.7 1.6 2.4 1.8 2.8 0.2 3 0 3 -3.5z m24.2 -1.5 c0 -0.6 -0.7 -0.5 -1.5 0.2 -0.8 0.7 -1.5 1.7 -1.5 2.2 0 0.6 0.7 0.5 1.5 -0.2 0.8 -0.7 1.5 -1.7 1.5 -2.2z m-23 -9.2 c0 -0.2 -0.3 -1.1 -0.6 -2 -0.9 -2.3 -2.3 -2 -2.1 0.4 0.1 1.1 0.7 2 1.4 2 0.7 0 1.3 -0.2 1.3 -0.4z"/>
  <path d="M91.9 172.6 c-3.1 -0.6 -10.2 -3.5 -15.7 -6.4 -5.8 -3 -14.1 -6.3 -19.4 -7.7 -13.8 -3.6 -13.8 -3.7 -13.8 -4.7 0 -1.9 10.8 0.7 22.7 5.5 l6.2 2.5 1.5 -2.1 c1.5 -2.2 1.5 -2.1 1.5 1.1 0.1 3 0.6 3.5 5.7 5.8 9.9 4.4 16 5.5 30.9 5.6 11.1 0.1 12.8 0.3 8 0.9 -9.1 1.1 -21.4 0.9 -27.6 -0.5z"/>
  <path d="M49.3 171.3 c-1.9 -0.7 2.2 -4.7 4.1 -4 0.9 0.4 1.6 1.6 1.6 2.7 0 2 -2.6 2.6 -5.7 1.3z"/>
  <path d="M72.4 139.4 c-1.8 -1.4 -1.8 -1.5 0.6 -0.8 1.4 0.3 3.2 1 4 1.5 1.2 0.7 1.1 0.8 -0.6 0.9 -1.1 0 -2.9 -0.7 -4 -1.6z"/>
  <path d="M63 133 c-2.5 -1.1 -5.8 -1.9 -7.5 -2 -1.6 0 -4.3 -0.7 -6 -1.5 -2.7 -1.3 -2.7 -1.4 -0.5 -1 1.4 0.3 5.6 1 9.4 1.5 7.2 1.1 10.6 2.4 10.6 4 0 1.3 -0.6 1.2 -6 -1z"/>
  <path d="M79 129.5 c0 -1.9 2.4 -2.9 4.8 -2 1.5 0.6 1.4 0.8 -0.8 2 -3.2 1.8 -4 1.8 -4 0z"/>
  <path d="M62.2 126.2 c-1.9 -1.2 -2.8 -1.3 -4.2 -0.4 -1.5 0.9 -2.8 0.7 -6.2 -0.8 -2.4 -1.1 -4.1 -2 -3.8 -2.1 0.3 0 3.7 -0.2 7.7 -0.2 6.7 -0.2 7.3 0 8.3 2.2 1.4 3 1.1 3.3 -1.8 1.3z"/>
  <path d="M54 118.6 c-0.6 -0.8 -1.8 -1.2 -2.6 -0.9 -1.7 0.6 -1.9 -2 -0.3 -5 0.9 -1.6 0.9 -2.2 0 -2.5 -0.6 -0.2 -1.1 -2.2 -1.1 -4.5 0 -3.9 -1.5 -9.7 -3.3 -12.3 -1 -1.6 3.5 -2.6 7.9 -1.8 2.5 0.5 3.4 0.3 3.4 -0.7 0 -0.8 1.9 -2.7 4.1 -4.4 2.2 -1.6 4.8 -4.2 5.7 -5.7 1.9 -3.3 3.2 -3.6 3.2 -0.8 0 1.1 0.5 2 1 2 0.6 0 1 -0.8 1 -1.7 0 -1 0.9 -3.7 1.9 -6 2.1 -4.5 4.3 -5.5 14.5 -6.9 4.1 -0.6 4.6 -0.5 4.6 1.3 0 1.7 -0.9 2.1 -5.2 2.6 -6.1 0.8 -9 2.7 -3.9 2.7 5.3 0 7.1 1.5 7.1 6 0 3 -0.4 4 -1.6 4 -0.8 0 -1.2 0.5 -0.9 1 0.3 0.6 1.5 1 2.6 1 2.7 0 2.7 5.9 -0.1 8.3 -1.4 1.1 -2 2.9 -2 5.6 0 2.2 -0.4 4.2 -0.9 4.6 -0.5 0.3 -0.7 2.2 -0.4 4.3 0.5 3.1 0.4 3.5 -0.8 2.5 -1.6 -1.3 -5 0.9 -6.2 4 -0.3 0.9 -1.1 1.7 -1.8 1.7 -0.6 0 -0.9 -0.7 -0.5 -1.5 0.4 -1 -0.1 -1.5 -1.4 -1.5 -1.1 0 -2 0.6 -2 1.4 0 1.5 -3.7 3.2 -4.7 2.2 -0.3 -0.3 0 -1.2 0.6 -2 0.7 -0.8 1 -1.9 0.7 -2.5 -0.3 -0.5 0.3 -0.7 1.4 -0.4 1.1 0.3 2 0 2 -0.6 0 -0.6 -0.6 -1.1 -1.2 -1.2 -0.7 0 0.2 -0.7 2 -1.5 3.9 -1.7 4.2 -3.5 0.5 -2.8 -1.6 0.2 -3.4 0 -4.2 -0.5 -1.2 -0.7 -0.9 -1.4 1.4 -3.4 l2.9 -2.5 -4.4 -5.8 c-2.5 -3.2 -4.8 -6.2 -5.1 -6.7 -0.4 -0.5 -2 0.1 -3.7 1.3 -2.1 1.6 -2.8 2.8 -2.4 4.3 0.3 1.4 0.1 1.8 -0.6 1.3 -0.7 -0.4 -1.2 -0.3 -1.2 0.2 0 1.4 3.9 5.9 4 4.7 0 -0.6 -0.6 -1.7 -1.2 -2.4 -1.1 -1.1 -0.9 -1.2 0.8 -0.3 2.7 1.4 4.7 3.9 3.7 4.5 -0.4 0.3 -2.1 0.8 -3.8 1.1 -1.6 0.4 -4.1 1.6 -5.5 2.7 -2.2 1.8 -2.3 1.9 -0.2 0.9 1.7 -0.8 2.2 -0.8 2.2 0.3 0 0.8 -1.1 1.9 -2.5 2.5 -2 0.9 -2.5 0.9 -2.5 -0.2 0 -1.2 -3 -1.9 -3 -0.7 0 0.3 1.9 2.3 4.2 4.4 2.4 2.2 3.5 3.6 2.5 3.3 -2.9 -0.9 -4 0.4 -2.1 2.5 1.5 1.6 1.5 1.9 0.2 1.9 -0.9 0 -2.1 -0.6 -2.8 -1.4z m33 -15.7 c0 -1.1 -0.4 -1.7 -1 -1.4 -0.5 0.3 -1 1.5 -1 2.6 0 1.1 0.5 1.7 1 1.4 0.6 -0.3 1 -1.5 1 -2.6z m-9 1.1 c0 -0.5 -0.7 -1 -1.5 -1 -0.8 0 -1.5 0.5 -1.5 1 0 0.6 0.7 1 1.5 1 0.8 0 1.5 -0.4 1.5 -1z m7 -5.8 c0 -0.9 -0.6 -1.2 -1.6 -0.8 -0.9 0.3 -2 0.6 -2.5 0.6 -1.3 0 -1.1 2.4 0.3 3.8 1 1 1.5 0.9 2.5 -0.5 0.7 -0.9 1.3 -2.3 1.3 -3.1z m-26.3 -0.6 c-0.4 -0.9 -1.1 -1.6 -1.7 -1.6 -1.5 0 -2.4 2.6 -1.6 4.7 0.6 1.5 0.8 1.5 2.3 0.1 0.9 -0.9 1.3 -2.4 1 -3.2z m24.8 -2.6 c1.8 -0.8 1.8 -0.9 -0.5 -0.9 -1.4 0 -3.4 0.4 -4.5 0.9 -1.8 0.8 -1.8 0.9 0.5 0.9 1.4 0 3.4 -0.4 4.5 -0.9z m-5.9 -5.5 c1.8 -2.7 1.2 -4.5 -1.5 -4.5 -2.6 0 -4.1 2.2 -3.4 4.8 0.7 2.9 2.9 2.8 4.9 -0.3z m5.9 1.4 c0.4 -0.5 0.4 -2.2 0 -3.7 -0.5 -2 -0.8 -2.3 -1.6 -1.1 -1.2 1.9 -1.2 5.9 0 5.9 0.6 0 1.3 -0.5 1.6 -1.1z m3.5 -4.4 c0 -0.8 -0.7 -1.5 -1.5 -1.5 -0.9 0 -1.2 0.6 -0.9 1.5 0.4 0.8 1 1.5 1.5 1.5 0.5 0 0.9 -0.7 0.9 -1.5z m-8.1 -7.2 c0 -2.5 -0.1 -2.5 -0.8 -0.8 -0.5 1.1 -0.7 2.3 -0.4 2.8 0.8 1.4 1.3 0.7 1.2 -2z m7.3 -0.5 c-0.9 -0.9 -1.5 -0.9 -2.4 0 -0.9 0.9 -0.7 1.2 1.2 1.2 1.9 0 2.1 -0.3 1.2 -1.2z"/>
  <path d="M120 72.5 c0 -3.2 0.2 -3.5 3 -3.5 l2.9 0 -2 3.5 c-1.2 1.9 -2.5 3.5 -3 3.5 -0.5 0 -0.9 -1.6 -0.9 -3.5z"/>
  <path d="M127 67 c0 -0.6 0.7 -1.3 1.5 -1.7 2.4 -0.9 2.7 0.1 0.5 1.5 -1.3 0.8 -2 0.8 -2 0.2z"/>
  <path d="M129.1 63.3 c-1.9 -0.8 -4.6 -2.3 -5.8 -3.3 -1.3 -1 -3.7 -2.2 -5.3 -2.5 -2.7 -0.6 -4.4 -3.5 -2.1 -3.5 0.5 0 1.2 -1 1.5 -2.2 0.6 -2.2 0.7 -2.2 2 -0.5 2.3 3 2.9 1.9 2.3 -4.5 -0.8 -8.5 -3.1 -14.6 -7.1 -18.8 -4.2 -4.4 -7.2 -10 -5.4 -10 1.9 0 9.3 4.4 14.3 8.5 3.3 2.7 5.1 5.4 7.4 10.8 1.6 4 3.2 8.9 3.6 11 l0.7 3.7 -4.1 0 c-5.4 0 -5.7 2.9 -0.6 5.3 4.5 2.1 4.5 2.1 4.5 -0.3 0 -2.9 1.3 -2.5 3.3 1 1 1.7 2.2 3 2.8 3 1.6 0 1 1.8 -0.8 2.4 -4.9 1.3 -8.1 1.3 -11.2 -0.1z m-0.1 -21.3 c0 -1.1 -0.4 -2 -0.9 -2 -0.5 0 -1.4 -1.4 -2.1 -3 -1.7 -4.2 -2 -3.4 -0.8 2.3 1 4.7 3.8 6.7 3.8 2.7z"/>
  <path d="M118.1 45.4 c0 -1.1 -1 -4.7 -2.1 -8 -1.5 -4.4 -1.6 -5.4 -0.5 -3.9 2 2.5 3.7 9.1 3.2 11.8 -0.4 2.1 -0.4 2.1 -0.6 0.1z"/>
 </g>
 <g fill="#4d3127">
  <path d="M146.5 166.8 c1.1 -0.7 2.3 -1.3 2.8 -1.4 0.4 -0.1 1 -0.2 1.3 -0.3 0.3 0 -0.3 -1.5 -1.3 -3.1 -1 -1.8 -2.3 -2.8 -3.1 -2.5 -0.8 0.3 -1.9 0.2 -2.5 -0.2 -2 -1.3 -3.9 -1.2 -9.6 0.3 -6.6 1.7 -7.1 1.7 -7.1 0.4 0 -0.6 0.6 -1 1.3 -0.9 4.2 0.5 4.4 -0.5 0.2 -1.5 l-5 -1.2 5.7 -0.8 c3.1 -0.4 9 -0.4 12.9 0 5.9 0.6 7.7 1.2 9.6 3.2 2.5 2.8 3.2 8.2 0.9 8.2 -0.7 0 -2.9 0.3 -4.7 0.6 -3.1 0.5 -3.2 0.4 -1.4 -0.8z"/>
  <path d="M111.1 159.9 c-3.6 -2.2 -3.7 -3.8 -0.1 -1.9 1.3 0.7 3.5 0.9 5.1 0.6 1.6 -0.3 3.1 -0.1 3.5 0.6 0.5 0.7 0.3 0.8 -0.6 0.3 -0.9 -0.5 -1.1 -0.4 -0.6 0.4 0.4 0.6 1.6 0.9 2.7 0.6 1 -0.4 2.7 -0.2 3.6 0.4 1.4 0.8 0.4 1 -4.2 1.1 -4.3 0 -6.9 -0.6 -9.4 -2.1z"/>
  <path d="M150 151 c0 -1.7 4.1 -3 9.8 -3 2.3 0 3.2 2.9 1 3.1 -0.7 0 -2.2 0.2 -3.3 0.5 -6 1.2 -7.5 1.1 -7.5 -0.6z"/>
  <path d="M71.5 139 c-0.7 -1.2 0.2 -1.2 3 0 1.9 0.8 1.9 0.9 -0.2 0.9 -1.2 0.1 -2.5 -0.3 -2.8 -0.9z"/>
  <path d="M67.3 134.8 c-1.3 -0.6 -2.3 -1.5 -2.3 -2 0 -1.5 2.5 -0.8 4.3 1.2 1.9 2.2 1.3 2.4 -2 0.8z"/>
  <path d="M87 124.6 c0 -1.5 1.8 -3.1 2.6 -2.3 0.7 0.7 -0.7 3.7 -1.7 3.7 -0.5 0 -0.9 -0.6 -0.9 -1.4z"/>
  <path d="M93 124 c-0.7 -0.4 0.2 -1 2.1 -1.4 l3.3 -0.6 -2.9 -3 -2.9 -3 2.6 0 c1.7 0 2.7 0.7 3.1 2 0.3 1.1 1.2 2 2.1 2 0.9 0 1.6 0.7 1.6 1.6 0 1.4 -0.3 1.4 -1.5 0.4 -0.8 -0.7 -1.5 -0.9 -1.5 -0.4 0 1.4 -4.7 3.2 -6 2.4z"/>
  <path d="M61 100.4 c0 -1.4 0.3 -1.4 1.5 -0.4 1.4 1.2 2 0.7 1.6 -1.4 -0.1 -0.5 0.5 -0.4 1.3 0.4 2.4 1.9 1.9 3 -1.4 3 -2.1 0 -3 -0.5 -3 -1.6z"/>
  <path d="M47.7 93.6 c-0.4 -0.9 -0.3 -1.6 0.1 -1.7 6 -0.6 13.9 -3.5 14.6 -5.4 0.3 -0.8 1.2 -1.5 2 -1.5 0.8 0 1.7 -0.6 1.9 -1.2 0.3 -0.7 0.6 -0.4 0.6 0.8 0.1 2.6 -2.9 5.4 -5.7 5.4 -1.5 0 -2.2 0.6 -2.2 2 0 1.2 -0.7 2 -1.7 2 -1 0 -3.4 0.3 -5.4 0.6 -2.8 0.5 -3.7 0.2 -4.2 -1z"/>
  <path d="M69 79.1 c0 -0.6 1.1 -2.3 2.5 -3.8 l2.4 -2.8 0.1 3.8 c0 3.3 -0.3 3.7 -2.5 3.7 -1.4 0 -2.5 -0.4 -2.5 -0.9z"/>
  <path d="M106 68.6 c0 -1.6 3 -2.6 7.8 -2.6 2.5 0 3.2 0.4 3.2 2 0 1.8 -0.7 2 -5.5 2 -4 0 -5.5 -0.4 -5.5 -1.4z"/>
  <path d="M123 67.5 c0 -0.8 0.6 -1.5 1.3 -1.6 0.6 0 2.3 -0.2 3.6 -0.5 2.4 -0.4 2.4 -0.4 0.6 1.6 -2.1 2.3 -5.5 2.7 -5.5 0.5z"/>
  <path d="M128 62.7 c-3.4 -1.7 -4.4 -2.7 -4.2 -4.2 0.6 -3 0.9 -3 5.6 -0.7 2.4 1.2 5.5 2.2 7 2.2 2 0 2.7 0.4 2.4 1.7 -0.2 0.9 -1 1.7 -1.8 1.9 -0.8 0.1 -2.2 0.5 -3 0.8 -0.8 0.3 -3.5 -0.5 -6 -1.7z m0.7 -1.8 c-2.2 -1.1 -4.1 -1.8 -4.3 -1.6 -0.5 0.5 5.6 3.7 7.1 3.6 0.6 0 -0.7 -0.9 -2.8 -2z"/>
  <path d="M113 56.5 c0 -0.3 0.5 -1.4 1.2 -2.4 1.3 -2.2 -0.2 -6.9 -3.2 -9.6 -1.4 -1.3 -1.6 -2.3 -1 -5.2 0.5 -2 1.7 -4.5 2.8 -5.6 2 -2 2 -1.9 3.7 1.3 0.9 1.7 2 6.2 2.4 9.8 0.4 3.7 0.9 7.2 1.1 7.7 0.9 3.3 -0.1 4.5 -3.5 4.5 -1.9 0 -3.5 -0.2 -3.5 -0.5z"/>
 </g>
 <g fill="#3b2921">
  <path d="M130 178 c0 -0.5 0.9 -1 2 -1 1.1 0 2 0.5 2 1 0 0.6 -0.9 1 -2 1 -1.1 0 -2 -0.4 -2 -1z"/>
  <path d="M149.5 174.2 c0.6 -0.4 1.5 -2.2 2.2 -4.1 1.2 -3.3 1.2 -3.3 -1.5 -2.8 -1.5 0.3 -4.5 0.8 -6.7 1.1 -3.5 0.5 -3.4 0.4 1.5 -1.2 10.2 -3.3 7 -8 -6.1 -8.8 -13.8 -0.9 -17.7 -2 -20.3 -6.3 -2.3 -3.6 -4.1 -9.1 -3.1 -9.1 1.5 0 5.5 3.4 5.5 4.6 0 2.9 13.8 7.4 22.5 7.4 3.9 0 5.2 0.5 7.5 3 2 2.1 3.7 3 6 3 2.9 0 3.1 0.2 1.9 1.6 -1.1 1.4 -1 1.9 1 3.5 1.3 1.1 2.1 1.9 1.8 1.9 -0.3 0 -1.2 0.3 -2.1 0.6 -1.1 0.4 -1.6 0.1 -1.6 -1 0 -0.9 -0.7 -1.6 -1.5 -1.6 -1 0 -1.5 1.1 -1.5 3.5 0 2.4 -0.6 3.7 -1.9 4.5 -2.3 1.2 -5.1 1.4 -3.6 0.2z"/>
  <path d="M64 167.6 c0 -2.2 0.3 -2.4 2.3 -1.7 1.2 0.5 2.2 1.5 2.2 2.2 0 0.8 -1 1.5 -2.2 1.7 -1.9 0.3 -2.3 -0.1 -2.3 -2.2z"/>
  <path d="M169.6 163.9 l1.6 -3.2 -5.1 0.7 c-2.8 0.4 -5.1 0.4 -5.1 0.2 0 -0.3 2 -1.4 4.5 -2.5 3.6 -1.6 4.5 -2.5 4.5 -4.4 0 -4.6 -2 -5.1 -12.4 -3.3 -7.3 1.3 -10.6 1.4 -14.2 0.6 -5.1 -1.2 -13.4 -5.6 -13.4 -7.2 0 -0.6 -0.8 -0.8 -1.8 -0.6 -1.5 0.4 -1.8 0.1 -1.4 -1.7 0.2 -1.2 -0.3 -2.9 -1.2 -3.7 -1.8 -1.8 -1.1 -2.8 2 -2.8 1.6 0 2.4 0.7 2.8 2.8 0.9 4 12.8 9.6 19.4 9.2 17.3 -1.2 23.2 0.5 23.2 6.5 0 1.9 0.5 3.5 1 3.5 0.6 0 1 1.6 1 3.5 0 2.9 -0.5 3.7 -2.6 4.5 -4.1 1.6 -4.6 1.2 -2.8 -2.1z"/>
  <path d="M105.5 151.5 c0.4 -1.1 1 -3 1.2 -4.2 0.3 -1.3 1 -2.3 1.5 -2.3 1.4 0 0 5.2 -1.9 7 -1.4 1.3 -1.5 1.3 -0.8 -0.5z"/>
  <path d="M104 143 c-1.5 -0.9 -1.6 -0.9 3.5 -2.5 1.8 -0.5 2 0.6 0.3 2.3 -1.4 1.4 -1.8 1.5 -3.8 0.2z"/>
  <path d="M109.7 139 c-1.7 -1.4 -2.3 -2.6 -2 -4 0.5 -1.8 1.4 -2 8.9 -2 4.6 0 8.4 0.3 8.4 0.6 0 1.9 -3.8 3.1 -8.3 2.7 -4.9 -0.5 -5 -0.5 -4.3 2.1 0.8 3.1 0.6 3.2 -2.7 0.6z"/>
  <path d="M92 131.3 c-1.7 -0.3 -3 -1.4 -3.9 -3.4 -1.4 -3.1 -0.8 -6.5 0.9 -5.4 0.6 0.4 0.7 1.3 0.1 2.3 -0.6 1.1 -0.5 2.3 0.4 3.5 1.7 2.4 2.5 2.1 2.5 -0.9 0 -1.4 0.4 -2.3 1 -1.9 0.6 0.3 1 1.5 1 2.5 0 1.4 0.5 1.8 1.6 1.3 1.1 -0.4 1.5 -0.2 1.2 0.7 -0.5 1.6 -1.4 1.8 -4.8 1.3z"/>
  <path d="M115 128.5 c0 -0.8 0.7 -1.5 1.6 -1.5 0.8 0 1.2 -0.5 0.9 -1 -0.4 -0.6 -1.1 -0.8 -1.6 -0.5 -0.5 0.4 -0.9 0 -0.9 -0.8 0 -0.8 0.9 -1.7 2 -2 2.1 -0.5 4 -4.3 4 -8 0 -1.2 0.5 -2.9 1 -3.7 0.9 -1.3 1.2 -1.2 2.2 0.5 1.1 1.8 1.2 1.7 2.4 -1.5 l1.2 -3.5 0.1 3.3 c0.1 3.6 -5.1 14.7 -7.1 15.5 -1 0.3 -0.8 1 0.6 2.6 l1.9 2.1 -4.1 0 c-3.1 0 -4.2 -0.4 -4.2 -1.5z"/>
  <path d="M60.8 125.3 c-1.6 -0.2 -2.8 -0.9 -2.8 -1.4 0 -1.5 4.7 -1 5.4 0.6 0.3 0.8 0.4 1.4 0.3 1.4 -0.1 -0.1 -1.4 -0.4 -2.9 -0.6z"/>
  <path d="M101 123.2 c-1.4 -1.3 -5.3 -4.8 -8.8 -7.9 -5.5 -4.9 -6.4 -5.4 -8 -4.2 -1.5 1.3 -1.6 1.2 -0.3 -0.4 2.2 -2.8 0.7 -2.9 -3.2 -0.3 -4.3 2.9 -5.6 1.3 -1.8 -2.1 2.4 -2.2 2.5 -2.4 0.9 -3.7 -1 -0.7 -1.8 -2 -1.8 -2.8 0 -0.8 -1.6 -3.5 -3.4 -5.9 -3.5 -4.3 -4 -5.9 -1.4 -4.3 0.7 0.5 2 0.9 2.8 0.9 0.8 0.1 2.9 0.3 4.5 0.5 l3 0.3 -3.4 0.6 c-1.9 0.3 -3.6 1.2 -3.9 1.9 -0.3 1 0.5 1.2 3.4 0.7 l3.9 -0.6 -2.3 1.8 -2.3 1.9 2.1 1.9 c1.8 1.6 2.3 1.7 3.1 0.5 0.7 -1.2 0.8 -1 0.7 0.7 -0.2 1.2 0.2 2.1 0.7 2 0.6 -0.1 0.9 -1.7 0.9 -3.4 -0.1 -1.8 0.3 -3.3 0.7 -3.3 0.5 0 0.9 1.5 0.9 3.4 0 2.9 0.9 4.3 5.4 8.6 3.9 3.7 5.2 5.7 4.9 7.1 -0.7 2.6 2.6 3.8 3.9 1.4 0.8 -1.4 1.2 -1.5 1.9 -0.4 1.1 1.7 1.2 6.6 0.2 7.1 -0.5 0.2 -1.9 -0.7 -3.3 -2z"/>
  <path d="M81 121.6 c0 -0.9 -0.7 -1.2 -2.2 -0.9 -1.8 0.4 -1.5 -0.1 1.1 -1.8 l3.4 -2.3 1.9 2.4 c1.9 2.3 1.9 2.4 0.1 3.1 -2.9 1.2 -4.3 1 -4.3 -0.5z"/>
  <path d="M52 114.1 c0 -2.5 2.7 -2.8 5.6 -0.6 1.9 1.4 1.9 1.4 -0.3 1.5 -1.2 0 -2.8 0.3 -3.7 0.6 -1.2 0.4 -1.6 0 -1.6 -1.5z"/>
  <path d="M100.4 107.7 c1.5 -1.1 1.7 -1.7 0.7 -3.5 -1.1 -2 -0.9 -2.2 1.9 -2.2 3 0 4.3 2.3 1.8 3.3 -1 0.4 -1 0.6 0 0.6 0.6 0.1 1.2 0.7 1.2 1.4 0 0.7 -1.6 1.3 -3.7 1.5 -3.3 0.2 -3.5 0.1 -1.9 -1.1z"/>
  <path d="M50 105.3 c0.1 -7.9 3 -12.3 4.5 -6.6 0.5 2.2 0.2 3.1 -1.4 4.2 -1.2 0.7 -2.1 1.7 -2.1 2.2 0 0.9 6.3 -2.5 9.2 -4.8 1.1 -1 1.8 -1.1 2.3 -0.4 1 1.7 2.8 1.3 2.1 -0.5 -0.5 -1.4 -0.4 -1.5 0.9 -0.4 2.3 1.9 1.8 3 -1.6 3 -1.7 0 -4.3 0.8 -5.7 1.9 -1.5 1 -3.9 2.1 -5.4 2.5 -2.3 0.5 -2.8 0.3 -2.8 -1.1z"/>
  <path d="M126.1 101 c-0.7 -2.3 -1 -4.4 -0.8 -4.7 0.7 -0.6 2.9 6.5 2.5 7.9 -0.2 0.6 -1 -0.8 -1.7 -3.2z"/>
  <path d="M122 96.4 c0 -2.2 0.4 -3.4 1.2 -3.2 1.6 0.6 1.6 6.8 0.1 6.8 -0.8 0 -1.3 -1.4 -1.3 -3.6z"/>
  <path d="M47.7 94.1 c-0.4 -1.7 0.2 -2.1 3.7 -2.7 8 -1.3 12.8 -4.7 17.8 -12.5 5.3 -8.2 10.2 -11.4 9.6 -6.1 -0.2 2.1 -0.9 2.8 -3 3 -2.4 0.3 -2.8 0.8 -2.8 3.3 0 1.9 -0.5 2.9 -1.5 2.9 -0.9 0 -1.5 0.9 -1.5 2.5 0 1.6 -0.5 2.5 -1.2 2.3 -2 -0.4 -7.7 4.3 -7.1 5.8 0.7 1.8 -4.6 3.1 -5.7 1.4 -0.4 -0.7 -0.9 -0.8 -1.1 -0.2 -0.2 0.5 -1.8 1.3 -3.5 1.6 -2.6 0.6 -3.2 0.4 -3.7 -1.3z"/>
  <path d="M88 69.6 c0 -1.3 2.8 -2.6 5.8 -2.6 0.6 0 1.2 0.9 1.2 2 0 1.6 -0.7 2 -3.5 2 -2.3 0 -3.5 -0.5 -3.5 -1.4z"/>
  <path d="M111 68.6 c0 -1.7 3.1 -2.6 9.3 -2.6 4 0 4.7 0.3 4.7 2 0 1.8 -0.7 2 -7 2 -5.3 0 -7 -0.3 -7 -1.4z"/>
  <path d="M134.5 63 c-2.4 -0.5 -9 -3.4 -10.3 -4.5 -0.2 -0.2 -0.7 -4 -1.2 -8.6 -0.8 -7.1 -2.2 -17.1 -3.3 -22.9 -0.1 -0.8 -0.7 -2.2 -1.2 -2.9 -1 -1.7 4.6 2.1 6.2 4.1 1.7 2.2 3.7 11 4.2 19.3 l0.6 8 4 1.9 c2.2 1.1 4.6 2.2 5.4 2.6 4.2 1.9 0.9 4.1 -4.4 3z"/>
 </g>
 <g fill="#332720">
  <path d="M111.5 180 l-3 -0.8 3.3 -0.1 c1.7 0 3.2 0.4 3.2 0.9 0 0.6 -0.1 0.9 -0.2 0.9 -0.2 -0.1 -1.6 -0.5 -3.3 -0.9z"/>
  <path d="M128 178 c2 -1.3 4.7 -1.3 5.5 0 0.4 0.6 -0.9 1 -3.2 1 -2.8 0 -3.4 -0.3 -2.3 -1z"/>
  <path d="M150.2 173.8 c0.9 -0.7 1.8 -2.6 2.1 -4.1 l0.5 -2.9 -4.7 0.6 c-4 0.4 -4.2 0.4 -1.5 -0.4 4.8 -1.5 5.8 -3.3 4 -6.8 -0.9 -1.7 -2.1 -3.2 -2.8 -3.5 -1 -0.4 -1 -0.6 0 -0.6 0.7 -0.1 2.3 1 3.5 2.3 1.2 1.3 3.2 2.6 4.5 3 1.2 0.4 2.2 1.2 2.2 1.8 0 0.6 0.8 2 1.7 3 1.6 1.8 1.6 1.9 -0.5 2.5 -1.2 0.3 -2.2 1.1 -2.2 1.9 0 0.7 -1.3 2 -3 2.9 -3.6 1.9 -6.1 2 -3.8 0.3z"/>
  <path d="M50 170.1 c0 -2.8 1.9 -3.6 3.8 -1.7 1.8 1.8 1.6 2.1 -1.5 3 -1.9 0.6 -2.3 0.3 -2.3 -1.3z"/>
  <path d="M61 169.3 c0 -3.7 1.5 -4.7 4.9 -3.3 3.4 1.4 3.7 2 1.9 3.8 -1.9 1.9 -6.8 1.5 -6.8 -0.5z"/>
  <path d="M170 165.8 c0 -0.5 0.5 -1.8 1.1 -3 1 -1.9 0.8 -2 -4 -1.7 -5.8 0.4 -6.7 -0.4 -2 -1.7 4 -1.1 6 -4.1 4.8 -7.1 -1 -2.7 -4.9 -3 -15.6 -1.1 -5.7 0.9 -7.7 0.8 -12.3 -0.5 -7.2 -2.1 -13.7 -6.4 -14.9 -9.9 -0.6 -1.5 -1.5 -2.8 -2 -2.8 -0.6 0 -0.7 -0.8 -0.4 -1.7 0.5 -1.3 0.2 -1.5 -1.1 -1 -1 0.4 -4.3 0.7 -7.3 0.7 -5 0 -5.5 0.2 -5 2 0.4 1.6 0.2 1.8 -1.2 1.1 -0.9 -0.5 -2.5 -1.9 -3.6 -3.1 -1.1 -1.2 -2.8 -2.6 -3.9 -3.2 -1.6 -0.9 -1.8 -0.7 -1.3 1.1 0.5 1.9 0.2 2.1 -1.6 1.4 -1.2 -0.4 -3.3 -0.7 -4.5 -0.6 -1.9 0.1 -2.3 -0.3 -1.9 -1.8 0.4 -1.5 0 -1.9 -2.2 -1.9 -2 0 -2.7 -0.5 -2.7 -2.1 0 -1.9 0.1 -1.9 1.3 -0.3 1 1.4 1.5 1.5 2.8 0.4 0.8 -0.7 1.5 -0.8 1.5 -0.3 0 0.5 1.5 0.8 3.3 0.8 3.5 -0.2 7.7 -2 7.7 -3.5 0 -0.5 -1.7 0 -3.7 1.1 -2.1 1.2 -2.9 1.4 -1.9 0.5 1 -0.8 2.3 -1.7 2.9 -1.9 0.6 -0.2 0.6 -1.1 -0.2 -2.5 -0.8 -1.6 -0.9 -2.8 -0.1 -4.1 1.5 -3 1.2 -4.4 -0.7 -3.6 -1.5 0.5 -1.6 0.4 -0.5 -0.6 0.6 -0.7 1.2 -2.1 1.2 -3.1 0 -0.9 0.8 -2.2 1.8 -2.7 2.2 -1.4 1.2 -1.4 -2.6 0 -3.2 1.1 -5 3.8 -3.3 4.9 0.6 0.3 0.7 1.7 0.3 3.3 l-0.7 2.8 -2.1 -2.3 c-1.1 -1.3 -2.7 -4.3 -3.4 -6.8 -1.3 -4.3 -1.4 -4.4 -1.9 -1.7 l-0.6 2.8 -4.8 -4.7 c-4.3 -4.1 -8.6 -9.4 -15.2 -18.4 l-2 -2.8 -3 2.6 c-1.7 1.4 -2.9 3.1 -2.7 3.7 0.1 0.7 -1.6 1.7 -3.8 2.4 -3.6 1.1 -4 1.5 -4 4.5 0 2.1 -0.6 3.6 -1.5 4 -0.8 0.3 -1.6 1.3 -1.6 2.3 -0.1 1 -0.5 -0.2 -1 -2.7 -0.4 -2.5 -1.1 -5.9 -1.4 -7.6 -0.7 -2.9 -0.6 -3 4.4 -4.2 7.4 -1.7 12.4 -5.3 15.9 -11.4 4.9 -8.6 9.4 -10.9 23.5 -12.3 6.4 -0.7 6.7 -0.6 6.7 1.4 0 1.8 -0.6 2.1 -3.7 2.1 -2.1 0 -5.6 0.3 -7.8 0.7 l-4 0.7 3.5 0.9 c1.9 0.4 4.7 1.1 6.2 1.4 2.5 0.5 2.8 1 2.8 4.7 l0 4.1 2.1 -3.2 c2.2 -3.5 3.8 -3.9 11.2 -2.7 3.5 0.6 3.7 0.8 3.7 4.4 0 2.1 -0.6 4.1 -1.2 4.3 -0.7 0.3 -0.1 0.6 1.5 0.6 2 0.1 2.7 0.6 2.7 2.1 0 1.1 0.6 2 1.4 2 1.2 0 1.3 -0.6 0.5 -3.2 -1.2 -4.2 -0.1 -14.4 1.8 -16.3 0.8 -0.8 1 -1.5 0.4 -1.5 -0.6 0 -1.1 -0.6 -1.1 -1.4 0 -1.5 3 -2.6 7.4 -2.6 l3 0 -3 3.2 c-1.6 1.8 -3.8 5 -4.8 7 -1.9 3.7 -1.9 3.8 0.4 10.9 2.9 9 3.1 12.9 0.8 12.9 -1.2 0 -1.8 0.8 -1.9 2.3 0 1.2 -1.1 -0.7 -2.3 -4.2 l-2.2 -6.5 -1.3 5 c-0.7 2.7 -2.2 7.3 -3.3 10.1 -1.4 3.5 -1.8 6.4 -1.4 8.5 0.3 1.8 0.7 3.8 0.8 4.5 0.2 2 5.8 3.5 7.6 2 1.3 -1 1.5 -0.9 0.9 0.6 -0.4 1 -0.7 2.3 -0.7 2.9 0 0.6 -0.6 0.8 -1.2 0.5 -0.7 -0.2 -2.2 -0.1 -3.3 0.4 -1.5 0.6 -1.1 0.8 1.9 0.8 3.4 0.1 4.8 0.9 10.6 6.4 11.8 11.1 11.8 11.1 23.5 12.6 5 0.6 10.7 1.4 12.9 1.7 2.1 0.2 5.1 1.1 6.7 2 2.4 1.2 2.9 2.1 2.9 4.9 0 2.5 0.4 3.5 1.6 3.5 1.1 0 1.4 0.9 1.2 3.7 -0.2 3 -0.8 3.8 -3 4.4 -1.7 0.4 -2.8 0.3 -2.8 -0.3z m-59 -42.9 c0 -0.8 -3.2 -2.9 -4.4 -2.9 -0.3 0 -0.6 0.8 -0.6 1.9 0 1.3 0.7 1.9 2.5 1.9 1.4 0 2.5 -0.4 2.5 -0.9z m-4.8 -10.1 c-1.5 -1.5 -2.6 -0.4 -1.8 1.8 0.5 1.3 0.9 1.5 1.8 0.6 0.9 -0.9 0.9 -1.5 0 -2.4z m-4.5 -5.9 c0.9 -0.9 0.8 -1.5 -0.3 -2.6 -0.8 -0.8 -1.1 -2 -0.7 -2.6 1.6 -2.6 1.9 -9.3 0.5 -10.6 -2 -1.9 -3.7 0.1 -2.3 2.7 0.6 1.1 1.1 2.9 1 3.9 0 1.6 -0.1 1.6 -0.8 -0.1 -0.5 -1.4 -1 -1.6 -1.5 -0.8 -0.4 0.7 -0.5 1.5 -0.3 2 0.3 0.4 -0.3 2.5 -1.4 4.6 -1 2.2 -1.9 4.1 -1.9 4.3 0 0.9 6.8 0.1 7.7 -0.8z m-14.7 -4.3 c0 -1.2 -0.6 -3.1 -1.4 -4.1 -1.2 -1.7 -1.7 -1.8 -4.1 -0.7 l-2.8 1.3 3.4 3.4 c3.7 3.6 4.9 3.6 4.9 0.1z m21.4 -1.2 c2.3 -2.2 2 -5.3 -0.6 -6.3 -3.1 -1.2 -4.6 0.3 -3 2.9 0.6 1.1 1.2 2.7 1.2 3.5 0 1.9 0.5 1.9 2.4 -0.1z m-26.3 -5.4 c2 -0.6 4.3 -1.8 5 -2.7 1.2 -1.5 1.2 -1.6 -0.6 -0.8 -1.1 0.4 -3.8 1.1 -5.9 1.4 -2.2 0.3 -4.1 1.2 -4.4 1.9 -0.5 1.5 1.1 1.5 5.9 0.2z m-3.6 -7.3 c0.4 -1.3 0.5 -4.8 0.3 -7.8 l-0.4 -5.4 -1.4 4.7 c-0.8 2.9 -2.1 4.8 -3.2 5.1 -2 0.6 -2.5 4.6 -0.6 6.5 1.5 1.5 4.6 -0.2 5.3 -3.1z m5.5 2.3 c0.6 -1.1 0.8 -2.6 0.4 -3.3 -0.5 -0.8 -0.2 -0.7 0.9 0.2 1.5 1.2 1.7 1.1 1.7 -0.8 0 -1.8 -0.5 -2.1 -2.7 -1.8 -2.4 0.3 -2.8 0.9 -3.1 4 -0.3 4 1.1 4.9 2.8 1.7z m22.9 -3.9 c2.4 -3.3 2.8 -5.7 0.5 -2.6 -1.3 1.7 -1.6 1.8 -2.5 0.5 -0.8 -1.2 -0.9 -1 -0.4 0.7 0.4 1.5 0 2.5 -1.2 3.2 -1.6 0.9 -1.6 1 -0.1 1.1 0.9 0 2.6 -1.3 3.7 -2.9z m-17.9 -7.3 c0 -0.4 -0.9 -1.2 -2.1 -1.9 -2.6 -1.4 -4.4 0.1 -3.5 2.9 0.6 1.7 1 1.8 3.1 0.8 1.4 -0.6 2.5 -1.4 2.5 -1.8z"/>
  <path d="M124.4 155.2 c-1.2 -0.4 -3.3 -2 -4.6 -3.7 -2.5 -3.1 -4.2 -7.5 -2.9 -7.5 1.1 0 4.1 3.5 4.1 4.7 0 1.6 8.2 4.5 18.5 6.7 1.1 0.2 -1.4 0.4 -5.5 0.4 -4.1 0 -8.5 -0.3 -9.6 -0.6z"/>
  <path d="M106.4 148.5 c0.6 -1.9 1.4 -3.1 1.9 -2.6 0.8 0.8 -1.1 6.1 -2.3 6.1 -0.4 0 -0.2 -1.6 0.4 -3.5z"/>
  <path d="M104.5 142 c0.3 -0.5 1.6 -1 2.8 -1 1.8 0 1.9 0.2 0.7 1 -2 1.3 -4.3 1.3 -3.5 0z"/>
  <path d="M81.3 122.1 c-0.3 -1.3 -1 -1.8 -2.1 -1.4 -1.4 0.5 -1.4 0.3 0.2 -1.3 1.3 -1.4 2 -1.5 2.3 -0.6 0.3 0.6 0.9 1.2 1.4 1.2 0.6 0 0.7 -0.6 0.3 -1.2 -0.5 -0.9 -0.2 -0.9 0.9 0.1 2.2 1.7 2.1 2.3 -0.4 3.9 -1.8 1.2 -2.1 1.1 -2.6 -0.7z"/>
  <path d="M50.6 114.8 c0.3 -1.3 0.8 -2.5 1 -2.6 0.6 -0.8 6.4 1 6.4 1.9 0 0.6 -0.4 0.8 -0.9 0.5 -0.4 -0.3 -1.7 0.1 -2.7 0.9 -2.9 2.2 -4.7 1.9 -3.8 -0.7z"/>
  <path d="M127.2 108.5 c-0.1 -3.3 -0.5 -7.1 -0.7 -8.5 l-0.6 -2.5 1.1 2.5 c0.6 1.3 0.9 5.1 0.7 8.5 l-0.3 6 -0.2 -6z"/>
  <path d="M132.7 61.6 c-6.7 -2.4 -7.8 -4.1 -7.3 -11 0.3 -3.8 -0.1 -8.1 -1.1 -11.4 -0.8 -2.9 -1.6 -7.1 -1.7 -9.3 l-0.3 -3.9 2.5 2.2 c3 2.7 8.7 14.7 9.7 20.3 0.7 4.2 3.8 11 5.5 12 1.4 0.9 0.2 2.5 -1.8 2.5 -0.9 -0.1 -3.4 -0.7 -5.5 -1.4z"/>
 </g>
 <g fill="#181512">
  <path d="M130 178 c1.9 -1.3 3 -1.3 3 0 0 0.6 -1 1 -2.2 1 -1.9 0 -2 -0.2 -0.8 -1z"/>
  <path d="M153 171.1 c0 -1.1 0.6 -2.2 1.3 -2.5 0.9 -0.3 0.7 -0.9 -0.6 -1.9 -1.9 -1.6 -1.4 -4.7 0.9 -4.7 0.7 0 2 1.2 2.8 2.7 1.3 2.5 1.2 3 -0.6 5.5 -2.3 3.3 -3.8 3.6 -3.8 0.9z"/>
  <path d="M50.3 169.8 c0.2 -0.7 1 -1.3 1.7 -1.3 0.7 0 1.5 0.6 1.8 1.3 0.2 0.7 -0.5 1.2 -1.8 1.2 -1.3 0 -2 -0.5 -1.7 -1.2z"/>
  <path d="M168.5 159 c1.1 -0.5 3.4 -0.9 5 -0.9 2.3 -0.1 2.6 0.2 1.5 0.9 -0.8 0.5 -3.1 0.9 -5 0.9 -2.9 0 -3.1 -0.2 -1.5 -0.9z"/>
  <path d="M144 148.6 c-8.2 -1.5 -9.9 -2.5 -11.9 -6.7 -1 -2.1 -2.5 -3.5 -3.9 -3.7 -1.4 -0.2 -2.2 -1 -2.2 -2.4 0 -1.9 -0.4 -2 -7.7 -1.3 -4.3 0.4 -8.2 1.1 -8.7 1.5 -0.5 0.5 -2.3 -0.2 -4.1 -1.6 -1.7 -1.3 -3.9 -2.4 -4.8 -2.4 -2.8 0 -1.9 -1.4 2.3 -3.8 3.7 -2.1 4.2 -2.2 7 -0.7 2 1 4.2 1.3 7 0.9 3.9 -0.6 4.2 -0.5 9.7 5.1 7.6 7.7 16.7 12.1 27.1 13 4.2 0.4 9.1 1 10.7 1.5 2.4 0.7 1.8 0.8 -3.5 0.9 -3.6 0.1 -7.4 0.3 -8.5 0.5 -1.1 0.2 -4.9 -0.2 -8.5 -0.8z"/>
  <path d="M90.7 113.2 c-4.5 -4.5 -4.7 -5 -3.6 -7.9 0.7 -2.1 0.7 -4.3 0.1 -6.7 -0.8 -2.8 -0.7 -3.7 0.7 -5 1 -0.9 2.3 -1.6 2.9 -1.6 2.6 0 -0.1 -12.4 -3.1 -14.5 -3 -2.1 -3.2 -2 -5.6 2.1 l-2.2 3.7 4.6 -0.5 c2.5 -0.3 4.5 -0.2 4.5 0.3 0 0.5 -1.2 0.9 -2.7 0.9 -3.7 0 -4.9 0.9 -5.7 4.3 -0.3 1.5 -1 2.7 -1.5 2.7 -0.5 0 -0.7 -0.8 -0.5 -1.7 0.8 -3.3 1 -13.3 0.3 -13.3 -1.3 0 -8 13.1 -7.3 14.3 0.3 0.7 -0.6 -0.1 -1.9 -1.7 l-2.5 -2.9 -3.1 2.4 c-1.6 1.3 -3 3 -3 3.7 -0.1 0.7 -1.3 1.7 -2.8 2.2 -1.6 0.6 -4.1 1.7 -5.7 2.6 -2.4 1.4 -3 1.4 -3.7 0.3 -1.7 -2.7 -0.4 -4.2 4.9 -5.5 8 -2.1 11.1 -4.1 14 -9.2 1.5 -2.6 4.3 -6.3 6.2 -8.3 4.7 -4.9 10.4 -6 34.3 -6.8 17.3 -0.5 22.5 -0.1 18.2 1.5 -0.9 0.4 -2.8 2.9 -4.2 5.7 -2.3 4.7 -2.5 5.5 -1.4 10 1.5 6.5 1.4 9.9 -0.3 12.2 -1.3 1.9 -1.5 1.8 -2.8 -1.5 l-1.5 -3.5 -2.9 9 c-2.5 7.9 -3.2 9 -5.4 9.3 l-2.5 0.3 2.4 -1.9 c1.3 -1.1 2.1 -2.4 1.8 -2.9 -0.4 -0.6 -0.2 -2.5 0.3 -4.4 1.5 -5.1 0.5 -6.9 -3.8 -7 l-3.7 0 4.8 -1.3 c6.2 -1.7 7.3 -2.9 1.9 -2 l-4.2 0.7 2.5 -4.4 c2.8 -4.9 3.2 -6.7 1.2 -5 -0.8 0.6 -1.7 0.8 -2 0.4 -0.4 -0.3 -1.7 0.2 -2.9 1.3 l-2.2 1.9 1.7 -2.7 c1 -1.6 1.3 -2.8 0.8 -2.8 -1.5 0 -5.3 6.9 -4.7 8.5 0.3 0.8 0.1 1.5 -0.4 1.5 -0.6 0 -1 1.1 -1 2.5 0 1.4 -0.9 5.3 -2 8.6 -1.8 5.3 -1.9 6.3 -0.7 7.8 0.8 0.9 1.2 2.2 1 2.9 -0.3 0.7 0 1.9 0.7 2.7 1.1 1.4 0.6 3.5 -0.8 3.5 -0.4 0 -2.9 -2.2 -5.5 -4.8z m25.6 -32.3 c-0.5 -5.5 -0.4 -6.1 1.6 -6.6 1.1 -0.3 2.1 -1.2 2.1 -1.9 0 -1.1 -2.4 -1.4 -11.8 -1.4 l-11.7 0 0.3 4.5 0.4 4.6 2.4 -2.6 c2.4 -2.6 4.2 -2.9 10.8 -1.8 l3.8 0.6 -0.4 5.3 c-0.4 4.6 -0.2 5.4 1.3 5.4 1.5 0 1.6 -0.8 1.2 -6.1z m-23.3 -0.6 c0 -1.9 -0.3 -2.4 -1 -1.7 -0.6 0.6 -0.8 1.8 -0.4 2.7 0.9 2.4 1.4 2.1 1.4 -1z"/>
  <path d="M73.6 94.1 c-0.3 -0.5 0.4 -1.1 1.6 -1.4 3 -0.8 3.5 -0.1 0.9 1.2 -1.1 0.6 -2.2 0.7 -2.5 0.2z"/>
  <path d="M135 57.2 c-3.5 -2.3 -3.9 -3.1 -3.4 -6.8 0.3 -2.2 -0.1 -3.6 -1 -4.1 -3.4 -1.9 -6.5 -13.1 -3.3 -12.1 1.6 0.6 5.3 8.2 6.8 14.3 0.6 2.8 1.8 6.2 2.6 7.8 1.6 3.1 1.6 3.1 -1.7 0.9z"/>
 </g>
 <g fill="#121212">
  <path d="M150.5 148.2 c-7.6 -0.7 -13.4 -2.4 -15.2 -4.5 -4 -4.4 -3.4 -4.8 2.9 -1.6 4.5 2.3 8.8 3.5 15.3 4.4 8 1 8.5 1.2 4.5 1.6 -2.5 0.2 -5.8 0.3 -7.5 0.1z"/>
  <path d="M91.1 111.2 c-0.1 -0.7 -0.5 -1.1 -1 -0.7 -0.5 0.3 -1.3 0.1 -1.6 -0.5 -0.4 -0.6 -0.1 -0.9 0.7 -0.8 0.8 0.2 1.2 -0.5 1.1 -1.7 -0.1 -1.1 0.2 -3.3 0.7 -5 0.5 -1.6 1.1 -5.7 1.4 -9 0.3 -3.3 0.8 -8.8 1.2 -12.2 l0.7 -6.2 -5.2 0.2 c-4.3 0.2 -5.6 0.7 -7.1 2.7 l-2 2.5 0 -3.5 -0.1 -3.5 -2 2.5 c-1.2 1.4 -3.2 4.7 -4.6 7.3 -2.4 4.8 -4.6 5.7 -5.1 2.1 -0.4 -2.7 5.7 -11.4 9.3 -13.4 4.2 -2.3 18.4 -4 35.2 -4.3 l14.2 -0.2 -2 2.1 c-1 1.1 -1.9 2.5 -1.9 3.1 0 0.6 -0.9 2.2 -2.1 3.6 -1.6 2.2 -1.8 3.3 -1.1 5.9 0.5 1.8 0.7 5 0.4 7.1 -0.3 3.1 -0.8 3.8 -2.2 3.4 -1.9 -0.5 -4 2.7 -4 6.1 -0.1 1.4 -0.2 1.5 -0.9 0.2 -0.5 -0.8 -1.1 -2.7 -1.4 -4.1 -0.5 -2.1 -0.2 -2.8 1.6 -3.7 l2.2 -1.1 -2.5 0 c-4.8 -0.2 -5.6 -1.5 -3.7 -5.6 2.3 -4.8 2.2 -5.8 -0.7 -5.1 -1.5 0.4 -2.6 0.1 -2.8 -0.6 -0.7 -2.1 -5.6 4 -7.2 9 -0.8 2.6 -2 7.3 -2.6 10.4 -0.6 3.2 -1.8 6.5 -2.7 7.4 -1.2 1.1 -1.3 1.8 -0.4 2.7 1.3 1.3 1.5 3.1 0.2 2.3 -0.5 -0.4 -1.2 0 -1.4 0.6 -0.4 1 -0.6 1 -0.6 0z"/>
 </g>
</svg>